RecursiveMono-GothicB14Italic.ufo
<glyph name="exclam" format="1">
  <advance width="600"/>
  <unicode hex="0021"/>
  <outline>
    <contour>
      <point x="354" y="290" type="line"/>
      <point x="366" y="361"/>
      <point x="378" y="431"/>
      <point x="390" y="502.0" type="curve"/>
      <point x="390.0" y="689" type="line" smooth="yes"/>
      <point x="390" y="696"/>
      <point x="385" y="700.0"/>
      <point x="379" y="700.0" type="curve" smooth="yes"/>
      <point x="307.0" y="700.0"/>
      <point x="251" y="700.0"/>
      <point x="210" y="700" type="curve"/>
      <point x="210.0" y="662"/>
      <point x="210" y="627"/>
      <point x="210" y="590" type="curve" smooth="yes"/>
      <point x="210" y="502.0" type="line"/>
      <point x="243" y="299.0"/>
      <point x="244.0" y="297.0"/>
      <point x="248" y="293" type="curve" smooth="yes"/>
      <point x="250" y="291"/>
      <point x="252" y="290"/>
      <point x="256" y="290" type="curve"/>
    </contour>
    <component base="period"/>
  </outline>
</glyph>
<glyph name="quotedbl" format="1">
  <advance width="600"/>
  <unicode hex="0022"/>
  <outline>
    <contour>
      <point x="235" y="450" type="curve"/>
      <point x="258" y="737" type="line" smooth="yes"/>
      <point x="259" y="746"/>
      <point x="254.0" y="750.0"/>
      <point x="248" y="750" type="curve" smooth="yes"/>
      <point x="200.01775147928993" y="750.0"/>
      <point x="147.33136094674558" y="750.0"/>
      <point x="89" y="750" type="curve"/>
      <point x="92" y="714"/>
      <point x="94" y="683"/>
      <point x="97" y="648" type="curve" smooth="yes"/>
      <point x="112" y="461" type="line" smooth="yes"/>
      <point x="113" y="454"/>
      <point x="118.0" y="450.0"/>
      <point x="124" y="450" type="curve" smooth="yes"/>
      <point x="161.61157024793388" y="450.0"/>
      <point x="197.38842975206612" y="450.0"/>
    </contour>
    <contour>
      <point x="487" y="450" type="curve"/>
      <point x="510" y="737" type="line" smooth="yes"/>
      <point x="511" y="746"/>
      <point x="506.0" y="750.0"/>
      <point x="500" y="750" type="curve" smooth="yes"/>
      <point x="452.0177514792899" y="750.0"/>
      <point x="399.3313609467456" y="750.0"/>
      <point x="341" y="750" type="curve"/>
      <point x="364" y="461" type="line"/>
      <point x="365" y="454"/>
      <point x="370.0" y="450.0"/>
      <point x="376" y="450" type="curve" smooth="yes"/>
      <point x="413.61157024793386" y="450.0"/>
      <point x="449.38842975206614" y="450.0"/>
    </contour>
  </outline>
</glyph>
<glyph name="plus" format="1">
  <advance width="600"/>
  <unicode hex="002B"/>
  <outline>
    <contour>
      <point x="60.0" y="374.0" type="line"/>
      <point x="60.0" y="328.0"/>
      <point x="60.0" y="283.0"/>
      <point x="60.0" y="237.0" type="curve" smooth="yes"/>
      <point x="60.0" y="234.0"/>
      <point x="61.0" y="231.0"/>
      <point x="63.0" y="229.0" type="curve" smooth="yes"/>
      <point x="65.0" y="227.0"/>
      <point x="68.0" y="226.0"/>
      <point x="71.0" y="226.0" type="curve"/>
      <point x="540.0" y="226.0" type="line"/>
      <point x="540.0" y="272.0"/>
      <point x="540.0" y="317.0"/>
      <point x="540.0" y="363.0" type="curve" smooth="yes"/>
      <point x="540.0" y="369.0"/>
      <point x="535.0" y="374.0"/>
      <point x="529.0" y="374.0" type="curve"/>
    </contour>
    <contour>
      <point x="375" y="62" type="curve"/>
      <point x="375" y="527" type="line" smooth="yes"/>
      <point x="375" y="530"/>
      <point x="374" y="533"/>
      <point x="372" y="535" type="curve" smooth="yes"/>
      <point x="370" y="537"/>
      <point x="367" y="538"/>
      <point x="364" y="538" type="curve" smooth="yes"/>
      <point x="319" y="538"/>
      <point x="280" y="538"/>
      <point x="225" y="538" type="curve"/>
      <point x="225" y="510"/>
      <point x="225" y="476"/>
      <point x="225" y="440" type="curve" smooth="yes"/>
      <point x="225" y="73" type="line" smooth="yes"/>
      <point x="225.0" y="67.0"/>
      <point x="230" y="62"/>
      <point x="236" y="62" type="curve" smooth="yes"/>
      <point x="286" y="62"/>
      <point x="325" y="62"/>
    </contour>
  </outline>
</glyph>
<glyph name="period" format="1">
  <advance width="600"/>
  <unicode hex="002E"/>
  <outline>
    <contour>
      <point x="400" y="-10" type="curve"/>
      <point x="400" y="179" type="line" smooth="yes"/>
      <point x="400.0" y="185.0"/>
      <point x="395.0" y="190.0"/>
      <point x="389" y="190" type="curve" smooth="yes"/>
      <point x="326" y="190.0"/>
      <point x="263" y="190.0"/>
      <point x="200" y="190" type="curve"/>
      <point x="200" y="1" type="line" smooth="yes"/>
      <point x="200" y="-5"/>
      <point x="205.0" y="-10.0"/>
      <point x="211" y="-10" type="curve" smooth="yes"/>
      <point x="274" y="-10.0"/>
      <point x="337" y="-10.0"/>
    </contour>
  </outline>
</glyph>
<glyph name="zero" format="1">
  <advance width="600"/>
  <unicode hex="0030"/>
  <outline>
    <contour>
      <point x="300.0" y="720.0" type="curve" smooth="yes"/>
      <point x="160.0" y="720.0"/>
      <point x="50.0" y="618.0"/>
      <point x="50.0" y="445.0" type="curve" smooth="yes"/>
      <point x="50.0" y="255.0" type="line" smooth="yes"/>
      <point x="50.0" y="82"/>
      <point x="160.0" y="-20.0"/>
      <point x="300.0" y="-20.0" type="curve"/>
      <point x="318.0" y="-20.0"/>
      <point x="328.0" y="-7"/>
      <point x="300.0" y="120.0" type="curve"/>
      <point x="239.0" y="120.0"/>
      <point x="200" y="153.0"/>
      <point x="200.0" y="255.0" type="curve" smooth="yes"/>
      <point x="200.0" y="445.0" type="line" smooth="yes"/>
      <point x="200.0" y="547.0"/>
      <point x="239.0" y="580.0"/>
      <point x="300.0" y="580.0" type="curve" smooth="yes"/>
      <point x="347" y="580.0"/>
      <point x="391" y="580"/>
      <point x="417.0" y="580.0" type="curve"/>
      <point x="417.0" y="667"/>
      <point x="385" y="720.0"/>
    </contour>
    <contour>
      <point x="300.0" y="-20.0" type="curve" smooth="yes"/>
      <point x="440.0" y="-20.0"/>
      <point x="550.0" y="82.0"/>
      <point x="550.0" y="255.0" type="curve" smooth="yes"/>
      <point x="550.0" y="445.0" type="line" smooth="yes"/>
      <point x="550.0" y="618.0"/>
      <point x="441.0" y="720.0"/>
      <point x="300.0" y="720.0" type="curve"/>
      <point x="282.0" y="720.0"/>
      <point x="272.0" y="707.0"/>
      <point x="300.0" y="580.0" type="curve"/>
      <point x="360.0" y="580.0"/>
      <point x="400.0" y="547.0"/>
      <point x="400.0" y="445.0" type="curve" smooth="yes"/>
      <point x="400.0" y="255.0" type="line" smooth="yes"/>
      <point x="400.0" y="153.0"/>
      <point x="361.0" y="120.0"/>
      <point x="286.0" y="120.0" type="curve" smooth="yes"/>
      <point x="227.0" y="120.0"/>
      <point x="209.0" y="120.0"/>
      <point x="183.0" y="120.0" type="curve"/>
      <point x="183.0" y="33.0"/>
      <point x="215.0" y="-20.0"/>
    </contour>
    <contour>
      <point x="159" y="171" type="curve"/>
      <point x="250.0" y="245.0"/>
      <point x="341.0" y="319.0"/>
      <point x="432" y="393" type="curve"/>
      <point x="462" y="418"/>
      <point x="464" y="436"/>
      <point x="433" y="522" type="curve"/>
      <point x="335" y="443"/>
      <point x="236" y="365"/>
      <point x="138" y="286" type="curve" smooth="yes"/>
      <point x="115" y="268"/>
      <point x="119" y="248"/>
    </contour>
  </outline>
</glyph>
<glyph name="less" format="1">
  <advance width="600"/>
  <unicode hex="003C"/>
  <outline>
    <contour>
      <point x="520" y="442" type="curve"/>
      <point x="520" y="580" type="line"/>
      <point x="520.0" y="586.0"/>
      <point x="517.0" y="590.0"/>
      <point x="511" y="590" type="curve" smooth="yes"/>
      <point x="507.0" y="590.0"/>
      <point x="503" y="589.0"/>
      <point x="488" y="583" type="curve" smooth="yes"/>
      <point x="443" y="563"/>
      <point x="220.0" y="466.0"/>
      <point x="79" y="405" type="curve"/>
      <point x="79" y="226" type="line"/>
      <point x="96" y="252"/>
      <point x="117" y="271"/>
      <point x="180" y="298" type="curve"/>
      <point x="293" y="346"/>
      <point x="407" y="394"/>
    </contour>
    <contour>
      <point x="519" y="6" type="curve"/>
      <point x="519" y="54"/>
      <point x="519" y="97"/>
      <point x="519" y="145" type="curve" smooth="yes"/>
      <point x="519" y="155"/>
      <point x="518" y="158"/>
      <point x="507" y="163" type="curve" smooth="yes"/>
      <point x="419" y="200"/>
      <point x="326" y="240"/>
      <point x="238" y="277" type="curve" smooth="yes"/>
      <point x="228" y="281"/>
      <point x="225" y="286"/>
      <point x="225" y="296" type="curve" smooth="yes"/>
      <point x="225" y="317"/>
      <point x="225" y="343"/>
      <point x="225" y="381" type="curve"/>
      <point x="119" y="381"/>
      <point x="79.0" y="301.0"/>
      <point x="79" y="237" type="curve" smooth="yes"/>
      <point x="79" y="207" type="line" smooth="yes"/>
      <point x="79.0" y="197.0"/>
      <point x="84" y="189"/>
      <point x="94" y="186" type="curve" smooth="yes"/>
      <point x="236" y="126"/>
      <point x="377" y="66"/>
    </contour>
  </outline>
</glyph>
<glyph name="equal" format="1">
  <advance width="600"/>
  <unicode hex="003D"/>
  <outline>
    <contour>
      <point x="60" y="500" type="line"/>
      <point x="60.0" y="454"/>
      <point x="60.0" y="415"/>
      <point x="60" y="369" type="curve" smooth="yes"/>
      <point x="60" y="366"/>
      <point x="61" y="363"/>
      <point x="63" y="361" type="curve" smooth="yes"/>
      <point x="65" y="359"/>
      <point x="68" y="358"/>
      <point x="71" y="358" type="curve"/>
      <point x="540" y="358" type="line"/>
      <point x="540.0" y="404"/>
      <point x="540.0" y="443"/>
      <point x="540" y="489" type="curve" smooth="yes"/>
      <point x="540.0" y="495.0"/>
      <point x="535.0" y="500.0"/>
      <point x="529" y="500" type="curve"/>
    </contour>
    <contour>
      <point x="540.0" y="98.0" type="line"/>
      <point x="540.0" y="144.0"/>
      <point x="540.0" y="183.0"/>
      <point x="540.0" y="229.0" type="curve" smooth="yes"/>
      <point x="540.0" y="232.0"/>
      <point x="539.0" y="235.0"/>
      <point x="537.0" y="237.0" type="curve" smooth="yes"/>
      <point x="535.0" y="239.0"/>
      <point x="532.0" y="240.0"/>
      <point x="529.0" y="240.0" type="curve"/>
      <point x="60.0" y="240.0" type="line"/>
      <point x="60.0" y="194.0"/>
      <point x="60.0" y="155.0"/>
      <point x="60.0" y="109.0" type="curve" smooth="yes"/>
      <point x="60.0" y="103.0"/>
      <point x="65.0" y="98.0"/>
      <point x="71.0" y="98.0" type="curve"/>
    </contour>
  </outline>
</glyph>
<glyph name="question" format="1">
  <advance width="600"/>
  <unicode hex="003F"/>
  <outline>
    <contour>
      <point x="294" y="720" type="curve" smooth="yes"/>
      <point x="190.94444444444446" y="720.0"/>
      <point x="103.51253099775204" y="696.512530997752"/>
      <point x="84" y="677" type="curve" smooth="yes"/>
      <point x="81" y="674"/>
      <point x="80" y="671"/>
      <point x="80" y="666" type="curve" smooth="yes"/>
      <point x="80" y="610"/>
      <point x="80" y="552"/>
      <point x="80" y="526" type="curve"/>
      <point x="100" y="526" type="line"/>
      <point x="156.56793581846546" y="557.7574376524718"/>
      <point x="219.29145728643215" y="570.0"/>
      <point x="293" y="570" type="curve" smooth="yes"/>
      <point x="378.6470588235294" y="570.0"/>
      <point x="384.0" y="550.0"/>
      <point x="384" y="527" type="curve" smooth="yes"/>
      <point x="384.0" y="502"/>
      <point x="384.0" y="483"/>
      <point x="384" y="455" type="curve"/>
      <point x="497" y="456"/>
      <point x="534.0" y="500"/>
      <point x="534" y="553" type="curve" smooth="yes"/>
      <point x="534.0" y="636.0"/>
      <point x="465.28205128205127" y="720.0"/>
    </contour>
    <contour>
      <point x="384" y="616" type="curve"/>
      <point x="384.0" y="594.0"/>
      <point x="384.0" y="559"/>
      <point x="384" y="527" type="curve" smooth="yes"/>
      <point x="384.0" y="492"/>
      <point x="378" y="484"/>
      <point x="323" y="446" type="curve" smooth="yes"/>
      <point x="300" y="430" type="line" smooth="yes"/>
      <point x="224" y="377"/>
      <point x="202" y="345"/>
      <point x="202" y="289" type="curve" smooth="yes"/>
      <point x="202" y="263" type="line" smooth="yes"/>
      <point x="202" y="254"/>
      <point x="205" y="252"/>
      <point x="213" y="252" type="curve" smooth="yes"/>
      <point x="354" y="252" type="line"/>
      <point x="354" y="258" type="line" smooth="yes"/>
      <point x="354" y="291.0"/>
      <point x="364" y="303"/>
      <point x="403" y="328" type="curve" smooth="yes"/>
      <point x="434" y="348" type="line" smooth="yes"/>
      <point x="515" y="401"/>
      <point x="534" y="446"/>
      <point x="534" y="522" type="curve" smooth="yes"/>
      <point x="534" y="553" type="line" smooth="yes"/>
      <point x="534.0" y="592.0"/>
      <point x="511.0" y="616.0"/>
    </contour>
    <contour>
      <point x="380" y="-10" type="curve"/>
      <point x="380" y="169" type="line" smooth="yes"/>
      <point x="380" y="175"/>
      <point x="375" y="180"/>
      <point x="369" y="180" type="curve" smooth="yes"/>
      <point x="306" y="180"/>
      <point x="243" y="180"/>
      <point x="180" y="180" type="curve"/>
      <point x="180" y="1" type="line" smooth="yes"/>
      <point x="180" y="-5"/>
      <point x="185" y="-10"/>
      <point x="191" y="-10" type="curve" smooth="yes"/>
      <point x="254" y="-10"/>
      <point x="317" y="-10"/>
    </contour>
  </outline>
</glyph>
<glyph name="E" format="1">
  <advance width="600"/>
  <unicode hex="0045"/>
  <outline>
    <contour>
      <point x="30" y="700" type="line"/>
      <point x="30.0" y="654"/>
      <point x="30.0" y="615"/>
      <point x="30" y="569" type="curve" smooth="yes"/>
      <point x="30.0" y="566.0"/>
      <point x="31" y="563"/>
      <point x="33" y="561" type="curve" smooth="yes"/>
      <point x="35" y="559"/>
      <point x="38" y="558"/>
      <point x="41" y="558" type="curve" smooth="yes"/>
      <point x="540" y="558" type="line"/>
      <point x="540.0" y="604"/>
      <point x="540.0" y="643"/>
      <point x="540" y="689" type="curve" smooth="yes"/>
      <point x="540.0" y="692.0"/>
      <point x="539" y="695"/>
      <point x="537" y="697" type="curve" smooth="yes"/>
      <point x="535" y="699"/>
      <point x="532.0" y="700.0"/>
      <point x="529" y="700" type="curve" smooth="yes"/>
    </contour>
    <contour>
      <point x="235.0" y="100.0" type="curve"/>
      <point x="235.0" y="639.0" type="line" smooth="yes"/>
      <point x="235.0" y="645.0"/>
      <point x="230.0" y="650.0"/>
      <point x="75.0" y="650.0" type="curve"/>
      <point x="75.0" y="111.0" type="line"/>
      <point x="75.0" y="105.0"/>
      <point x="80.0" y="100.0"/>
    </contour>
    <contour>
      <point x="75" y="142" type="line"/>
      <point x="75" y="11" type="line" smooth="yes"/>
      <point x="75" y="5"/>
      <point x="80.0" y="0.0"/>
      <point x="86" y="0" type="curve" smooth="yes"/>
      <point x="540" y="0" type="line"/>
      <point x="540.0" y="46"/>
      <point x="540.0" y="85"/>
      <point x="540" y="131" type="curve" smooth="yes"/>
      <point x="540.0" y="137.0"/>
      <point x="535" y="142"/>
      <point x="529" y="142" type="curve" smooth="yes"/>
    </contour>
    <contour>
      <point x="145" y="420" type="line"/>
      <point x="145.0" y="289.0"/>
      <point x="150" y="283"/>
      <point x="156" y="283" type="curve" smooth="yes"/>
      <point x="480" y="283" type="line"/>
      <point x="480.0" y="322"/>
      <point x="480.0" y="362"/>
      <point x="480" y="409" type="curve" smooth="yes"/>
      <point x="480.0" y="412.0"/>
      <point x="479" y="415"/>
      <point x="477" y="417" type="curve" smooth="yes"/>
      <point x="475" y="419"/>
      <point x="472.0" y="420.0"/>
      <point x="469" y="420" type="curve" smooth="yes"/>
    </contour>
    <contour>
      <point x="300" y="711" type="move" name="top"/>
    </contour>
    <contour>
      <point x="540" y="-1" type="move" name="ogonek"/>
    </contour>
    <contour>
      <point x="320" y="-1" type="move" name="bottom"/>
    </contour>
  </outline>
</glyph>
<glyph name="H" format="1">
  <advance width="600.0"/>
  <unicode hex="0048"/>
  <outline>
    <contour>
      <point x="138.5621269669018" y="700.0" type="curve"/>
      <point x="131.70591427021162" y="664.0"/>
      <point x="124.84970157352143" y="629.0"/>
      <point x="117.99348887683125" y="593.0" type="curve" smooth="yes"/>
      <point x="3.723277265328278" y="11.0" type="line" smooth="yes"/>
      <point x="2.199674443841573" y="5.0"/>
      <point x="6.437873033098214" y="0.0"/>
      <point x="12.437873033098214" y="0.0" type="curve" smooth="yes"/>
      <point x="62.437873033098214" y="0.0"/>
      <point x="111.43787303309821" y="0.0"/>
      <point x="161.4378730330982" y="0.0" type="curve"/>
      <point x="296.2767227346717" y="689.0" type="line" smooth="yes"/>
      <point x="297.03852414541507" y="692.0"/>
      <point x="296.80032555615844" y="695.0"/>
      <point x="294.80032555615844" y="697.0" type="curve" smooth="yes"/>
      <point x="293.5621269669018" y="699.0"/>
      <point x="290.5621269669018" y="700.0"/>
      <point x="287.5621269669018" y="700.0" type="curve" smooth="yes"/>
      <point x="237.5621269669018" y="700.0"/>
      <point x="188.5621269669018" y="700.0"/>
    </contour>
    <contour>
      <point x="461.4378730330982" y="0.0" type="curve"/>
      <point x="467.53228431904506" y="32.0"/>
      <point x="475.15029842647857" y="70.0"/>
      <point x="482.7683125339121" y="110.0" type="curve" smooth="yes"/>
      <point x="596.2767227346717" y="689.0" type="line" smooth="yes"/>
      <point x="597.8003255561584" y="695.0"/>
      <point x="593.5621269669018" y="700.0"/>
      <point x="587.5621269669018" y="700.0" type="curve" smooth="yes"/>
      <point x="537.5621269669018" y="700.0"/>
      <point x="488.5621269669018" y="700.0"/>
      <point x="438.5621269669018" y="700.0" type="curve"/>
      <point x="303.7232772653283" y="11.0" type="line" smooth="yes"/>
      <point x="302.96147585458493" y="8.0"/>
      <point x="303.19967444384156" y="5.0"/>
      <point x="305.19967444384156" y="3.0" type="curve" smooth="yes"/>
      <point x="306.4378730330982" y="1.0"/>
      <point x="309.4378730330982" y="0.0"/>
      <point x="312.4378730330982" y="0.0" type="curve" smooth="yes"/>
      <point x="362.4378730330982" y="0.0"/>
      <point x="411.4378730330982" y="0.0"/>
    </contour>
    <contour>
      <point x="148.71242539338036" y="420.0" type="line"/>
      <point x="122.81117742810635" y="289.0" type="line" smooth="yes"/>
      <point x="122.81117742810635" y="286.0"/>
      <point x="123.049376017363" y="283.0"/>
      <point x="124.28757460661964" y="281.0" type="curve" smooth="yes"/>
      <point x="126.28757460661964" y="279.0"/>
      <point x="128.5257731958763" y="278.0"/>
      <point x="131.5257731958763" y="278.0" type="curve"/>
      <point x="445.5257731958763" y="278.0" type="line"/>
      <point x="473.7124253933804" y="421.0"/>
      <point x="468.7124253933804" y="420.0"/>
      <point x="462.7124253933804" y="420.0" type="curve" smooth="yes"/>
    </contour>
  </outline>
</glyph>
<glyph name="I" format="1">
  <advance width="600"/>
  <unicode hex="0049"/>
  <outline>
    <contour>
      <point x="380.0" y="50.0" type="curve"/>
      <point x="380.0" y="639.0" type="line" smooth="yes"/>
      <point x="380.0" y="645.0"/>
      <point x="375.0" y="650.0"/>
      <point x="220.0" y="650.0" type="curve"/>
      <point x="220.0" y="61.0" type="line" smooth="yes"/>
      <point x="220.0" y="55.0"/>
      <point x="225.0" y="50.0"/>
    </contour>
    <contour>
      <point x="70" y="700" type="line"/>
      <point x="70.0" y="654"/>
      <point x="70.0" y="615"/>
      <point x="70" y="569" type="curve"/>
      <point x="70" y="566"/>
      <point x="71" y="563"/>
      <point x="73" y="561" type="curve" smooth="yes"/>
      <point x="75" y="559"/>
      <point x="78" y="558"/>
      <point x="81" y="558" type="curve" smooth="yes"/>
      <point x="530" y="558" type="line"/>
      <point x="530.0" y="604"/>
      <point x="530.0" y="643"/>
      <point x="530" y="689" type="curve" smooth="yes"/>
      <point x="530.0" y="695.0"/>
      <point x="525.0" y="700.0"/>
      <point x="519" y="700" type="curve" smooth="yes"/>
    </contour>
    <contour>
      <point x="70" y="142" type="line"/>
      <point x="70.0" y="96"/>
      <point x="70.0" y="57"/>
      <point x="70" y="11" type="curve"/>
      <point x="70" y="8"/>
      <point x="71" y="5"/>
      <point x="73" y="3" type="curve" smooth="yes"/>
      <point x="75" y="1"/>
      <point x="78.0" y="0.0"/>
      <point x="81" y="0" type="curve" smooth="yes"/>
      <point x="530" y="0" type="line"/>
      <point x="530.0" y="46.0"/>
      <point x="530.0" y="85"/>
      <point x="530" y="131" type="curve" smooth="yes"/>
      <point x="530.0" y="137.0"/>
      <point x="525" y="142"/>
      <point x="519" y="142" type="curve" smooth="yes"/>
    </contour>
    <contour>
      <point x="300" y="711" type="move" name="top"/>
    </contour>
    <contour>
      <point x="530" y="-1" type="move" name="ogonek"/>
    </contour>
    <contour>
      <point x="300" y="-1" type="move" name="bottom"/>
    </contour>
  </outline>
</glyph>
<glyph name="J" format="1">
  <advance width="600"/>
  <unicode hex="004A"/>
  <outline>
    <contour>
      <point x="121" y="700" type="line"/>
      <point x="121.0" y="654"/>
      <point x="121.0" y="615"/>
      <point x="121" y="569" type="curve" smooth="yes"/>
      <point x="121" y="566"/>
      <point x="122" y="563"/>
      <point x="124" y="561" type="curve" smooth="yes"/>
      <point x="126" y="559"/>
      <point x="129" y="558"/>
      <point x="132" y="558" type="curve" smooth="yes"/>
      <point x="470" y="558" type="line"/>
      <point x="470.0" y="617"/>
      <point x="448.0" y="700.0"/>
      <point x="395" y="700" type="curve"/>
    </contour>
    <contour>
      <point x="510" y="245" type="curve" smooth="yes"/>
      <point x="510" y="689" type="line" smooth="yes"/>
      <point x="510.0" y="695.0"/>
      <point x="505.0" y="700.0"/>
      <point x="499" y="700" type="curve" smooth="yes"/>
      <point x="350" y="700" type="line"/>
      <point x="350" y="236" type="line" smooth="yes"/>
      <point x="350" y="172"/>
      <point x="350.0" y="148"/>
      <point x="350" y="112" type="curve"/>
      <point x="474.0" y="112.0"/>
      <point x="510" y="148.0"/>
    </contour>
    <contour>
      <point x="246" y="125" type="curve" smooth="yes"/>
      <point x="195.0" y="125.0"/>
      <point x="149.0" y="134.0"/>
      <point x="100" y="155" type="curve"/>
      <point x="80" y="155" type="line"/>
      <point x="80" y="109"/>
      <point x="80" y="67"/>
      <point x="80" y="21" type="curve"/>
      <point x="80" y="18"/>
      <point x="81" y="15"/>
      <point x="83" y="13" type="curve" smooth="yes"/>
      <point x="98" y="-2"/>
      <point x="170" y="-20"/>
      <point x="227" y="-20" type="curve" smooth="yes"/>
      <point x="256" y="-20" type="line" smooth="yes"/>
      <point x="428.0" y="-20.0"/>
      <point x="510.0" y="93"/>
      <point x="510" y="245" type="curve"/>
      <point x="510.0" y="265.0"/>
      <point x="503.0" y="279.0"/>
      <point x="350" y="236" type="curve"/>
      <point x="350.0" y="152.0"/>
      <point x="318.0" y="125.0"/>
    </contour>
    <contour>
      <point x="295" y="711" type="move" name="top"/>
    </contour>
  </outline>
</glyph>
<glyph name="O" format="1">
  <advance width="600"/>
  <unicode hex="004F"/>
  <outline>
    <contour>
      <point x="295.0" y="720.0" type="curve" smooth="yes"/>
      <point x="156.0" y="720.0"/>
      <point x="55.0" y="625.0"/>
      <point x="55.0" y="458.0" type="curve" smooth="yes"/>
      <point x="55.0" y="236.0" type="line" smooth="yes"/>
      <point x="55.0" y="71"/>
      <point x="144.0" y="-20.0"/>
      <point x="304.0" y="-20.0" type="curve" smooth="yes"/>
      <point x="322.0" y="-20.0"/>
      <point x="339.0" y="0"/>
      <point x="300.0" y="122.0" type="curve"/>
      <point x="230.0" y="122.0"/>
      <point x="205.0" y="156.0"/>
      <point x="205.0" y="235.0" type="curve" smooth="yes"/>
      <point x="205.0" y="455.0" type="line" smooth="yes"/>
      <point x="205.0" y="544.0"/>
      <point x="244.0" y="578.0"/>
      <point x="299.0" y="578.0" type="curve" smooth="yes"/>
      <point x="359.0" y="578.0"/>
      <point x="388.0" y="578.0"/>
      <point x="408.0" y="578.0" type="curve"/>
      <point x="408.0" y="646.0"/>
      <point x="399.0" y="720.0"/>
    </contour>
    <contour>
      <point x="304.0" y="-20.0" type="curve" smooth="yes"/>
      <point x="443.0" y="-20.0"/>
      <point x="544.0" y="75.0"/>
      <point x="544.0" y="242.0" type="curve" smooth="yes"/>
      <point x="544.0" y="465.0" type="line" smooth="yes"/>
      <point x="544.0" y="630.0"/>
      <point x="455.0" y="720.0"/>
      <point x="295.0" y="720.0" type="curve" smooth="yes"/>
      <point x="277.0" y="720.0"/>
      <point x="260.0" y="700.0"/>
      <point x="299.0" y="578.0" type="curve"/>
      <point x="369.0" y="578.0"/>
      <point x="394.0" y="544.0"/>
      <point x="394.0" y="465.0" type="curve" smooth="yes"/>
      <point x="394.0" y="245.0" type="line" smooth="yes"/>
      <point x="394.0" y="156.0"/>
      <point x="355.0" y="122.0"/>
      <point x="300.0" y="122.0" type="curve" smooth="yes"/>
      <point x="240.0" y="122.0"/>
      <point x="211.0" y="122.0"/>
      <point x="191.0" y="122.0" type="curve"/>
      <point x="191.0" y="54.0"/>
      <point x="200.0" y="-20.0"/>
    </contour>
    <contour>
      <point x="300" y="711" type="move" name="top"/>
    </contour>
    <contour>
      <point x="404" y="-1" type="move" name="ogonek"/>
    </contour>
    <contour>
      <point x="300" y="-1" type="move" name="bottom"/>
    </contour>
  </outline>
</glyph>
<glyph name="U" format="1">
  <advance width="600"/>
  <unicode hex="0055"/>
  <outline>
    <contour>
      <point x="60" y="700" type="curve"/>
      <point x="60" y="667"/>
      <point x="60" y="633"/>
      <point x="60" y="600" type="curve" smooth="yes"/>
      <point x="60" y="158" type="line"/>
      <point x="60.0" y="107.0"/>
      <point x="124.59627329192546" y="108.0"/>
      <point x="220" y="108" type="curve"/>
      <point x="220.0" y="137.93548387096774"/>
      <point x="220.0" y="154.7741935483871"/>
      <point x="220.0" y="195" type="curve" smooth="yes"/>
      <point x="220" y="689" type="line"/>
      <point x="220" y="695"/>
      <point x="215" y="700"/>
      <point x="209" y="700" type="curve"/>
      <point x="159" y="700"/>
      <point x="110" y="700"/>
    </contour>
    <contour>
      <point x="205.0" y="-10.0" type="curve" smooth="yes"/>
      <point x="258.0" y="-10.0"/>
      <point x="321.0" y="16.0"/>
      <point x="363.0" y="59.0" type="curve" smooth="yes"/>
      <point x="422.0" y="118.0"/>
      <point x="447.0" y="179.0"/>
      <point x="423.0" y="249.0" type="curve"/>
      <point x="358.0" y="176.0"/>
      <point x="315" y="150.0"/>
      <point x="258.0" y="150.0" type="curve" smooth="yes"/>
      <point x="233.17333333333335" y="150.0"/>
      <point x="220.0" y="165.0"/>
      <point x="220.0" y="195.0" type="curve"/>
      <point x="104.0" y="195.0"/>
      <point x="60.0" y="173.75925925925927"/>
      <point x="60.0" y="158.0" type="curve" smooth="yes"/>
      <point x="60.0" y="65.0"/>
      <point x="112.0" y="-10.0"/>
    </contour>
    <contour>
      <point x="540" y="0" type="curve"/>
      <point x="540.0" y="32"/>
      <point x="540.0" y="70.0"/>
      <point x="540" y="110" type="curve" smooth="yes"/>
      <point x="540" y="689" type="line" smooth="yes"/>
      <point x="540.0" y="695.0"/>
      <point x="535.0" y="700.0"/>
      <point x="529" y="700" type="curve" smooth="yes"/>
      <point x="479.0" y="700.0"/>
      <point x="430" y="700.0"/>
      <point x="380" y="700" type="curve"/>
      <point x="380" y="11" type="line" smooth="yes"/>
      <point x="380.0" y="8.0"/>
      <point x="381" y="5"/>
      <point x="383" y="3" type="curve" smooth="yes"/>
      <point x="385" y="1"/>
      <point x="388" y="0"/>
      <point x="391" y="0" type="curve" smooth="yes"/>
      <point x="441.0" y="0.0"/>
      <point x="490" y="0.0"/>
    </contour>
    <contour>
      <point x="300" y="711" type="move" name="top"/>
    </contour>
    <contour>
      <point x="540" y="-1" type="move" name="ogonek"/>
    </contour>
    <contour>
      <point x="300" y="711" type="move" name="ring"/>
    </contour>
    <contour>
      <point x="300" y="-1" type="move" name="bottom"/>
    </contour>
  </outline>
</glyph>
<glyph name="W" format="1">
  <advance width="600"/>
  <unicode hex="0057"/>
  <outline>
    <contour>
      <point x="26" y="700" type="curve"/>
      <point x="50" y="472"/>
      <point x="75" y="243"/>
      <point x="99" y="15" type="curve"/>
      <point x="100" y="5"/>
      <point x="110" y="0"/>
      <point x="120" y="0" type="curve"/>
      <point x="143" y="0" type="line" smooth="yes"/>
      <point x="168.0" y="0"/>
      <point x="191" y="21"/>
      <point x="202" y="35" type="curve"/>
      <point x="190" y="250"/>
      <point x="179" y="467"/>
      <point x="167" y="682" type="curve"/>
      <point x="166" y="692"/>
      <point x="165" y="695"/>
      <point x="163" y="697" type="curve" smooth="yes"/>
      <point x="161" y="699"/>
      <point x="158" y="700"/>
      <point x="154" y="700" type="curve"/>
      <point x="111" y="700.0"/>
      <point x="69" y="700.0"/>
    </contour>
    <contour>
      <point x="436" y="700" type="curve"/>
      <point x="426" y="501"/>
      <point x="416" y="300"/>
      <point x="406" y="101" type="curve"/>
      <point x="400" y="39"/>
      <point x="395.0" y="19.0"/>
      <point x="384" y="0" type="curve"/>
      <point x="498" y="0" type="line"/>
      <point x="523" y="229"/>
      <point x="548" y="458"/>
      <point x="573" y="687" type="curve"/>
      <point x="574" y="693"/>
      <point x="573" y="695"/>
      <point x="571" y="697" type="curve" smooth="yes"/>
      <point x="569" y="699"/>
      <point x="568" y="700"/>
      <point x="564" y="700.0" type="curve"/>
      <point x="521" y="700.0"/>
      <point x="479" y="700.0"/>
    </contour>
    <contour>
      <point x="316" y="571" type="curve"/>
      <point x="254" y="571" type="line"/>
      <point x="232" y="414"/>
      <point x="211" y="258"/>
      <point x="189" y="101" type="curve"/>
      <point x="173" y="33"/>
      <point x="152" y="14"/>
      <point x="120" y="0" type="curve"/>
      <point x="253" y="0" type="line"/>
      <point x="278.0" y="184.0"/>
      <point x="304.0" y="368.0"/>
      <point x="329" y="552" type="curve"/>
      <point x="331" y="563"/>
      <point x="327.0" y="571.0"/>
    </contour>
    <contour>
      <point x="339" y="571" type="curve"/>
      <point x="269" y="571" type="line"/>
      <point x="295.0616995279154" y="385.5609841282943"/>
      <point x="319.98806934778156" y="200.0848911792467"/>
      <point x="346" y="15" type="curve"/>
      <point x="348" y="5"/>
      <point x="357.0" y="0"/>
      <point x="367" y="0" type="curve"/>
      <point x="402" y="0" type="line"/>
      <point x="414.0" y="0.0"/>
      <point x="424" y="10"/>
      <point x="428" y="24" type="curve"/>
      <point x="402" y="202"/>
      <point x="377" y="382"/>
      <point x="351" y="560" type="curve"/>
      <point x="350" y="567"/>
      <point x="345" y="571"/>
    </contour>
    <contour>
      <point x="299" y="711" type="move" name="top"/>
    </contour>
  </outline>
</glyph>
<glyph name="backslash" format="1">
  <advance width="600"/>
  <unicode hex="005C"/>
  <outline>
    <contour>
      <point x="61.0" y="750.0" type="curve"/>
      <point x="172" y="461"/>
      <point x="282" y="170"/>
      <point x="393.0" y="-119.0" type="curve" smooth="yes"/>
      <point x="396.0" y="-127.0"/>
      <point x="402.0" y="-130.0"/>
      <point x="408.0" y="-130.0" type="curve" smooth="yes"/>
      <point x="458.0" y="-130.0"/>
      <point x="503.0" y="-130.0"/>
      <point x="553.0" y="-130.0" type="curve"/>
      <point x="539.0" y="-94.0"/>
      <point x="525.0" y="-57.0"/>
      <point x="511.0" y="-21.0" type="curve"/>
      <point x="414" y="233"/>
      <point x="316" y="489"/>
      <point x="219.0" y="743.0" type="curve"/>
      <point x="217.0" y="748.0"/>
      <point x="213.0" y="750.0"/>
      <point x="207.0" y="750.0" type="curve" smooth="yes"/>
      <point x="157.0" y="750.0"/>
      <point x="111.0" y="750.0"/>
    </contour>
  </outline>
</glyph>
<glyph name="grave" format="1">
  <advance width="600"/>
  <unicode hex="0060"/>
  <outline>
    <contour>
      <point x="428.0" y="402.0" type="curve"/>
      <point x="400.0" y="514.0"/>
      <point x="379.0" y="599.0"/>
      <point x="351.0" y="711.0" type="curve"/>
      <point x="268.0" y="711.0"/>
      <point x="226.0" y="711.0"/>
      <point x="155.0" y="711.0" type="curve" smooth="yes"/>
      <point x="147.0" y="711.0"/>
      <point x="142" y="704"/>
      <point x="146.0" y="696.0" type="curve" smooth="yes"/>
      <point x="188" y="611"/>
      <point x="235" y="517"/>
      <point x="286" y="412" type="curve" smooth="yes"/>
      <point x="289" y="406"/>
      <point x="294.0" y="402.0"/>
      <point x="305.0" y="402.0" type="curve" smooth="yes"/>
      <point x="365.0" y="402.0"/>
      <point x="390.0" y="402.0"/>
    </contour>
  </outline>
</glyph>
<glyph name="b" format="1">
  <advance width="600.0"/>
  <unicode hex="0062"/>
  <outline>
    <contour>
      <point x="16.673901247965276" y="0.0" type="line"/>
      <point x="41.673901247965276" y="0.0"/>
      <point x="66.67390124796528" y="0.0"/>
      <point x="91.67390124796528" y="0.0" type="curve" smooth="yes"/>
      <point x="106.67390124796528" y="0.0"/>
      <point x="194.52136383300586" y="90.0"/>
      <point x="199.852438436182" y="111.0" type="curve" smooth="yes"/>
      <point x="359.2769551406874" y="739.0" type="line"/>
      <point x="360.80011931302346" y="745.0"/>
      <point x="357.0694227899702" y="750.0"/>
      <point x="351.0694227899702" y="750.0" type="curve" smooth="yes"/>
      <point x="303.0694227899702" y="750.0"/>
      <point x="255.06942278997016" y="750.0"/>
      <point x="207.06942278997013" y="750.0" type="curve"/>
      <point x="194.6302487158925" y="701.0"/>
      <point x="182.19107464181485" y="652.0"/>
      <point x="169.75190056773718" y="603.0" type="curve" smooth="yes"/>
    </contour>
    <contour>
      <point x="471.51275094953877" y="552.0" type="curve" smooth="yes"/>
      <point x="412.2273467173087" y="552.0"/>
      <point x="354.9891481280521" y="530.7618014107434"/>
      <point x="294.0857297883885" y="479.0" type="curve" smooth="yes"/>
      <point x="223.37330439500815" y="418.19099294628325"/>
      <point x="203.46988605534455" y="363.0965816603364"/>
      <point x="218.89907759088442" y="328.049376017363" type="curve"/>
      <point x="296.1425686914599" y="383.9527943570266"/>
      <point x="345.42051003798156" y="407.3326098752035"/>
      <point x="404.80032555615844" y="407.3326098752035" type="curve" smooth="yes"/>
      <point x="447.94194248507864" y="407.3326098752035"/>
      <point x="482.9397721106891" y="372.049376017363"/>
      <point x="482.9397721106891" y="313.5751492132393" type="curve"/>
      <point x="523.4205100379816" y="313.5751492132393"/>
      <point x="575.4720564297342" y="334.0018826353607"/>
      <point x="581.5664677156809" y="356.3819858925665" type="curve" smooth="yes"/>
      <point x="609.7531199131851" y="468.6201844818231"/>
      <point x="562.2273467173087" y="552.0"/>
    </contour>
    <contour>
      <point x="307.2919153553988" y="-10.0" type="curve" smooth="yes"/>
      <point x="431.05371676614214" y="-10.0"/>
      <point x="505.38632664134565" y="56.431361909929464"/>
      <point x="542.71459576777" y="206.43136190992948" type="curve" smooth="yes"/>
      <point x="581.5664677156809" y="356.3819858925665" type="line" smooth="yes"/>
      <point x="599.8497015735214" y="427.19099294628325"/>
      <point x="553.5621269669018" y="486.3326098752035"/>
      <point x="475.8475311991318" y="486.3326098752035" type="curve"/>
      <point x="442.8475311991318" y="486.3326098752035"/>
      <point x="420.03852414541507" y="472.33260987520345"/>
      <point x="413.94411285946825" y="447.33260987520345" type="curve"/>
      <point x="431.32609875203474" y="417.33260987520345"/>
      <point x="438.7552902875746" y="400.33260987520345"/>
      <point x="425.0428648941943" y="346.3326098752035" type="curve" smooth="yes"/>
      <point x="387.71459576776994" y="203.66739012479653" type="line" smooth="yes"/>
      <point x="375.5257731958763" y="155.66739012479653"/>
      <point x="346.4313619099295" y="129.66739012479653"/>
      <point x="305.4313619099295" y="129.66739012479653" type="curve" smooth="yes"/>
      <point x="265.4313619099295" y="129.66739012479653"/>
      <point x="217.00217037438958" y="148.9527943570266"/>
      <point x="183.42919153553987" y="191.9527943570266" type="curve"/>
      <point x="177.38198589256646" y="181.9527943570266"/>
      <point x="156.24036896364623" y="145.9527943570266"/>
      <point x="152.43136190992948" y="130.9527943570266" type="curve" smooth="yes"/>
      <point x="137.1953336950624" y="66.14161692892023"/>
      <point x="211.48290830168204" y="-10.0"/>
    </contour>
  </outline>
</glyph>
<glyph name="j" format="1">
  <advance width="600.0"/>
  <unicode hex="006A"/>
  <outline>
    <contour>
      <point x="153.7586767582088" y="540.0" type="curve"/>
      <point x="142.70507823530198" y="495.87251949816306"/>
      <point x="133.33354905283747" y="458.4600903770404"/>
      <point x="122.27995052993064" y="414.3326098752035" type="curve" smooth="yes"/>
      <point x="120.75678635759462" y="408.3326098752035"/>
      <point x="124.4874828806479" y="403.3326098752035"/>
      <point x="130.48748288064792" y="403.3326098752035" type="curve" smooth="yes"/>
      <point x="239.48748288064792" y="403.3326098752035"/>
      <point x="349.4874828806479" y="403.3326098752035"/>
      <point x="458.4874828806479" y="403.3326098752035" type="curve"/>
      <point x="472.72692259033875" y="460.1169480256471"/>
      <point x="470.75867675820876" y="540.0"/>
      <point x="417.75867675820876" y="540.0" type="curve" smooth="yes"/>
      <point x="329.75867675820876" y="540.0"/>
      <point x="241.75867675820876" y="540.0"/>
    </contour>
    <contour>
      <point x="394.15073707562925" y="-6.0" type="curve" smooth="yes"/>
      <point x="529.966209108926" y="529.0" type="line" smooth="yes"/>
      <point x="530.727791195094" y="532.0"/>
      <point x="530.489373281262" y="535.0"/>
      <point x="528.9970946720407" y="537.0" type="curve" smooth="yes"/>
      <point x="527.5048160628194" y="539.0"/>
      <point x="524.7586767582088" y="540.0"/>
      <point x="521.7586767582088" y="540.0" type="curve" smooth="yes"/>
      <point x="382.75867675820876" y="540.0" type="line"/>
      <point x="248.72022959263734" y="13.66739012479653" type="line" smooth="yes"/>
      <point x="231.96147585458493" y="-56.62018448182312"/>
      <point x="200.20184481823114" y="-98.19099294628325"/>
      <point x="149.53662506782422" y="-139.19099294628325" type="curve"/>
      <point x="221.53879544221377" y="-199.42919153553987"/>
      <point x="365.96365823848913" y="-117.74022809415254"/>
    </contour>
    <contour>
      <point x="105.10743353228433" y="-105.33260987520346" type="curve" smooth="yes"/>
      <point x="59.24905046120455" y="-105.33260987520346"/>
      <point x="12.53445469343464" y="-97.33260987520346"/>
      <point x="-33.1329354313619" y="-75.33260987520346" type="curve"/>
      <point x="-53.1329354313619" y="-75.33260987520346" type="line"/>
      <point x="-63.03635377102549" y="-116.76180141074335"/>
      <point x="-73.70157352143246" y="-159.19099294628325"/>
      <point x="-84.36679327183938" y="-201.38198589256646" type="curve" smooth="yes"/>
      <point x="-85.12859468258276" y="-204.38198589256646"/>
      <point x="-84.8903960933261" y="-207.38198589256646"/>
      <point x="-82.8903960933261" y="-209.38198589256646" type="curve" smooth="yes"/>
      <point x="-70.17580032555617" y="-226.66739012479653"/>
      <point x="-4.032013022246332" y="-250.0"/>
      <point x="78.44438415626696" y="-250.0" type="curve" smooth="yes"/>
      <point x="259.63320672816064" y="-250.0"/>
      <point x="347.680412371134" y="-182.75963103635377"/>
      <point x="394.15029842647857" y="-6.0" type="curve" smooth="yes"/>
      <point x="403.2919153553988" y="26.457069114692555"/>
      <point x="360.19750406945195" y="34.99782962561042"/>
      <point x="296.71459576776994" y="34.997829625610414" type="curve"/>
      <point x="241.10309278350513" y="-68.33260987520347"/>
      <point x="198.32538333232856" y="-105.33260987520346"/>
    </contour>
    <contour>
      <point x="565.6833532510361" y="650.0" type="curve"/>
      <point x="600.9699899101545" y="789.0" type="line" smooth="yes"/>
      <point x="602.4931540824905" y="795.0"/>
      <point x="598.7624575594372" y="800.0"/>
      <point x="592.7624575594372" y="800.0" type="curve" smooth="yes"/>
      <point x="536.7624575594372" y="800.0"/>
      <point x="479.76245755943717" y="800.0"/>
      <point x="423.7624575594371" y="800.0" type="curve"/>
      <point x="388.47582090031887" y="661.0" type="line" smooth="yes"/>
      <point x="386.95265672798286" y="655.0"/>
      <point x="390.6833532510362" y="650.0"/>
      <point x="396.6833532510362" y="650.0" type="curve" smooth="yes"/>
      <point x="452.6833532510361" y="650.0"/>
      <point x="509.6833532510361" y="650.0"/>
    </contour>
  </outline>
</glyph>
<glyph name="k" format="1">
  <advance width="600.0"/>
  <unicode hex="006B"/>
  <outline>
    <contour>
      <point x="166.6739012479653" y="0.0" type="curve"/>
      <point x="354.2769551406874" y="739.0" type="line" smooth="yes"/>
      <point x="355.03853722685545" y="742.0"/>
      <point x="354.80011931302346" y="745.0"/>
      <point x="353.3078407038021" y="747.0" type="curve" smooth="yes"/>
      <point x="351.81556209458086" y="749.0"/>
      <point x="349.0694227899702" y="750.0"/>
      <point x="346.0694227899702" y="750.0" type="curve" smooth="yes"/>
      <point x="301.0694227899702" y="750.0"/>
      <point x="262.0694227899702" y="750.0"/>
      <point x="207.06942278997013" y="750.0" type="curve"/>
      <point x="199.96132331906864" y="722.0"/>
      <point x="191.33005967583108" y="688.0"/>
      <point x="182.19107464181488" y="652.0" type="curve" smooth="yes"/>
      <point x="19.466368897248017" y="11.0" type="line" smooth="yes"/>
      <point x="17.94320472491198" y="5.0"/>
      <point x="21.673901247965276" y="0.0"/>
      <point x="27.673901247965276" y="0.0" type="curve" smooth="yes"/>
      <point x="77.67390124796528" y="0.0"/>
      <point x="116.67390124796528" y="0.0"/>
    </contour>
    <contour>
      <point x="440.80032555615844" y="540.0" type="line"/>
      <point x="318.09007053716766" y="423.0"/>
      <point x="222.09007053716766" y="334.4248507867607"/>
      <point x="100.14161692892023" y="218.42485078676071" type="curve"/>
      <point x="80.33478024959305" y="142.42485078676071"/>
      <point x="144.90558871405318" y="97.42485078676071"/>
      <point x="180.28540423223006" y="129.42485078676071" type="curve" smooth="yes"/>
      <point x="335.3282691264243" y="268.4248507867607"/>
      <point x="460.12552271435703" y="376.0"/>
      <point x="617.919880764254" y="517.0" type="curve" smooth="yes"/>
      <point x="628.204627022758" y="526.0"/>
      <point x="629.966209108926" y="529.0"/>
      <point x="630.727791195094" y="532.0" type="curve" smooth="yes"/>
      <point x="631.7432339766515" y="536.0"/>
      <point x="628.7981551817688" y="540.0"/>
      <point x="623.7586767582088" y="540.0" type="curve"/>
    </contour>
    <contour>
      <point x="381.6717308735757" y="0.0" type="curve" smooth="yes"/>
      <point x="466.6717308735757" y="0.0"/>
      <point x="484.67390124796526" y="0.0"/>
      <point x="533.6739012479653" y="0.0" type="curve"/>
      <point x="478.5985777407926" y="110.0"/>
      <point x="422.9527943570266" y="228.18882257189364"/>
      <point x="367.901247965274" y="341.18882257189364" type="curve"/>
      <point x="260.4742268041237" y="251.23602821486708"/>
      <point x="260.2360282148671" y="238.18882257189364"/>
      <point x="268.66521975040695" y="219.18882257189364" type="curve" smooth="yes"/>
      <point x="289.2381985892566" y="173.18882257189364"/>
      <point x="354.0515463917526" y="32.0"/>
      <point x="363.9571351058057" y="10.0" type="curve" smooth="yes"/>
      <point x="367.433532284319" y="3.0"/>
      <point x="371.6717308735757" y="0.0"/>
    </contour>
  </outline>
</glyph>
<glyph name="l" format="1">
  <advance width="600.0"/>
  <unicode hex="006C"/>
  <outline>
    <contour>
      <point x="217.06942278997013" y="750.0" type="curve"/>
      <point x="205.89955219283922" y="705.5236028214867"/>
      <point x="196.760567158823" y="668.8090070537168"/>
      <point x="185.59069656169203" y="624.3326098752035" type="curve" smooth="yes"/>
      <point x="184.06753238935596" y="618.3326098752035"/>
      <point x="187.7982289124093" y="613.3326098752035"/>
      <point x="193.7982289124093" y="613.3326098752035" type="curve" smooth="yes"/>
      <point x="251.7982289124093" y="613.3326098752035"/>
      <point x="299.7982289124093" y="613.3326098752035"/>
      <point x="357.7982289124093" y="613.3326098752035" type="curve"/>
      <point x="386.51845476754835" y="727.8637325854203"/>
      <point x="388.06942278997013" y="750.0"/>
      <point x="377.06942278997013" y="750.0" type="curve" smooth="yes"/>
      <point x="320.06942278997013" y="750.0"/>
      <point x="274.06942278997013" y="750.0"/>
    </contour>
    <contour>
      <point x="523.3078407038022" y="747.0" type="curve" smooth="yes"/>
      <point x="521.8155620945809" y="749.0"/>
      <point x="519.0694227899702" y="750.0"/>
      <point x="516.0694227899702" y="750.0" type="curve" smooth="yes"/>
      <point x="377.06942278997013" y="750.0" type="line"/>
      <point x="211.0445280053419" y="96.0" type="line" smooth="yes"/>
      <point x="204.95187131599772" y="72.0"/>
      <point x="272.68256783905105" y="67.0"/>
      <point x="353.68256783905105" y="67.0" type="curve"/>
      <point x="524.2769551406874" y="739.0" type="line" smooth="yes"/>
      <point x="525.0385372268554" y="742.0"/>
      <point x="524.8001193130235" y="745.0"/>
    </contour>
    <contour>
      <point x="40.94509512552616" y="136.66739012479653" type="line"/>
      <point x="29.891496602619334" y="92.53990962295958"/>
      <point x="20.51996742015485" y="55.12748050183695"/>
      <point x="9.466368897248017" y="11.0" type="curve" smooth="yes"/>
      <point x="8.704786811079984" y="8.0"/>
      <point x="8.943204724911979" y="5.0"/>
      <point x="10.435483334133295" y="3.0" type="curve" smooth="yes"/>
      <point x="11.927761943354625" y="1.0"/>
      <point x="14.673901247965276" y="0.0"/>
      <point x="17.673901247965276" y="0.0" type="curve"/>
      <point x="486.67390124796526" y="0.0" type="line"/>
      <point x="497.72749977087204" y="44.12748050183695"/>
      <point x="507.09902895333653" y="81.53990962295958"/>
      <point x="518.1526274762434" y="125.66739012479653" type="curve" smooth="yes"/>
      <point x="519.6757916485794" y="131.66739012479653"/>
      <point x="515.9450951255262" y="136.66739012479653"/>
      <point x="509.9450951255262" y="136.66739012479653" type="curve"/>
    </contour>
  </outline>
</glyph>
<glyph name="m" format="1">
  <advance width="600.0"/>
  <unicode hex="006D"/>
  <outline>
    <contour>
      <point x="106.67390124796528" y="0.0" type="curve"/>
      <point x="218.65870862723818" y="442.0" type="line" smooth="yes"/>
      <point x="230.84753119913185" y="490.0"/>
      <point x="222.27455236028214" y="533.0"/>
      <point x="220.0363537710255" y="536.0" type="curve" smooth="yes"/>
      <point x="216.79815518176883" y="540.0"/>
      <point x="212.79815518176886" y="540.0"/>
      <point x="208.79815518176886" y="540.0" type="curve" smooth="yes"/>
      <point x="177.79815518176886" y="540.0"/>
      <point x="144.79815518176883" y="540.0"/>
      <point x="113.79815518176885" y="540.0" type="curve"/>
      <point x="105.41833966359196" y="507.0"/>
      <point x="97.03852414541507" y="473.0"/>
      <point x="88.6587086272382" y="440.0" type="curve" smooth="yes"/>
      <point x="-20.2788931090613" y="11.0" type="line" smooth="yes"/>
      <point x="-21.802495930548005" y="5.0"/>
      <point x="-18.326098752034724" y="0.0"/>
      <point x="-12.326098752034724" y="0.0" type="curve" smooth="yes"/>
      <point x="26.746016417189765" y="0.0"/>
      <point x="67.60178607874079" y="0.0"/>
    </contour>
    <contour>
      <point x="357.0835594139989" y="552.0" type="curve" smooth="yes"/>
      <point x="321.70760742372636" y="552.0"/>
      <point x="293.42366308006945" y="541.6133613387981"/>
      <point x="258.2273467173087" y="514.2854042322301" type="curve" smooth="yes"/>
      <point x="220.5457070626357" y="485.2161472965384"/>
      <point x="168.1351058057515" y="426.28881830430356"/>
      <point x="152.13727618014107" y="361.9034183396636" type="curve"/>
      <point x="193.62114929391313" y="395.00747593525875"/>
      <point x="234.2104994547203" y="401.9034183396636"/>
      <point x="263.2788931090613" y="401.9034183396636" type="curve" smooth="yes"/>
      <point x="281.6578753584993" y="401.9034183396636"/>
      <point x="291.802495930548" y="395.3798155181769"/>
      <point x="291.0406945198047" y="377.9978296256104" type="curve"/>
      <point x="415.214375729307" y="447.59029413074586"/>
      <point x="420.94411285946825" y="449.88790654623216"/>
      <point x="422.46771568095494" y="455.0" type="curve" smooth="yes"/>
      <point x="436.1801410743353" y="510.95279435702656"/>
      <point x="405.5599565925122" y="552.0"/>
    </contour>
    <contour>
      <point x="306.67390124796526" y="0.0" type="curve"/>
      <point x="422.46771568095494" y="455.0" type="line" smooth="yes"/>
      <point x="431.6093326098752" y="494.09778480266107"/>
      <point x="365.46771568095494" y="456.3798155181769"/>
      <point x="281.56429734129136" y="408.90341833966363" type="curve"/>
      <point x="287.0132282080844" y="399.2354994658847"/>
      <point x="287.99348887683124" y="392.8314003436426"/>
      <point x="280.3754747693977" y="363.52360282148675" type="curve" smooth="yes"/>
      <point x="189.7211068909387" y="11.0" type="line" smooth="yes"/>
      <point x="188.19750406945198" y="5.0"/>
      <point x="191.67390124796526" y="0.0"/>
      <point x="197.67390124796526" y="0.0" type="curve" smooth="yes"/>
      <point x="233.67390124796526" y="0.0"/>
      <point x="270.67390124796526" y="0.0"/>
    </contour>
    <contour>
      <point x="565.9419424850787" y="552.0" type="curve" smooth="yes"/>
      <point x="529.5338703618681" y="552.0"/>
      <point x="500.6596436902663" y="540.6123903809502"/>
      <point x="461.703743895822" y="510.28540423223006" type="curve" smooth="yes"/>
      <point x="421.0384221160791" y="479.2268676824532"/>
      <point x="369.08790016277806" y="416.1167741312677"/>
      <point x="354.61367335865435" y="357.9034183396636" type="curve"/>
      <point x="399.8127815783462" y="393.96090963043514"/>
      <point x="436.21259040895893" y="401.9034183396636"/>
      <point x="463.2788931090613" y="401.9034183396636" type="curve" smooth="yes"/>
      <point x="481.6578753584993" y="401.9034183396636"/>
      <point x="491.802495930548" y="395.3798155181769"/>
      <point x="491.0406945198047" y="377.75963103635377" type="curve"/>
      <point x="615.9862198087886" y="425.810774063298"/>
      <point x="626.3733043950082" y="436.14952702835217"/>
      <point x="627.8969072164948" y="443.0965816603364" type="curve" smooth="yes"/>
      <point x="643.8947368421052" y="502.85838307107974"/>
      <point x="615.3849608022902" y="552.0"/>
    </contour>
    <contour>
      <point x="516.6739012479653" y="0.0" type="curve"/>
      <point x="525.0537167661422" y="33.0"/>
      <point x="533.4335322843191" y="67.0"/>
      <point x="541.813347802496" y="100.0" type="curve" smooth="yes"/>
      <point x="627.8969072164948" y="443.0965816603364" type="line" smooth="yes"/>
      <point x="635.5149213239283" y="477.2897449810092"/>
      <point x="583.1899020120003" y="463.01590198560126"/>
      <point x="484.6115029842648" y="418.90341833966363" type="curve"/>
      <point x="488.53502807050427" y="405.37148709474013"/>
      <point x="489.517091698318" y="396.9248461885099"/>
      <point x="480.3754747693977" y="362.52360282148675" type="curve" smooth="yes"/>
      <point x="389.7211068909387" y="11.0" type="line" smooth="yes"/>
      <point x="388.19750406945195" y="5.0"/>
      <point x="391.67390124796526" y="0.0"/>
      <point x="397.67390124796526" y="0.0" type="curve" smooth="yes"/>
      <point x="437.67390124796526" y="0.0"/>
      <point x="476.67390124796526" y="0.0"/>
    </contour>
  </outline>
</glyph>
<glyph name="n" format="1">
  <advance width="600.0"/>
  <unicode hex="006E"/>
  <outline>
    <contour>
      <point x="176.67390124796526" y="0.0" type="curve"/>
      <point x="310.75094953879545" y="529.0" type="line" smooth="yes"/>
      <point x="311.5127509495388" y="532.0"/>
      <point x="311.2745523602822" y="535.0"/>
      <point x="310.03635377102546" y="537.0" type="curve" smooth="yes"/>
      <point x="308.79815518176883" y="539.0"/>
      <point x="305.79815518176883" y="540.0"/>
      <point x="302.79815518176883" y="540.0" type="curve" smooth="yes"/>
      <point x="257.79815518176883" y="540.0"/>
      <point x="208.79815518176883" y="540.0"/>
      <point x="153.79815518176883" y="540.0" type="curve"/>
      <point x="146.94194248507867" y="512.0"/>
      <point x="137.80032555615844" y="478.0"/>
      <point x="128.65870862723818" y="442.0" type="curve" smooth="yes"/>
      <point x="19.721106890938685" y="11.0" type="line" smooth="yes"/>
      <point x="18.19750406945198" y="5.0"/>
      <point x="21.67390124796526" y="0.0"/>
      <point x="27.67390124796526" y="0.0" type="curve" smooth="yes"/>
      <point x="77.67390124796528" y="0.0"/>
      <point x="126.67390124796528" y="0.0"/>
    </contour>
    <contour>
      <point x="474.9891481280521" y="552.0" type="curve" smooth="yes"/>
      <point x="412.80032555615844" y="552.0"/>
      <point x="354.2767227346717" y="524.4291915355399"/>
      <point x="287.18231144872493" y="449.4763971785133" type="curve" smooth="yes"/>
      <point x="253.3260987520347" y="414.19099294628325"/>
      <point x="237.6565382528486" y="386.61584373304396"/>
      <point x="228.13727618014107" y="293.7618014107434" type="curve"/>
      <point x="301.46988605534455" y="372.0472056429734"/>
      <point x="352.1351058057515" y="404.18882257189364"/>
      <point x="390.56429734129136" y="404.18882257189364" type="curve" smooth="yes"/>
      <point x="427.03852414541507" y="404.18882257189364"/>
      <point x="453.79815518176883" y="385.57080846446013"/>
      <point x="457.6071622354856" y="329.8133478024959" type="curve"/>
      <point x="532.1394465545307" y="340.47856755290286"/>
      <point x="566.5664677156809" y="360.1931633206728"/>
      <point x="576.4698860553445" y="395.66739012479655" type="curve" smooth="yes"/>
      <point x="597.0385241454151" y="476.3819858925665"/>
      <point x="559.5127509495388" y="552.0"/>
    </contour>
    <contour>
      <point x="476.67390124796526" y="0.0" type="curve"/>
      <point x="483.53011394465545" y="28.0"/>
      <point x="492.6717308735757" y="62.0"/>
      <point x="501.8133478024959" y="98.0" type="curve" smooth="yes"/>
      <point x="576.4698860553445" y="395.66739012479655" type="line"/>
      <point x="598.5621269669018" y="473.61584373304396"/>
      <point x="497.27672273467175" y="484.3304395008139"/>
      <point x="409.61367335865435" y="430.18882257189364" type="curve"/>
      <point x="416.46988605534455" y="412.66521975040695"/>
      <point x="417.2316874660879" y="393.14161692892026"/>
      <point x="409.61367335865435" y="364.0944112859468" type="curve" smooth="yes"/>
      <point x="319.7211068909387" y="11.0" type="line" smooth="yes"/>
      <point x="318.19750406945195" y="5.0"/>
      <point x="321.67390124796526" y="0.0"/>
      <point x="327.67390124796526" y="0.0" type="curve" smooth="yes"/>
      <point x="377.67390124796526" y="0.0"/>
      <point x="426.67390124796526" y="0.0"/>
    </contour>
  </outline>
</glyph>
<glyph name="p" format="1">
  <advance width="600.0"/>
  <unicode hex="0070"/>
  <outline>
    <contour>
      <point x="120.90176217009731" y="-200.0" type="curve"/>
      <point x="305.966209108926" y="529.0" type="line" smooth="yes"/>
      <point x="306.727791195094" y="532.0"/>
      <point x="306.4893732812621" y="535.0"/>
      <point x="304.9970946720407" y="537.0" type="curve" smooth="yes"/>
      <point x="303.50481606281943" y="539.0"/>
      <point x="300.75867675820876" y="540.0"/>
      <point x="297.75867675820876" y="540.0" type="curve"/>
      <point x="249.75867675820876" y="540.0"/>
      <point x="201.75867675820876" y="540.0"/>
      <point x="153.7586767582088" y="540.0" type="curve"/>
      <point x="146.39671659191794" y="511.0"/>
      <point x="138.0193136440697" y="478.0"/>
      <point x="128.11874652388548" y="439.0" type="curve" smooth="yes"/>
      <point x="-31.30577018061993" y="-189.0" type="line" smooth="yes"/>
      <point x="-32.82893435295597" y="-195.0"/>
      <point x="-29.0982378299027" y="-200.0"/>
      <point x="-23.0982378299027" y="-200.0" type="curve"/>
      <point x="24.901762170097314" y="-200.0"/>
      <point x="72.90176217009731" y="-200.0"/>
    </contour>
    <contour>
      <point x="471.5127509495388" y="552.0" type="curve" smooth="yes"/>
      <point x="412.2273467173087" y="552.0"/>
      <point x="357.27455236028214" y="524.71459576777"/>
      <point x="289.5149213239284" y="464.6201844818231" type="curve" smooth="yes"/>
      <point x="215.13727618014107" y="397.90775908844273"/>
      <point x="217.2788931090613" y="346.1459576776994"/>
      <point x="233.99348887683124" y="307.00434074877916" type="curve"/>
      <point x="291.33013998587876" y="370.4488152811271"/>
      <point x="351.3733043950081" y="408.0472056429734"/>
      <point x="403.6093326098752" y="408.0472056429734" type="curve" smooth="yes"/>
      <point x="448.1801410743353" y="408.0472056429734"/>
      <point x="482.9397721106891" y="370.85838307107974"/>
      <point x="482.9397721106891" y="314.2897449810092" type="curve"/>
      <point x="523.4205100379816" y="314.2897449810092"/>
      <point x="575.4720564297342" y="334.3375261020405"/>
      <point x="581.5664677156809" y="356.3819858925665" type="curve" smooth="yes"/>
      <point x="609.7531199131851" y="468.6201844818231"/>
      <point x="562.2273467173087" y="552.0"/>
    </contour>
    <contour>
      <point x="314.7211068909387" y="-10.0" type="curve" smooth="yes"/>
      <point x="431.05371676614214" y="-10.0"/>
      <point x="505.38632664134565" y="55.24036896364623"/>
      <point x="542.71459576777" y="203.0965816603364" type="curve" smooth="yes"/>
      <point x="581.5664677156809" y="356.3819858925665" type="line" smooth="yes"/>
      <point x="599.8497015735214" y="427.19099294628325"/>
      <point x="553.5621269669018" y="486.3326098752035"/>
      <point x="475.8475311991318" y="486.3326098752035" type="curve" smooth="yes"/>
      <point x="442.8475311991318" y="486.3326098752035"/>
      <point x="420.03852414541507" y="472.33260987520345"/>
      <point x="413.94411285946825" y="447.33260987520345" type="curve"/>
      <point x="431.2223571507406" y="417.4570997967564"/>
      <point x="438.7552902875746" y="400.66514453941323"/>
      <point x="425.0428648941942" y="347.04720564297344" type="curve" smooth="yes"/>
      <point x="387.71459576776994" y="203.19099294628325" type="line" smooth="yes"/>
      <point x="375.5257731958763" y="155.19099294628325"/>
      <point x="346.4313619099295" y="129.19099294628325"/>
      <point x="300.86055344546935" y="129.19099294628325" type="curve" smooth="yes"/>
      <point x="261.33695062398266" y="129.19099294628325"/>
      <point x="217.89696079546462" y="147.82859532978296"/>
      <point x="185.09658166033643" y="190.0472056429734" type="curve"/>
      <point x="176.66739012479653" y="179.57080846446013"/>
      <point x="156.6223548562127" y="143.57080846446013"/>
      <point x="154.33695062398263" y="128.33260987520347" type="curve" smooth="yes"/>
      <point x="147.48073792729247" y="80.75963103635377"/>
      <point x="219.2447097124254" y="-10.0"/>
    </contour>
  </outline>
</glyph>
<glyph name="q" format="1">
  <advance width="602.28540423223"/>
  <unicode hex="0071"/>
  <outline>
    <contour>
      <point x="307.51275094953877" y="552.0" type="curve" smooth="yes"/>
      <point x="201.75094953879545" y="552.0"/>
      <point x="128.1329354313619" y="487.4742268041237"/>
      <point x="93.85187194791101" y="351.7124253933804" type="curve" smooth="yes"/>
      <point x="51.95279435702659" y="185.37981551817688" type="line" smooth="yes"/>
      <point x="33.66956049918611" y="114.80900705371677"/>
      <point x="79.95713510580575" y="55.667390124796526"/>
      <point x="157.6717308735757" y="55.667390124796526" type="curve" smooth="yes"/>
      <point x="190.6717308735757" y="55.667390124796526"/>
      <point x="213.48073792729247" y="69.66739012479653"/>
      <point x="219.57514921323929" y="94.66739012479653" type="curve"/>
      <point x="202.19316332067282" y="124.66739012479653"/>
      <point x="194.76397178513292" y="141.66739012479653"/>
      <point x="208.4763971785133" y="195.66739012479653" type="curve" smooth="yes"/>
      <point x="245.8046663049376" y="335.950623982637" type="line" smooth="yes"/>
      <point x="257.99348887683124" y="383.950623982637"/>
      <point x="287.08790016277806" y="409.950623982637"/>
      <point x="332.6587086272382" y="409.950623982637" type="curve" smooth="yes"/>
      <point x="371.7059142702116" y="409.950623982637"/>
      <point x="413.89690721649487" y="387.09224091155727"/>
      <point x="443.6587086272382" y="344.09224091155727" type="curve"/>
      <point x="452.56429734129136" y="353.8540423223006"/>
      <point x="475.2295170916983" y="386.2810634834509"/>
      <point x="477.5149213239284" y="403.4248507867607" type="curve" smooth="yes"/>
      <point x="484.37113402061857" y="453.3798155181769"/>
      <point x="414.51275094953877" y="552.0"/>
    </contour>
    <contour>
      <point x="160.81551817688552" y="-10.0" type="curve" smooth="yes"/>
      <point x="225.10092240911558" y="-10.0"/>
      <point x="282.05371676614214" y="8.71459576776994"/>
      <point x="346.7189365165491" y="71.5236028214867" type="curve" smooth="yes"/>
      <point x="416.7639717851329" y="141.75963103635377"/>
      <point x="417.90775908844273" y="196.3304395008139"/>
      <point x="401.4313619099295" y="235.47205642973412" type="curve"/>
      <point x="343.6201844818231" y="172.18882257189364"/>
      <point x="281.1931633206728" y="134.66739012479653"/>
      <point x="229.1953336950624" y="134.66739012479653" type="curve" smooth="yes"/>
      <point x="184.62452523060227" y="134.66739012479653"/>
      <point x="150.57948996201844" y="172.33260987520347"/>
      <point x="150.57948996201844" y="228.42485078676071" type="curve"/>
      <point x="105.5729788388497" y="233.4270211611503"/>
      <point x="58.04720564297341" y="208.2832338578405"/>
      <point x="51.95279435702659" y="185.37981551817688" type="curve" smooth="yes"/>
      <point x="23.766142159522516" y="73.37981551817688"/>
      <point x="71.29191535539881" y="-10.0"/>
    </contour>
    <contour>
      <point x="427.91861096039065" y="-200.0" type="curve"/>
      <point x="590.9441128594683" y="440.0" type="line" smooth="yes"/>
      <point x="599.3239283776452" y="473.0"/>
      <point x="607.7037438958221" y="507.0"/>
      <point x="616.083559413999" y="540.0" type="curve"/>
      <point x="568.083559413999" y="540.0"/>
      <point x="520.083559413999" y="540.0"/>
      <point x="472.0835594139989" y="540.0" type="curve" smooth="yes"/>
      <point x="469.0835594139989" y="540.0"/>
      <point x="466.0835594139989" y="539.0"/>
      <point x="463.3217580032556" y="537.0" type="curve" smooth="yes"/>
      <point x="460.5599565925122" y="535.0"/>
      <point x="458.79815518176883" y="532.0"/>
      <point x="458.0363537710255" y="529.0" type="curve" smooth="yes"/>
      <point x="275.9658166033641" y="-189.0" type="line" smooth="yes"/>
      <point x="274.4422137818774" y="-195.0"/>
      <point x="277.91861096039065" y="-200.0"/>
      <point x="283.91861096039065" y="-200.0" type="curve" smooth="yes"/>
      <point x="331.91861096039065" y="-200.0"/>
      <point x="379.91861096039065" y="-200.0"/>
    </contour>
  </outline>
</glyph>
<glyph name="u" format="1">
  <advance width="600.0"/>
  <unicode hex="0075"/>
  <outline>
    <contour>
      <point x="453.75867675820876" y="540.0" type="curve"/>
      <point x="319.466368897248" y="11.0" type="line" smooth="yes"/>
      <point x="318.70478681108" y="8.0"/>
      <point x="318.943204724912" y="5.0"/>
      <point x="320.4354833341333" y="3.0" type="curve" smooth="yes"/>
      <point x="321.92776194335465" y="1.0"/>
      <point x="324.6739012479653" y="0.0"/>
      <point x="327.6739012479653" y="0.0" type="curve" smooth="yes"/>
      <point x="372.67390124796526" y="0.0"/>
      <point x="421.67390124796526" y="0.0"/>
      <point x="476.67390124796526" y="0.0" type="curve"/>
      <point x="483.7820007188668" y="28.0"/>
      <point x="492.4132643621043" y="62.0"/>
      <point x="501.55224939612054" y="98.0" type="curve" smooth="yes"/>
      <point x="610.966209108926" y="529.0" type="line" smooth="yes"/>
      <point x="612.489373281262" y="535.0"/>
      <point x="608.7586767582088" y="540.0"/>
      <point x="602.7586767582088" y="540.0" type="curve" smooth="yes"/>
      <point x="552.7586767582088" y="540.0"/>
      <point x="503.75867675820876" y="540.0"/>
    </contour>
    <contour>
      <point x="148.62669560499188" y="-12.0" type="curve" smooth="yes"/>
      <point x="198.62669560499185" y="-12.0"/>
      <point x="264.7683125339121" y="10.238198589256648"/>
      <point x="344.81334780249597" y="88.23819858925665" type="curve" smooth="yes"/>
      <point x="379.4313619099295" y="121.23819858925664"/>
      <point x="421.7639717851329" y="171.66739012479653"/>
      <point x="397.0021703743896" y="250.0472056429734" type="curve"/>
      <point x="339.7612045526254" y="174.88558158167365"/>
      <point x="285.9195568330132" y="142.66739012479653"/>
      <point x="237.6223548562127" y="142.66739012479653" type="curve" smooth="yes"/>
      <point x="200.39993798930317" y="142.66739012479653"/>
      <point x="178.95930548019533" y="161.36480376198227"/>
      <point x="175.15029842647857" y="217.04286489419425" type="curve"/>
      <point x="99.09441128594682" y="206.3776451437873"/>
      <point x="64.66739012479653" y="182.97314161692893"/>
      <point x="54.00217037438959" y="144.33260987520347" type="curve" smooth="yes"/>
      <point x="31.909929462832352" y="58.25072975404713"/>
      <point x="65.62669560499187" y="-12.0"/>
    </contour>
    <contour>
      <point x="153.79815518176883" y="540.0" type="curve"/>
      <point x="146.94194248507867" y="512.0"/>
      <point x="137.80032555615844" y="478.0"/>
      <point x="128.65870862723818" y="442.0" type="curve" smooth="yes"/>
      <point x="54.00217037438959" y="144.33260987520347" type="line"/>
      <point x="36.480737927292466" y="80.12635648399349"/>
      <point x="140.8356984241395" y="67.96716432154557"/>
      <point x="225.42919153553987" y="121.23819858925665" type="curve"/>
      <point x="215.5257731958763" y="135.686572404328"/>
      <point x="214.00217037438958" y="148.26989243879865"/>
      <point x="221.62018448182312" y="177.42919153553987" type="curve" smooth="yes"/>
      <point x="310.75094953879545" y="529.0" type="line" smooth="yes"/>
      <point x="312.27455236028214" y="535.0"/>
      <point x="308.79815518176883" y="540.0"/>
      <point x="302.79815518176883" y="540.0" type="curve" smooth="yes"/>
      <point x="252.79815518176883" y="540.0"/>
      <point x="203.79815518176883" y="540.0"/>
    </contour>
  </outline>
</glyph>
<glyph name="x" format="1">
  <advance width="600.0"/>
  <unicode hex="0078"/>
  <outline>
    <contour>
      <point x="354.2447097124254" y="0.0" type="curve" smooth="yes"/>
      <point x="407.2447097124254" y="0.0"/>
      <point x="448.7704829083017" y="0.0"/>
      <point x="501.7704829083017" y="0.0" type="curve"/>
      <point x="464.433532284319" y="104.0"/>
      <point x="425.33478024959305" y="207.0"/>
      <point x="387.9978296256104" y="311.0" type="curve" smooth="yes"/>
      <point x="383.04503526858383" y="324.0"/>
      <point x="364.80683667932715" y="328.0"/>
      <point x="359.61584373304396" y="341.0" type="curve" smooth="yes"/>
      <point x="338.61367335865435" y="404.0"/>
      <point x="317.6115029842648" y="467.0"/>
      <point x="296.6093326098752" y="530.0" type="curve" smooth="yes"/>
      <point x="293.13293543136194" y="537.0"/>
      <point x="288.89473684210526" y="540.0"/>
      <point x="279.89473684210526" y="540.0" type="curve" smooth="yes"/>
      <point x="227.89473684210526" y="540.0"/>
      <point x="184.60716223548562" y="540.0"/>
      <point x="132.60716223548562" y="540.0" type="curve"/>
      <point x="168.46771568095497" y="440.0"/>
      <point x="202.56646771568094" y="340.0"/>
      <point x="238.4270211611503" y="240.0" type="curve" smooth="yes"/>
      <point x="245.61801410743354" y="225.0"/>
      <point x="263.8562126966902" y="220.0"/>
      <point x="270.04720564297344" y="205.0" type="curve" smooth="yes"/>
      <point x="293.049376017363" y="140.0"/>
      <point x="315.2897449810092" y="75.0"/>
      <point x="337.53011394465545" y="10.0" type="curve" smooth="yes"/>
      <point x="341.00651112316876" y="2.0"/>
      <point x="346.2447097124254" y="0.0"/>
    </contour>
    <contour>
      <point x="640.2251763429192" y="540.0" type="curve" smooth="yes"/>
      <point x="465.8475311991318" y="540.0" type="line"/>
      <point x="409.56429734129136" y="469.0"/>
      <point x="357.0428648941942" y="400.0"/>
      <point x="300.75963103635377" y="328.0" type="curve" smooth="yes"/>
      <point x="285.4270211611503" y="307.0"/>
      <point x="262.5686380900705" y="330.0"/>
      <point x="245.23602821486708" y="310.0" type="curve" smooth="yes"/>
      <point x="161.62018448182312" y="216.0"/>
      <point x="77.24253933803581" y="121.0"/>
      <point x="-6.373304395008148" y="27.0" type="curve" smooth="yes"/>
      <point x="-13.658708627238198" y="19.0"/>
      <point x="-16.420510037981543" y="15.0"/>
      <point x="-17.18231144872489" y="11.0" type="curve" smooth="yes"/>
      <point x="-19.467715680954953" y="4.0"/>
      <point x="-16.229517091698312" y="0.0"/>
      <point x="-8.229517091698312" y="0.0" type="curve" smooth="yes"/>
      <point x="172.148128052089" y="0.0" type="line"/>
      <point x="228.43136190992948" y="71.0"/>
      <point x="282.9527943570266" y="142.0"/>
      <point x="339.2360282148671" y="213.0" type="curve" smooth="yes"/>
      <point x="360.09224091155727" y="240.0"/>
      <point x="372.18882257189364" y="212.0"/>
      <point x="394.28323385784046" y="237.0" type="curve" smooth="yes"/>
      <point x="476.8990775908844" y="331.0"/>
      <point x="559.5149213239283" y="424.0"/>
      <point x="642.8925664677157" y="518.0" type="curve" smooth="yes"/>
      <point x="646.654367878459" y="523.0"/>
      <point x="649.1779706999457" y="527.0"/>
      <point x="649.9397721106891" y="530.0" type="curve" smooth="yes"/>
      <point x="651.4633749321758" y="537.0"/>
      <point x="647.2251763429192" y="540.0"/>
    </contour>
  </outline>
</glyph>
<glyph name="y" format="1">
  <advance width="600.0"/>
  <unicode hex="0079"/>
  <outline>
    <contour>
      <point x="632.7586767582088" y="540.0" type="curve" smooth="yes"/>
      <point x="581.7586767582088" y="540.0"/>
      <point x="529.4655453065653" y="539.0"/>
      <point x="487.4655453065654" y="539.0" type="curve"/>
      <point x="396.1866521975041" y="343.4763971785133"/>
      <point x="254.48290830168204" y="39.429191535539886"/>
      <point x="215.15246880086815" y="-43.332609875203474" type="curve" smooth="yes"/>
      <point x="191.9636462289745" y="-91.33260987520347"/>
      <point x="155.63103635377104" y="-113.33260987520347"/>
      <point x="110.63103635377104" y="-113.33260987520347" type="curve" smooth="yes"/>
      <point x="9.71811986744784" y="-113.33260987520347" type="line"/>
      <point x="-20.99880495008695" y="-239.0" type="line" smooth="yes"/>
      <point x="-22.77582981781231" y="-246.0"/>
      <point x="-19.79127259936969" y="-250.0"/>
      <point x="-12.791272599369691" y="-250.0" type="curve" smooth="yes"/>
      <point x="101.44438415626695" y="-250.0" type="line" smooth="yes"/>
      <point x="218.25339120998373" y="-250.0"/>
      <point x="282.30059685295714" y="-202.950623982637"/>
      <point x="346.62886597938143" y="-74.0" type="curve" smooth="yes"/>
      <point x="457.5257731958763" y="152.0"/>
      <point x="548.2249555941728" y="337.0"/>
      <point x="640.6969056319793" y="524.0" type="curve" smooth="yes"/>
      <point x="645.2355125858727" y="534.0"/>
      <point x="639.7586767582088" y="540.0"/>
    </contour>
    <contour>
      <point x="264.4655453065654" y="540.0" type="curve" smooth="yes"/>
      <point x="212.4655453065654" y="540.0"/>
      <point x="170.75867675820876" y="540.0"/>
      <point x="124.7586767582088" y="540.0" type="curve"/>
      <point x="130.07919436968498" y="364.0"/>
      <point x="141.25883654653074" y="22.0"/>
      <point x="141.46636889724803" y="11.0" type="curve" smooth="yes"/>
      <point x="141.68934402952263" y="4.0"/>
      <point x="144.6739012479653" y="0.0"/>
      <point x="151.6739012479653" y="0.0" type="curve" smooth="yes"/>
      <point x="289.67390124796526" y="0.0" type="line" smooth="yes"/>
      <point x="315.67390124796526" y="0.0"/>
      <point x="339.7082656511779" y="27.761005067062314"/>
      <point x="364.62946330390736" y="119.66739012479653" type="curve"/>
      <point x="284.0515463917526" y="119.66739012479653" type="line"/>
      <point x="280.0515463917526" y="119.66739012479653"/>
      <point x="276.8133478024959" y="121.66739012479653"/>
      <point x="277.33695062398266" y="126.66739012479653" type="curve" smooth="yes"/>
      <point x="276.38415626695604" y="140.66739012479653"/>
      <point x="280.13727618014104" y="392.71459576776994"/>
      <point x="280.6565382528486" y="526.0" type="curve" smooth="yes"/>
      <point x="280.703743895822" y="537.0"/>
      <point x="277.4655453065654" y="540.0"/>
    </contour>
  </outline>
</glyph>
<glyph name="asciitilde" format="1">
  <advance width="600"/>
  <unicode hex="007E"/>
  <outline>
    <contour>
      <point x="429" y="321" type="curve" smooth="yes"/>
      <point x="344.0" y="321.0"/>
      <point x="284" y="421.0"/>
      <point x="178" y="421" type="curve" smooth="yes"/>
      <point x="125.0" y="421.0"/>
      <point x="89" y="405"/>
      <point x="65" y="378" type="curve" smooth="yes"/>
      <point x="57" y="369"/>
      <point x="57.0" y="364.0"/>
      <point x="57.0" y="351" type="curve" smooth="yes"/>
      <point x="57.0" y="317.0"/>
      <point x="57.0" y="274.0"/>
      <point x="57" y="231" type="curve"/>
      <point x="77" y="231" type="line"/>
      <point x="103" y="264"/>
      <point x="134" y="278"/>
      <point x="171" y="278" type="curve" smooth="yes"/>
      <point x="256.0" y="278.0"/>
      <point x="316.0" y="178.0"/>
      <point x="422.0" y="178.0" type="curve" smooth="yes"/>
      <point x="475.0" y="178.0"/>
      <point x="511.0" y="194.0"/>
      <point x="535.0" y="221.0" type="curve" smooth="yes"/>
      <point x="543.0" y="230.0"/>
      <point x="543.0" y="235.0"/>
      <point x="543.0" y="248.0" type="curve" smooth="yes"/>
      <point x="543.0" y="282.0"/>
      <point x="543.0" y="325.0"/>
      <point x="543.0" y="368.0" type="curve"/>
      <point x="523.0" y="368.0" type="line"/>
      <point x="497.0" y="335.0"/>
      <point x="466.0" y="321.0"/>
    </contour>
  </outline>
</glyph>
<glyph name="cent" format="1">
  <advance width="600"/>
  <unicode hex="00A2"/>
  <outline>
    <contour>
      <point x="397" y="383" type="line"/>
      <point x="458" y="764" type="line" smooth="yes"/>
      <point x="459" y="773"/>
      <point x="454" y="777"/>
      <point x="448" y="777" type="curve" smooth="yes"/>
      <point x="395" y="777"/>
      <point x="372" y="777"/>
      <point x="318" y="777" type="curve"/>
      <point x="318.0" y="744"/>
      <point x="318.0" y="711"/>
      <point x="318" y="678" type="curve"/>
      <point x="318" y="415" type="line" smooth="yes"/>
      <point x="318.0" y="407.0"/>
      <point x="321.0" y="402.0"/>
      <point x="329" y="400" type="curve" smooth="yes"/>
    </contour>
    <contour>
      <point x="319.0" y="314.0" type="line"/>
      <point x="258.0" y="-67.0" type="line" smooth="yes"/>
      <point x="257.0" y="-76.0"/>
      <point x="262.0" y="-80.0"/>
      <point x="268.0" y="-80.0" type="curve" smooth="yes"/>
      <point x="321.0" y="-80.0"/>
      <point x="344.0" y="-80.0"/>
      <point x="398.0" y="-80.0" type="curve"/>
      <point x="398.0" y="-47.0"/>
      <point x="398.0" y="-14.0"/>
      <point x="398.0" y="19.0" type="curve"/>
      <point x="398.0" y="282.0" type="line" smooth="yes"/>
      <point x="398.0" y="290.0"/>
      <point x="395.0" y="295.0"/>
      <point x="387.0" y="297.0" type="curve" smooth="yes"/>
    </contour>
    <component base="c" yOffset="80"/>
  </outline>
</glyph>
<glyph name="sterling" format="1">
  <advance width="600"/>
  <unicode hex="00A3"/>
  <outline>
    <contour>
      <point x="387" y="570.0" type="curve" smooth="yes"/>
      <point x="433.4475524475524" y="570.0"/>
      <point x="465.2027177468801" y="561.6891835844956"/>
      <point x="510" y="545" type="curve"/>
      <point x="530" y="545" type="line"/>
      <point x="530.0" y="580.0"/>
      <point x="530.0" y="627.0"/>
      <point x="530" y="680" type="curve" smooth="yes"/>
      <point x="530" y="683"/>
      <point x="530" y="685"/>
      <point x="528" y="687" type="curve" smooth="yes"/>
      <point x="518.5934693790906" y="696.4065306209094"/>
      <point x="466.58895705521473" y="720.0"/>
      <point x="385" y="720.0" type="curve" smooth="yes"/>
      <point x="227.5531914893617" y="720.0"/>
      <point x="135" y="648.0"/>
      <point x="135" y="533" type="curve" smooth="yes"/>
      <point x="135" y="506" type="line" smooth="yes"/>
      <point x="135" y="494"/>
      <point x="142" y="489.0"/>
      <point x="285.0" y="500.0" type="curve"/>
      <point x="285.0" y="554.0"/>
      <point x="313.1379310344828" y="570.0"/>
    </contour>
    <contour>
      <point x="135" y="506" type="curve" smooth="yes"/>
      <point x="135.0" y="408.0"/>
      <point x="135.0" y="329.0"/>
      <point x="135" y="225" type="curve" smooth="yes"/>
      <point x="135.0" y="171.0"/>
      <point x="107.0" y="142.0"/>
      <point x="65" y="142.0" type="curve" smooth="yes"/>
      <point x="58.0" y="142.0"/>
      <point x="51.0" y="142.0"/>
      <point x="44" y="142" type="curve"/>
      <point x="40" y="142" type="line"/>
      <point x="40.0" y="98"/>
      <point x="40.0" y="63"/>
      <point x="40" y="11" type="curve" smooth="yes"/>
      <point x="40.0" y="3.0"/>
      <point x="44" y="0"/>
      <point x="51" y="0" type="curve" smooth="yes"/>
      <point x="56" y="0" type="line" smooth="yes"/>
      <point x="188.79908675799086" y="0"/>
      <point x="285.0" y="64.0"/>
      <point x="285.0" y="248" type="curve" smooth="yes"/>
      <point x="285.0" y="333.0"/>
      <point x="285.0" y="415.0"/>
      <point x="285" y="500" type="curve" smooth="yes"/>
      <point x="285.0" y="541.0"/>
      <point x="285.0" y="579.0"/>
      <point x="285" y="618" type="curve"/>
      <point x="201.0" y="618.0"/>
      <point x="135.0" y="577.0"/>
    </contour>
    <contour>
      <point x="56" y="0" type="curve"/>
      <point x="234.26470588235293" y="0.0"/>
      <point x="338.36755204594397" y="0"/>
      <point x="474" y="0" type="curve" smooth="yes"/>
      <point x="539" y="0" type="line" smooth="yes"/>
      <point x="547" y="0"/>
      <point x="550" y="3"/>
      <point x="550" y="11" type="curve"/>
      <point x="550.0" y="55"/>
      <point x="550.0" y="98"/>
      <point x="550" y="142" type="curve"/>
      <point x="530" y="142" type="line"/>
      <point x="504" y="142.0"/>
      <point x="484" y="142.0"/>
      <point x="451" y="142" type="curve" smooth="yes"/>
      <point x="355.0207691166532" y="142.0"/>
      <point x="280.0873786407767" y="142.0"/>
      <point x="127" y="142" type="curve"/>
      <point x="43.43530089163927" y="8.694408565234056"/>
      <point x="49.01639344262295" y="0.0"/>
    </contour>
    <contour>
      <point x="60" y="410" type="line"/>
      <point x="60.0" y="364"/>
      <point x="60.0" y="357"/>
      <point x="60" y="311" type="curve" smooth="yes"/>
      <point x="60" y="308"/>
      <point x="61" y="305"/>
      <point x="63" y="303" type="curve" smooth="yes"/>
      <point x="65" y="301"/>
      <point x="68.0" y="300.0"/>
      <point x="71" y="300" type="curve" smooth="yes"/>
      <point x="450" y="300" type="line"/>
      <point x="450.0" y="346"/>
      <point x="450.0" y="353"/>
      <point x="450" y="399" type="curve" smooth="yes"/>
      <point x="450.0" y="405.0"/>
      <point x="445.0" y="410.0"/>
      <point x="439" y="410" type="curve" smooth="yes"/>
    </contour>
  </outline>
</glyph>
<glyph name="yen" format="1">
  <advance width="600"/>
  <unicode hex="00A5"/>
  <outline>
    <contour>
      <point x="10" y="468" type="line"/>
      <point x="10.0" y="422.0"/>
      <point x="10.0" y="415.0"/>
      <point x="10" y="369" type="curve" smooth="yes"/>
      <point x="10" y="366"/>
      <point x="11" y="363"/>
      <point x="13" y="361" type="curve" smooth="yes"/>
      <point x="15" y="359"/>
      <point x="18" y="358"/>
      <point x="21" y="358" type="curve"/>
      <point x="210" y="358" type="line"/>
      <point x="210.0" y="404.0"/>
      <point x="210.0" y="411.0"/>
      <point x="210" y="457" type="curve" smooth="yes"/>
      <point x="210.0" y="463.0"/>
      <point x="205.0" y="468.0"/>
      <point x="199" y="468" type="curve"/>
    </contour>
    <contour>
      <point x="390" y="468" type="line"/>
      <point x="390.0" y="422.0"/>
      <point x="390.0" y="415.0"/>
      <point x="390" y="369" type="curve" smooth="yes"/>
      <point x="390.0" y="363.0"/>
      <point x="395.0" y="358.0"/>
      <point x="401" y="358" type="curve"/>
      <point x="590" y="358" type="line"/>
      <point x="590.0" y="404.0"/>
      <point x="590.0" y="411.0"/>
      <point x="590" y="457" type="curve" smooth="yes"/>
      <point x="590.0" y="463.0"/>
      <point x="585.0" y="468.0"/>
      <point x="579" y="468" type="curve"/>
    </contour>
    <contour>
      <point x="590.0" y="130.0" type="line"/>
      <point x="590.0" y="176.0"/>
      <point x="590.0" y="183.0"/>
      <point x="590.0" y="229.0" type="curve" smooth="yes"/>
      <point x="590.0" y="232.0"/>
      <point x="589.0" y="235.0"/>
      <point x="587.0" y="237.0" type="curve" smooth="yes"/>
      <point x="585.0" y="239.0"/>
      <point x="582.0" y="240.0"/>
      <point x="579.0" y="240.0" type="curve"/>
      <point x="10.0" y="240.0" type="line"/>
      <point x="10.0" y="194.0"/>
      <point x="10.0" y="187.0"/>
      <point x="10.0" y="141.0" type="curve" smooth="yes"/>
      <point x="10.0" y="135.0"/>
      <point x="15.0" y="130.0"/>
      <point x="21.0" y="130.0" type="curve"/>
    </contour>
    <component base="Y"/>
  </outline>
</glyph>
<glyph name="brokenbar" format="1">
  <advance width="600"/>
  <unicode hex="00A6"/>
  <outline>
    <contour>
      <point x="220" y="760" type="curve"/>
      <point x="220.0" y="727"/>
      <point x="220" y="694"/>
      <point x="220" y="661" type="curve" smooth="yes"/>
      <point x="220" y="380" type="line" smooth="yes"/>
      <point x="220.0" y="374.0"/>
      <point x="225.0" y="369.0"/>
      <point x="231" y="369" type="curve" smooth="yes"/>
      <point x="280.30935251798564" y="369.0"/>
      <point x="329.2986111111111" y="369.0"/>
      <point x="380" y="369" type="curve"/>
      <point x="380" y="749" type="line" smooth="yes"/>
      <point x="380" y="752"/>
      <point x="379" y="755"/>
      <point x="377" y="757" type="curve" smooth="yes"/>
      <point x="375" y="759"/>
      <point x="372" y="760"/>
      <point x="369" y="760" type="curve" smooth="yes"/>
      <point x="318.2986111111111" y="760.0"/>
      <point x="269.30935251798564" y="760.0"/>
    </contour>
    <contour>
      <point x="220" y="231" type="curve"/>
      <point x="220" y="-149" type="line"/>
      <point x="220.0" y="-155.0"/>
      <point x="225.0" y="-160.0"/>
      <point x="231" y="-160" type="curve" smooth="yes"/>
      <point x="280.0" y="-160.0"/>
      <point x="329" y="-160.0"/>
      <point x="380" y="-160" type="curve"/>
      <point x="380" y="220" type="line" smooth="yes"/>
      <point x="380.0" y="227.0"/>
      <point x="376.0" y="231.0"/>
      <point x="369" y="231" type="curve" smooth="yes"/>
      <point x="318" y="231.0"/>
      <point x="269" y="231.0"/>
    </contour>
  </outline>
</glyph>
<glyph name="section" format="1">
  <advance width="600"/>
  <unicode hex="00A7"/>
  <outline>
    <contour>
      <point x="319" y="720" type="curve" smooth="yes"/>
      <point x="171" y="720"/>
      <point x="67" y="632"/>
      <point x="67" y="523" type="curve" smooth="yes"/>
      <point x="67" y="479" type="line" smooth="yes"/>
      <point x="67.0" y="452.0"/>
      <point x="137.0" y="418.0"/>
      <point x="214" y="418" type="curve"/>
      <point x="214.0" y="447"/>
      <point x="214.0" y="488.0"/>
      <point x="214" y="516" type="curve" smooth="yes"/>
      <point x="214" y="564"/>
      <point x="250" y="582"/>
      <point x="322" y="582" type="curve" smooth="yes"/>
      <point x="364" y="582"/>
      <point x="431" y="569"/>
      <point x="473" y="551" type="curve"/>
      <point x="519" y="641"/>
      <point x="521" y="647"/>
      <point x="521" y="657" type="curve" smooth="yes"/>
      <point x="521" y="668"/>
      <point x="520" y="671"/>
      <point x="515" y="676" type="curve" smooth="yes"/>
      <point x="495" y="696"/>
      <point x="423" y="720"/>
    </contour>
    <contour>
      <point x="386" y="401" type="curve" smooth="yes"/>
      <point x="291" y="430" type="line" smooth="yes"/>
      <point x="225" y="450"/>
      <point x="214" y="464"/>
      <point x="214" y="500" type="curve" smooth="yes"/>
      <point x="214.0" y="522.0"/>
      <point x="214.0" y="545"/>
      <point x="214" y="567" type="curve"/>
      <point x="136" y="566"/>
      <point x="67" y="564"/>
      <point x="67" y="479" type="curve" smooth="yes"/>
      <point x="67" y="421"/>
      <point x="96" y="344"/>
      <point x="230" y="303" type="curve" smooth="yes"/>
      <point x="324" y="274" type="line" smooth="yes"/>
      <point x="393" y="253"/>
      <point x="399" y="238"/>
      <point x="399" y="211" type="curve" smooth="yes"/>
      <point x="399" y="183" type="line" smooth="yes"/>
      <point x="399.0" y="160.40540540540542"/>
      <point x="386.3811960093148" y="136.29091274395077"/>
      <point x="348" y="107" type="curve"/>
      <point x="396.0" y="107.0"/>
      <point x="428.0" y="107.0"/>
      <point x="454" y="107.0" type="curve" smooth="yes"/>
      <point x="498.0" y="107.0"/>
      <point x="546" y="161.0"/>
      <point x="546" y="214" type="curve" smooth="yes"/>
      <point x="546" y="232" type="line" smooth="yes"/>
      <point x="546" y="311"/>
      <point x="511" y="363"/>
    </contour>
    <contour>
      <point x="386" y="149" type="curve" smooth="yes"/>
      <point x="290" y="178" type="line" smooth="yes"/>
      <point x="224" y="198"/>
      <point x="214" y="212"/>
      <point x="214" y="248" type="curve" smooth="yes"/>
      <point x="214" y="273" type="line" smooth="yes"/>
      <point x="214" y="307.2878787878788"/>
      <point x="228.59676211855086" y="328.7983810592754"/>
      <point x="263" y="346" type="curve"/>
      <point x="201.0" y="346.0"/>
      <point x="177.0" y="346.0"/>
      <point x="162" y="346" type="curve" smooth="yes"/>
      <point x="112.0" y="346.0"/>
      <point x="67.0" y="294.0"/>
      <point x="67" y="233" type="curve" smooth="yes"/>
      <point x="67" y="217" type="line" smooth="yes"/>
      <point x="67" y="159"/>
      <point x="96" y="92"/>
      <point x="230" y="51" type="curve" smooth="yes"/>
      <point x="324" y="22" type="line" smooth="yes"/>
      <point x="393" y="1"/>
      <point x="399.0" y="-14.0"/>
      <point x="399.0" y="-41" type="curve" smooth="yes"/>
      <point x="399.0" y="-72.0"/>
      <point x="399.0" y="-103"/>
      <point x="399" y="-134" type="curve"/>
      <point x="465" y="-134"/>
      <point x="546" y="-90"/>
      <point x="546" y="-30" type="curve"/>
      <point x="546" y="49"/>
      <point x="511" y="111"/>
    </contour>
    <contour>
      <point x="279" y="-250" type="curve" smooth="yes"/>
      <point x="446.0" y="-250.0"/>
      <point x="546" y="-168"/>
      <point x="546" y="-53" type="curve" smooth="yes"/>
      <point x="546" y="-30" type="line" smooth="yes"/>
      <point x="546.0" y="-12.0"/>
      <point x="484" y="8"/>
      <point x="399" y="8" type="curve"/>
      <point x="399.0" y="-24"/>
      <point x="399.0" y="-24"/>
      <point x="399" y="-49" type="curve" smooth="yes"/>
      <point x="399" y="-77"/>
      <point x="369" y="-105"/>
      <point x="290" y="-105" type="curve" smooth="yes"/>
      <point x="200" y="-105"/>
      <point x="140" y="-86"/>
      <point x="80" y="-47" type="curve"/>
      <point x="60" y="-47" type="line"/>
      <point x="60" y="-76"/>
      <point x="60" y="-131"/>
      <point x="60" y="-188" type="curve" smooth="yes"/>
      <point x="60" y="-190"/>
      <point x="61" y="-194"/>
      <point x="63" y="-196" type="curve" smooth="yes"/>
      <point x="97" y="-230"/>
      <point x="182" y="-250"/>
    </contour>
    <contour>
      <point x="521" y="510" type="curve"/>
      <point x="521" y="657" type="line" smooth="yes"/>
      <point x="521" y="670"/>
      <point x="508" y="672"/>
      <point x="376" y="672" type="curve"/>
      <point x="376" y="658"/>
      <point x="376" y="638"/>
      <point x="376" y="617" type="curve" smooth="yes"/>
      <point x="376" y="521" type="line" smooth="yes"/>
      <point x="376.0" y="514.0"/>
      <point x="378" y="513"/>
      <point x="379" y="512" type="curve" smooth="yes"/>
      <point x="380" y="511"/>
      <point x="382" y="510"/>
      <point x="386" y="510" type="curve" smooth="yes"/>
      <point x="431" y="510"/>
      <point x="476" y="510"/>
    </contour>
  </outline>
</glyph>
<glyph name="ordfeminine" format="1">
  <advance width="600"/>
  <unicode hex="00AA"/>
  <outline>
    <contour>
      <point x="264" y="760.0" type="curve" smooth="yes"/>
      <point x="210" y="760.0"/>
      <point x="131" y="748"/>
      <point x="119" y="736" type="curve" smooth="yes"/>
      <point x="118" y="735"/>
      <point x="117" y="732"/>
      <point x="117" y="730" type="curve" smooth="yes"/>
      <point x="117" y="695.0"/>
      <point x="117" y="660"/>
      <point x="117" y="626" type="curve"/>
      <point x="134" y="626" type="line"/>
      <point x="181.0" y="637.0"/>
      <point x="221.0" y="642.0"/>
      <point x="274" y="642.0" type="curve" smooth="yes"/>
      <point x="329" y="642"/>
      <point x="351" y="628"/>
      <point x="351" y="582.0" type="curve"/>
      <point x="465" y="552"/>
      <point x="481" y="553"/>
      <point x="481" y="570.0" type="curve"/>
      <point x="481" y="706"/>
      <point x="419" y="760.0"/>
    </contour>
    <contour>
      <point x="351" y="658" type="curve"/>
      <point x="351" y="638"/>
      <point x="351" y="617"/>
      <point x="351" y="598.0" type="curve" smooth="yes"/>
      <point x="351" y="531"/>
      <point x="351" y="484"/>
      <point x="351" y="400" type="curve" smooth="yes"/>
      <point x="351" y="361.0"/>
      <point x="416" y="326"/>
      <point x="481" y="326" type="curve"/>
      <point x="481" y="350"/>
      <point x="481" y="370"/>
      <point x="481" y="399" type="curve" smooth="yes"/>
      <point x="481" y="462"/>
      <point x="481" y="489"/>
      <point x="481" y="570.0" type="curve" smooth="yes"/>
      <point x="481" y="626"/>
      <point x="458" y="658.0"/>
    </contour>
    <contour>
      <point x="528" y="409.0" type="line"/>
      <point x="512.0" y="409.0" type="line"/>
      <point x="508" y="409.0"/>
      <point x="507" y="409.0"/>
      <point x="502" y="409.0" type="curve" smooth="yes"/>
      <point x="490" y="409.0"/>
      <point x="482" y="417"/>
      <point x="481" y="436" type="curve"/>
      <point x="360" y="432"/>
      <point x="351" y="415"/>
      <point x="351" y="400" type="curve" smooth="yes"/>
      <point x="351" y="343"/>
      <point x="402" y="290"/>
      <point x="486" y="290" type="curve" smooth="yes"/>
      <point x="519" y="290" type="line" smooth="yes"/>
      <point x="525" y="290"/>
      <point x="528" y="293"/>
      <point x="528" y="299" type="curve"/>
    </contour>
    <contour>
      <point x="218" y="428" type="curve" smooth="yes"/>
      <point x="218" y="448" type="line" smooth="yes"/>
      <point x="218" y="474"/>
      <point x="218" y="493"/>
      <point x="218" y="514" type="curve"/>
      <point x="147" y="514"/>
      <point x="92" y="486"/>
      <point x="92" y="442" type="curve" smooth="yes"/>
      <point x="92" y="411" type="line" smooth="yes"/>
      <point x="92" y="341"/>
      <point x="142.0" y="290"/>
      <point x="222" y="290" type="curve" smooth="yes"/>
      <point x="279" y="290"/>
      <point x="335" y="317"/>
      <point x="379" y="378" type="curve" smooth="yes"/>
      <point x="385" y="385"/>
      <point x="388" y="407"/>
      <point x="379" y="452" type="curve"/>
      <point x="340" y="416"/>
      <point x="307" y="403.0"/>
      <point x="250" y="403.0" type="curve" smooth="yes"/>
      <point x="248" y="403.0" type="line" smooth="yes"/>
      <point x="225" y="403.0"/>
      <point x="218" y="416"/>
    </contour>
    <contour>
      <point x="372" y="538" type="curve" smooth="yes"/>
      <point x="358" y="553"/>
      <point x="297" y="564"/>
      <point x="220" y="564" type="curve" smooth="yes"/>
      <point x="150" y="564"/>
      <point x="92" y="509"/>
      <point x="92" y="442" type="curve" smooth="yes"/>
      <point x="92" y="436"/>
      <point x="102" y="425"/>
      <point x="218" y="448" type="curve"/>
      <point x="218" y="463"/>
      <point x="229" y="476"/>
      <point x="248" y="476" type="curve" smooth="yes"/>
      <point x="289.0" y="476"/>
      <point x="365.0" y="476"/>
      <point x="394.0" y="476" type="curve"/>
      <point x="394.0" y="500"/>
      <point x="387" y="523"/>
    </contour>
  </outline>
</glyph>
<glyph name="guillemotleft" format="1">
  <advance width="600"/>
  <unicode hex="00AB"/>
  <outline>
    <contour>
      <point x="337" y="522" type="line"/>
      <point x="293.0" y="522.0"/>
      <point x="261" y="522.0"/>
      <point x="227" y="522" type="curve" smooth="yes"/>
      <point x="215" y="522"/>
      <point x="210" y="521"/>
      <point x="201" y="512" type="curve" smooth="yes"/>
      <point x="172" y="482"/>
      <point x="86" y="391"/>
      <point x="24" y="325" type="curve"/>
      <point x="24" y="305" type="line"/>
      <point x="24" y="292.0"/>
      <point x="32" y="289"/>
      <point x="106" y="257" type="curve"/>
      <point x="184" y="340"/>
      <point x="239" y="398"/>
      <point x="337" y="501" type="curve"/>
    </contour>
    <contour>
      <point x="337" y="99" type="line"/>
      <point x="238" y="202"/>
      <point x="189" y="253"/>
      <point x="125" y="322" type="curve"/>
      <point x="36.0" y="322.0"/>
      <point x="24.0" y="320.0"/>
      <point x="24" y="309" type="curve"/>
      <point x="24" y="285" type="line" smooth="yes"/>
      <point x="24" y="277"/>
      <point x="25" y="273"/>
      <point x="34" y="263" type="curve" smooth="yes"/>
      <point x="54" y="242"/>
      <point x="185" y="105"/>
      <point x="199" y="90" type="curve"/>
      <point x="210" y="79"/>
      <point x="212" y="78"/>
      <point x="225" y="78" type="curve" smooth="yes"/>
      <point x="280" y="78.0"/>
      <point x="307" y="78.0"/>
      <point x="337" y="78" type="curve"/>
    </contour>
    <contour>
      <point x="567" y="522" type="line"/>
      <point x="523.0" y="522.0"/>
      <point x="491" y="522.0"/>
      <point x="457" y="522" type="curve" smooth="yes"/>
      <point x="445" y="522"/>
      <point x="440" y="521"/>
      <point x="431" y="512" type="curve" smooth="yes"/>
      <point x="402" y="482"/>
      <point x="316" y="391"/>
      <point x="254" y="325" type="curve"/>
      <point x="254" y="305" type="line"/>
      <point x="254" y="292.0"/>
      <point x="262" y="289"/>
      <point x="336" y="257" type="curve"/>
      <point x="414" y="340"/>
      <point x="469" y="398"/>
      <point x="567" y="501" type="curve"/>
    </contour>
    <contour>
      <point x="567" y="99" type="line"/>
      <point x="468" y="202"/>
      <point x="419" y="253"/>
      <point x="355" y="322" type="curve"/>
      <point x="266.0" y="322.0"/>
      <point x="254.0" y="320.0"/>
      <point x="254" y="309" type="curve"/>
      <point x="254" y="285" type="line" smooth="yes"/>
      <point x="254" y="277"/>
      <point x="255" y="273"/>
      <point x="264" y="263" type="curve" smooth="yes"/>
      <point x="284" y="242"/>
      <point x="415" y="105"/>
      <point x="429" y="90" type="curve"/>
      <point x="440" y="79"/>
      <point x="442" y="78"/>
      <point x="455" y="78" type="curve" smooth="yes"/>
      <point x="510" y="78.0"/>
      <point x="537" y="78.0"/>
      <point x="567" y="78" type="curve"/>
    </contour>
  </outline>
</glyph>
<glyph name="degree" format="1">
  <advance width="600"/>
  <unicode hex="00B0"/>
  <outline>
    <contour>
      <point x="300.0" y="456" type="curve"/>
      <point x="252.0" y="456.0"/>
      <point x="225" y="477.2686567164179"/>
      <point x="225" y="513" type="curve" smooth="yes"/>
      <point x="225" y="556.0" type="line" smooth="yes"/>
      <point x="225" y="593"/>
      <point x="253.0" y="613.0"/>
      <point x="300.0" y="613" type="curve" smooth="yes"/>
      <point x="330" y="613"/>
      <point x="346" y="613"/>
      <point x="366" y="613" type="curve"/>
      <point x="366.0" y="672.0"/>
      <point x="364.0" y="710.0"/>
      <point x="300.0" y="710.0" type="curve"/>
      <point x="193.1686046511628" y="710.0"/>
      <point x="125" y="654.0"/>
      <point x="125.0" y="566.0" type="curve" smooth="yes"/>
      <point x="125.0" y="504" type="line" smooth="yes"/>
      <point x="125" y="415.0"/>
      <point x="193.1686046511628" y="359.0"/>
      <point x="300.0" y="359.0" type="curve"/>
      <point x="309" y="359.0"/>
      <point x="309" y="430"/>
    </contour>
    <contour>
      <point x="300.0" y="613.0" type="curve"/>
      <point x="348.0" y="613.0"/>
      <point x="375.0" y="593.0"/>
      <point x="375.0" y="556.0" type="curve" smooth="yes"/>
      <point x="375.0" y="513.0" type="line" smooth="yes"/>
      <point x="375.0" y="477.2686567164179"/>
      <point x="347.0" y="456.0"/>
      <point x="300.0" y="456.0" type="curve" smooth="yes"/>
      <point x="270.0" y="456.0"/>
      <point x="255.0" y="456.0"/>
      <point x="234.0" y="456.0" type="curve"/>
      <point x="234.0" y="399.0"/>
      <point x="236.0" y="359.0"/>
      <point x="300.0" y="359.0" type="curve"/>
      <point x="406.8313953488372" y="359.0"/>
      <point x="475.0" y="415.0"/>
      <point x="475.0" y="504.0" type="curve" smooth="yes"/>
      <point x="475.0" y="566.0" type="line" smooth="yes"/>
      <point x="475.0" y="654.0"/>
      <point x="406.8313953488372" y="710.0"/>
      <point x="300.0" y="710.0" type="curve"/>
      <point x="287" y="710.0"/>
      <point x="290.0" y="642.0"/>
    </contour>
  </outline>
</glyph>
<glyph name="ordmasculine" format="1">
  <advance width="600"/>
  <unicode hex="00BA"/>
  <outline>
    <contour>
      <point x="302.0" y="762.0" type="curve" smooth="yes"/>
      <point x="176.0" y="762.0"/>
      <point x="90" y="676.0"/>
      <point x="90" y="552.0" type="curve" smooth="yes"/>
      <point x="90" y="507" type="line" smooth="yes"/>
      <point x="90" y="373.0"/>
      <point x="174.62745098039215" y="288.0"/>
      <point x="298.0" y="288" type="curve" smooth="yes"/>
      <point x="310" y="288"/>
      <point x="317" y="299"/>
      <point x="296" y="406" type="curve"/>
      <point x="239.1578947368421" y="406.0"/>
      <point x="216" y="434.0"/>
      <point x="216" y="498" type="curve" smooth="yes"/>
      <point x="216" y="556" type="line" smooth="yes"/>
      <point x="216" y="612.0"/>
      <point x="247.42857142857142" y="644.0"/>
      <point x="304" y="644" type="curve" smooth="yes"/>
      <point x="345" y="644"/>
      <point x="369" y="644.0"/>
      <point x="394" y="644" type="curve"/>
      <point x="394.0" y="720"/>
      <point x="360.0" y="762.0"/>
    </contour>
    <contour>
      <point x="298.0" y="288" type="curve" smooth="yes"/>
      <point x="423.0" y="288.0"/>
      <point x="510" y="374.0"/>
      <point x="510" y="498" type="curve" smooth="yes"/>
      <point x="510" y="544" type="line" smooth="yes"/>
      <point x="510" y="677.0"/>
      <point x="425.37254901960785" y="762.0"/>
      <point x="302.0" y="762.0" type="curve" smooth="yes"/>
      <point x="296" y="762.0"/>
      <point x="292" y="756"/>
      <point x="304" y="644" type="curve"/>
      <point x="359.7894736842105" y="644.0"/>
      <point x="384" y="618.0"/>
      <point x="384" y="552.0" type="curve" smooth="yes"/>
      <point x="384" y="494" type="line" smooth="yes"/>
      <point x="384" y="438.0"/>
      <point x="351.5238095238095" y="406.0"/>
      <point x="296" y="406" type="curve" smooth="yes"/>
      <point x="255" y="406"/>
      <point x="229" y="406"/>
      <point x="204" y="406" type="curve"/>
      <point x="204" y="322.0"/>
      <point x="241.0" y="288"/>
    </contour>
  </outline>
</glyph>
<glyph name="onehalf" format="1">
  <advance width="600"/>
  <unicode hex="00BD"/>
  <outline>
    <contour>
      <point x="230" y="391" type="curve"/>
      <point x="230.0" y="494"/>
      <point x="230" y="597"/>
      <point x="230" y="699" type="curve" smooth="yes"/>
      <point x="230" y="706"/>
      <point x="226.0" y="710.0"/>
      <point x="219" y="710" type="curve" smooth="yes"/>
      <point x="134" y="710" type="line"/>
      <point x="134.0" y="609"/>
      <point x="134.0" y="506.0"/>
      <point x="134" y="404" type="curve" smooth="yes"/>
      <point x="134.0" y="395.0"/>
      <point x="186.0" y="391.0"/>
    </contour>
    <contour>
      <point x="26" y="459" type="line"/>
      <point x="26.0" y="432"/>
      <point x="26.0" y="404"/>
      <point x="26.0" y="377" type="curve" smooth="yes"/>
      <point x="26.0" y="369.0"/>
      <point x="30.0" y="366.0"/>
      <point x="37" y="366.0" type="curve" smooth="yes"/>
      <point x="294" y="366" type="line"/>
      <point x="294.0" y="393"/>
      <point x="294.0" y="421"/>
      <point x="294" y="448" type="curve" smooth="yes"/>
      <point x="294.0" y="455.0"/>
      <point x="290.0" y="459.0"/>
      <point x="283" y="459" type="curve" smooth="yes"/>
    </contour>
    <contour>
      <point x="40" y="524" type="curve" smooth="yes"/>
      <point x="47.0" y="524.0"/>
      <point x="52" y="527.0"/>
      <point x="173" y="640" type="curve" smooth="yes"/>
      <point x="209" y="676"/>
      <point x="191.0" y="710.0"/>
      <point x="163" y="710" type="curve"/>
      <point x="126" y="710.0" type="line"/>
      <point x="95" y="682"/>
      <point x="65" y="655"/>
      <point x="34" y="627" type="curve"/>
      <point x="34" y="530" type="line" smooth="yes"/>
      <point x="34.0" y="526.0"/>
      <point x="36" y="524"/>
    </contour>
    <contour>
      <point x="413" y="249.0" type="curve" smooth="yes"/>
      <point x="449.0" y="249.0"/>
      <point x="456.0" y="242.0"/>
      <point x="456" y="233" type="curve"/>
      <point x="503.0" y="233.0"/>
      <point x="552.0" y="243"/>
      <point x="552" y="248" type="curve" smooth="yes"/>
      <point x="552.0" y="310.0"/>
      <point x="492.0" y="341.0"/>
      <point x="415" y="341.0" type="curve" smooth="yes"/>
      <point x="365.0" y="341.0"/>
      <point x="319" y="331"/>
      <point x="306" y="318" type="curve" smooth="yes"/>
      <point x="301" y="313"/>
      <point x="301.0" y="310"/>
      <point x="301" y="304" type="curve" smooth="yes"/>
      <point x="301.0" y="278.0"/>
      <point x="301.0" y="254"/>
      <point x="301" y="231" type="curve"/>
      <point x="313" y="231" type="line"/>
      <point x="352" y="245"/>
      <point x="375" y="249"/>
    </contour>
    <contour>
      <point x="456" y="295" type="curve"/>
      <point x="456" y="273"/>
      <point x="456" y="247"/>
      <point x="456.0" y="233" type="curve" smooth="yes"/>
      <point x="456.0" y="221"/>
      <point x="453" y="217"/>
      <point x="394" y="198" type="curve" smooth="yes"/>
      <point x="311" y="173"/>
      <point x="291.0" y="133"/>
      <point x="291" y="82" type="curve" smooth="yes"/>
      <point x="291.0" y="76"/>
      <point x="346.0" y="77.0"/>
      <point x="387" y="77" type="curve"/>
      <point x="387" y="107"/>
      <point x="395" y="114"/>
      <point x="463" y="136" type="curve" smooth="yes"/>
      <point x="532" y="158"/>
      <point x="552" y="185"/>
      <point x="552" y="239" type="curve" smooth="yes"/>
      <point x="552" y="248" type="line" smooth="yes"/>
      <point x="552" y="272"/>
      <point x="492.0" y="295.0"/>
    </contour>
    <contour>
      <point x="556" y="0" type="line"/>
      <point x="556.0" y="28"/>
      <point x="556.0" y="48.0"/>
      <point x="556" y="76" type="curve" smooth="yes"/>
      <point x="556.0" y="83"/>
      <point x="552.0" y="87.0"/>
      <point x="545" y="87" type="curve" smooth="yes"/>
      <point x="338" y="87" type="line" smooth="yes"/>
      <point x="324" y="87"/>
      <point x="309" y="85"/>
      <point x="291" y="82" type="curve"/>
      <point x="291.0" y="59"/>
      <point x="291.0" y="34"/>
      <point x="291" y="11" type="curve" smooth="yes"/>
      <point x="291" y="4"/>
      <point x="295" y="0"/>
      <point x="302" y="0" type="curve" smooth="yes"/>
    </contour>
    <component base="fraction"/>
  </outline>
</glyph>
<glyph name="AE" format="1">
  <advance width="600"/>
  <unicode hex="00C6"/>
  <outline>
    <contour>
      <point x="161" y="0" type="curve"/>
      <point x="191" y="189"/>
      <point x="220" y="379"/>
      <point x="250" y="568" type="curve"/>
      <point x="266" y="660"/>
      <point x="282.0806966228371" y="687.8576782956352"/>
      <point x="345" y="700" type="curve"/>
      <point x="129" y="700" type="line"/>
      <point x="89" y="471"/>
      <point x="50" y="242"/>
      <point x="10" y="13" type="curve"/>
      <point x="8" y="3"/>
      <point x="14" y="0"/>
      <point x="18" y="0" type="curve" smooth="yes"/>
      <point x="66" y="0.0"/>
      <point x="113" y="0.0"/>
    </contour>
    <contour>
      <point x="437" y="0" type="curve"/>
      <point x="421" y="229"/>
      <point x="404" y="460"/>
      <point x="388" y="689" type="curve"/>
      <point x="388.0" y="696"/>
      <point x="383" y="700.0"/>
      <point x="376" y="700" type="curve"/>
      <point x="229.0" y="700.0"/>
      <point x="179.0" y="714.0"/>
      <point x="179" y="561" type="curve"/>
      <point x="251" y="561" type="line"/>
      <point x="256.0" y="561.0"/>
      <point x="258" y="560"/>
      <point x="259" y="550" type="curve"/>
      <point x="271" y="369"/>
      <point x="283" y="188"/>
      <point x="295" y="7" type="curve" smooth="yes"/>
      <point x="296" y="1"/>
      <point x="300.0" y="0.0"/>
      <point x="306" y="0" type="curve" smooth="yes"/>
      <point x="352" y="0.0"/>
      <point x="391" y="0.0"/>
    </contour>
    <contour>
      <point x="123" y="259" type="line"/>
      <point x="123" y="136" type="line"/>
      <point x="123.0" y="130.0"/>
      <point x="128" y="125"/>
      <point x="134" y="125" type="curve"/>
      <point x="311" y="125" type="line"/>
      <point x="311" y="248" type="line"/>
      <point x="311" y="256"/>
      <point x="308.0" y="259.0"/>
      <point x="300" y="259" type="curve"/>
    </contour>
    <contour>
      <point x="295" y="700" type="line"/>
      <point x="295" y="572" type="line"/>
      <point x="295.0" y="566.0"/>
      <point x="300.0" y="561.0"/>
      <point x="306" y="561" type="curve" smooth="yes"/>
      <point x="580" y="561" type="line"/>
      <point x="580.0" y="605"/>
      <point x="580.0" y="645"/>
      <point x="580" y="689" type="curve" smooth="yes"/>
      <point x="580" y="692"/>
      <point x="579" y="695"/>
      <point x="577" y="697" type="curve" smooth="yes"/>
      <point x="575" y="699"/>
      <point x="572" y="700"/>
      <point x="569" y="700" type="curve"/>
    </contour>
    <contour>
      <point x="335" y="418" type="line"/>
      <point x="335" y="297" type="line"/>
      <point x="335" y="290"/>
      <point x="339.0" y="286.0"/>
      <point x="346" y="286" type="curve" smooth="yes"/>
      <point x="540" y="286" type="line"/>
      <point x="540.0" y="328"/>
      <point x="540" y="365"/>
      <point x="540" y="407" type="curve" smooth="yes"/>
      <point x="540.0" y="414.0"/>
      <point x="536.0" y="418.0"/>
      <point x="529" y="418" type="curve"/>
    </contour>
    <contour>
      <point x="385" y="139" type="line"/>
      <point x="385" y="11" type="line" smooth="yes"/>
      <point x="385" y="5"/>
      <point x="390.0" y="0"/>
      <point x="396" y="0" type="curve" smooth="yes"/>
      <point x="580" y="0" type="line"/>
      <point x="580.0" y="44"/>
      <point x="580.0" y="84"/>
      <point x="580" y="128" type="curve" smooth="yes"/>
      <point x="580" y="134"/>
      <point x="575" y="139"/>
      <point x="569" y="139" type="curve" smooth="yes"/>
    </contour>
    <contour>
      <point x="349" y="711" type="move" name="top"/>
    </contour>
  </outline>
</glyph>
<glyph name="Eth" format="1">
  <advance width="600"/>
  <unicode hex="00D0"/>
  <outline>
    <contour>
      <point x="10" y="410" type="line"/>
      <point x="10.0" y="376"/>
      <point x="10.0" y="345"/>
      <point x="10" y="311" type="curve" smooth="yes"/>
      <point x="10.0" y="304.0"/>
      <point x="14" y="300"/>
      <point x="21" y="300" type="curve" smooth="yes"/>
      <point x="320" y="300" type="line"/>
      <point x="320.0" y="334"/>
      <point x="320.0" y="365"/>
      <point x="320" y="399" type="curve" smooth="yes"/>
      <point x="320.0" y="405.0"/>
      <point x="315.0" y="410.0"/>
      <point x="309" y="410" type="curve"/>
    </contour>
    <component base="D"/>
  </outline>
</glyph>
<glyph name="multiply" format="1">
  <advance width="600"/>
  <unicode hex="00D7"/>
  <outline>
    <contour>
      <point x="80" y="184" type="curve"/>
      <point x="89" y="175"/>
      <point x="167" y="97"/>
      <point x="177" y="87" type="curve" smooth="yes"/>
      <point x="179" y="85"/>
      <point x="181" y="84"/>
      <point x="183" y="84" type="curve" smooth="yes"/>
      <point x="185" y="84"/>
      <point x="187.0" y="85.0"/>
      <point x="189" y="87" type="curve" smooth="yes"/>
      <point x="292.0" y="190.0"/>
      <point x="415" y="313"/>
      <point x="518" y="416" type="curve"/>
      <point x="509" y="425"/>
      <point x="432.0" y="502.0"/>
      <point x="421" y="513" type="curve" smooth="yes"/>
      <point x="419.0" y="515.0"/>
      <point x="417" y="516"/>
      <point x="415" y="516.0" type="curve" smooth="yes"/>
      <point x="413" y="516"/>
      <point x="411.0" y="515.0"/>
      <point x="409" y="513" type="curve" smooth="yes"/>
      <point x="304" y="408"/>
      <point x="183" y="287"/>
    </contour>
    <contour>
      <point x="518" y="184" type="curve"/>
      <point x="415" y="287"/>
      <point x="294" y="408"/>
      <point x="189" y="513" type="curve" smooth="yes"/>
      <point x="187.0" y="515.0"/>
      <point x="185" y="516"/>
      <point x="183.0" y="516.0" type="curve" smooth="yes"/>
      <point x="181" y="516"/>
      <point x="179.0" y="515.0"/>
      <point x="177" y="513" type="curve" smooth="yes"/>
      <point x="143.0" y="479.0"/>
      <point x="107" y="443"/>
      <point x="80" y="416" type="curve"/>
      <point x="183.0" y="313.0"/>
      <point x="306.0" y="190.0"/>
      <point x="409" y="87" type="curve" smooth="yes"/>
      <point x="411.0" y="85.0"/>
      <point x="413" y="84"/>
      <point x="415" y="84" type="curve" smooth="yes"/>
      <point x="417" y="84"/>
      <point x="419" y="85"/>
      <point x="421" y="87" type="curve" smooth="yes"/>
      <point x="451" y="117"/>
      <point x="490" y="156"/>
    </contour>
  </outline>
</glyph>
<glyph name="ae" format="1">
  <advance width="600"/>
  <unicode hex="00E6"/>
  <outline>
    <contour>
      <point x="166" y="552.0" type="curve" smooth="yes"/>
      <point x="101" y="552"/>
      <point x="50.0" y="538.0"/>
      <point x="38" y="526" type="curve" smooth="yes"/>
      <point x="36" y="524"/>
      <point x="35" y="521"/>
      <point x="35" y="518" type="curve" smooth="yes"/>
      <point x="35.0" y="482"/>
      <point x="35.0" y="443"/>
      <point x="35" y="407" type="curve"/>
      <point x="55" y="407" type="line"/>
      <point x="95" y="421"/>
      <point x="128" y="427.0"/>
      <point x="172" y="427" type="curve" smooth="yes"/>
      <point x="223.0" y="427.0"/>
      <point x="244.0" y="406.0"/>
      <point x="244" y="338" type="curve" smooth="yes"/>
      <point x="244" y="143" type="line"/>
      <point x="338.0" y="209.0"/>
      <point x="340.0" y="214.0"/>
      <point x="340" y="222" type="curve"/>
      <point x="340.0" y="330" type="line" smooth="yes"/>
      <point x="340.0" y="469.0"/>
      <point x="269.0" y="552.0"/>
    </contour>
    <contour>
      <point x="145.0" y="147" type="curve" smooth="yes"/>
      <point x="145.0" y="191" type="line" smooth="yes"/>
      <point x="145.0" y="224.0"/>
      <point x="145.0" y="250.0"/>
      <point x="145" y="276" type="curve"/>
      <point x="61.0" y="276.0"/>
      <point x="15" y="243.0"/>
      <point x="15" y="190" type="curve" smooth="yes"/>
      <point x="15" y="134" type="line" smooth="yes"/>
      <point x="15" y="51"/>
      <point x="75" y="-10"/>
      <point x="161" y="-10.0" type="curve" smooth="yes"/>
      <point x="264.0" y="-10.0"/>
      <point x="340.0" y="81.0"/>
      <point x="340" y="222" type="curve" smooth="yes"/>
      <point x="340.0" y="231.0"/>
      <point x="336.0" y="232.0"/>
      <point x="244" y="178" type="curve"/>
      <point x="244.0" y="134.0"/>
      <point x="223.0" y="111.0"/>
      <point x="185" y="111" type="curve" smooth="yes"/>
      <point x="182" y="111.0" type="line" smooth="yes"/>
      <point x="158.0" y="111.0"/>
      <point x="145" y="120"/>
    </contour>
    <contour>
      <point x="272" y="319" type="curve" smooth="yes"/>
      <point x="252.0" y="319.0"/>
      <point x="230.0" y="319.0"/>
      <point x="168" y="319.0" type="curve" smooth="yes"/>
      <point x="85.0" y="319.0"/>
      <point x="15.0" y="262.0"/>
      <point x="15" y="190" type="curve" smooth="yes"/>
      <point x="15.0" y="187.0"/>
      <point x="23.0" y="177.0"/>
      <point x="145" y="191" type="curve"/>
      <point x="145.0" y="210.0"/>
      <point x="158.0" y="229.0"/>
      <point x="181" y="229.0" type="curve" smooth="yes"/>
      <point x="213.0" y="229.0"/>
      <point x="275.0" y="229.0"/>
      <point x="297" y="229" type="curve"/>
      <point x="297.0" y="258"/>
      <point x="292.0" y="319.0"/>
    </contour>
    <contour>
      <point x="575" y="229" type="line" smooth="yes"/>
      <point x="581" y="229"/>
      <point x="585.0" y="233.0"/>
      <point x="585" y="239" type="curve" smooth="yes"/>
      <point x="585" y="340" type="line" smooth="yes"/>
      <point x="585" y="497"/>
      <point x="528" y="552"/>
      <point x="430" y="552" type="curve" smooth="yes"/>
      <point x="412.0" y="552.0"/>
      <point x="394.0" y="544.0"/>
      <point x="413" y="432" type="curve"/>
      <point x="453.0" y="432.0"/>
      <point x="465" y="407"/>
      <point x="465" y="347" type="curve" smooth="yes"/>
      <point x="465" y="320" type="line" smooth="yes"/>
      <point x="465.0" y="319.0"/>
      <point x="465" y="319"/>
      <point x="464" y="319" type="curve" smooth="yes"/>
      <point x="365.0" y="319.0"/>
      <point x="366.0" y="319.0"/>
      <point x="303" y="319" type="curve"/>
      <point x="303.0" y="281.0"/>
      <point x="310.0" y="256.0"/>
      <point x="324" y="242" type="curve" smooth="yes"/>
      <point x="333.0" y="233.0"/>
      <point x="344" y="229"/>
      <point x="358" y="229" type="curve" smooth="yes"/>
    </contour>
    <contour>
      <point x="413" y="432.0" type="curve" smooth="yes"/>
      <point x="447" y="432.0"/>
      <point x="467" y="432.0"/>
      <point x="496" y="432" type="curve"/>
      <point x="496.0" y="489.0"/>
      <point x="495" y="552.0"/>
      <point x="430" y="552" type="curve"/>
      <point x="335.0" y="552.0"/>
      <point x="260.0" y="469.0"/>
      <point x="260.0" y="330" type="curve" smooth="yes"/>
      <point x="260" y="222" type="line" smooth="yes"/>
      <point x="260.0" y="83.0"/>
      <point x="331.0" y="-12.0"/>
      <point x="458" y="-12" type="curve" smooth="yes"/>
      <point x="469.0" y="-12.0"/>
      <point x="466.0" y="0"/>
      <point x="450" y="113" type="curve"/>
      <point x="398.0" y="113.0"/>
      <point x="360.0" y="137.0"/>
      <point x="360" y="217" type="curve" smooth="yes"/>
      <point x="360.0" y="352" type="line" smooth="yes"/>
      <point x="360.0" y="403.0"/>
      <point x="374" y="432.0"/>
    </contour>
    <contour>
      <point x="576" y="14" type="curve" smooth="yes"/>
      <point x="581" y="17"/>
      <point x="582.0" y="21.0"/>
      <point x="582" y="24" type="curve" smooth="yes"/>
      <point x="582.0" y="60"/>
      <point x="582.0" y="102"/>
      <point x="582" y="133" type="curve"/>
      <point x="562" y="133" type="line"/>
      <point x="522" y="117"/>
      <point x="501" y="113.0"/>
      <point x="450" y="113" type="curve" smooth="yes"/>
      <point x="408" y="113.0"/>
      <point x="390" y="113.0"/>
      <point x="367" y="113" type="curve"/>
      <point x="367.0" y="40.0"/>
      <point x="417" y="-12.0"/>
      <point x="458" y="-12.0" type="curve" smooth="yes"/>
      <point x="524" y="-12.0"/>
      <point x="559" y="4"/>
    </contour>
    <contour>
      <point x="300" y="551" type="move" name="top"/>
    </contour>
  </outline>
</glyph>
<glyph name="divide" format="1">
  <advance width="600"/>
  <unicode hex="00F7"/>
  <outline>
    <contour>
      <point x="60.0" y="370.0" type="line"/>
      <point x="60.0" y="324.0"/>
      <point x="60.0" y="287.0"/>
      <point x="60.0" y="241.0" type="curve" smooth="yes"/>
      <point x="60.0" y="238.0"/>
      <point x="61.0" y="235.0"/>
      <point x="63.0" y="233.0" type="curve" smooth="yes"/>
      <point x="65.0" y="231.0"/>
      <point x="68.0" y="230.0"/>
      <point x="71.0" y="230.0" type="curve"/>
      <point x="540.0" y="230.0" type="line"/>
      <point x="540.0" y="276.0"/>
      <point x="540.0" y="313.0"/>
      <point x="540.0" y="359.0" type="curve" smooth="yes"/>
      <point x="540.0" y="365.0"/>
      <point x="535.0" y="370.0"/>
      <point x="529.0" y="370.0" type="curve"/>
    </contour>
    <contour>
      <point x="385" y="440" type="curve"/>
      <point x="385" y="569" type="line" smooth="yes"/>
      <point x="385.0" y="575.0"/>
      <point x="380" y="580"/>
      <point x="374" y="580" type="curve" smooth="yes"/>
      <point x="311" y="580"/>
      <point x="278" y="580"/>
      <point x="215" y="580" type="curve"/>
      <point x="215" y="451" type="line" smooth="yes"/>
      <point x="215" y="445"/>
      <point x="220" y="440"/>
      <point x="226" y="440" type="curve" smooth="yes"/>
      <point x="289" y="440"/>
      <point x="322" y="440"/>
    </contour>
    <contour>
      <point x="385" y="20" type="curve"/>
      <point x="385" y="149" type="line" smooth="yes"/>
      <point x="385.0" y="155.0"/>
      <point x="380" y="160"/>
      <point x="374" y="160" type="curve" smooth="yes"/>
      <point x="311" y="160"/>
      <point x="278" y="160"/>
      <point x="215" y="160" type="curve"/>
      <point x="215" y="31" type="line" smooth="yes"/>
      <point x="215" y="25"/>
      <point x="220" y="20"/>
      <point x="226" y="20" type="curve" smooth="yes"/>
      <point x="289" y="20"/>
      <point x="322" y="20"/>
    </contour>
  </outline>
</glyph>
<glyph name="oslash" format="1">
  <advance width="600"/>
  <unicode hex="00F8"/>
  <outline>
    <contour>
      <point x="527" y="607.0" type="curve"/>
      <point x="513" y="607.0"/>
      <point x="436" y="607.0"/>
      <point x="415" y="607.0" type="curve" smooth="yes"/>
      <point x="404.0" y="607.0"/>
      <point x="401" y="605.0"/>
      <point x="393" y="588.0" type="curve" smooth="yes"/>
      <point x="329" y="458.0"/>
      <point x="246" y="281.0"/>
      <point x="153" y="89.0" type="curve"/>
      <point x="193" y="97.0"/>
      <point x="223" y="103.0"/>
      <point x="231" y="105.0" type="curve" smooth="yes"/>
      <point x="253" y="109.0"/>
      <point x="256" y="111"/>
      <point x="263" y="125" type="curve" smooth="yes"/>
      <point x="294" y="181"/>
      <point x="377" y="333.0"/>
    </contour>
    <contour>
      <point x="140" y="64" type="curve"/>
      <point x="126" y="37"/>
      <point x="89" y="-32.0"/>
      <point x="71" y="-66.0" type="curve"/>
      <point x="81" y="-66.0"/>
      <point x="168" y="-66.0"/>
      <point x="180" y="-66.0" type="curve" smooth="yes"/>
      <point x="188" y="-66.0"/>
      <point x="190" y="-65"/>
      <point x="194" y="-58" type="curve"/>
      <point x="211" y="-25"/>
      <point x="247" y="40.0"/>
      <point x="270" y="86.0" type="curve"/>
      <point x="177" y="86.0"/>
      <point x="150" y="83"/>
    </contour>
    <component base="o"/>
    <contour>
      <point x="300" y="571" type="move" name="top"/>
    </contour>
  </outline>
</glyph>
<glyph name="ij" format="1">
  <advance width="600"/>
  <unicode hex="0133"/>
  <outline>
    <contour>
      <point x="238" y="645" type="curve"/>
      <point x="238" y="784" type="line" smooth="yes"/>
      <point x="238" y="790"/>
      <point x="233" y="795"/>
      <point x="227" y="795" type="curve" smooth="yes"/>
      <point x="171" y="795"/>
      <point x="114" y="795"/>
      <point x="58" y="795" type="curve"/>
      <point x="58" y="656" type="line" smooth="yes"/>
      <point x="58" y="650"/>
      <point x="63" y="645"/>
      <point x="69" y="645" type="curve" smooth="yes"/>
      <point x="125" y="645"/>
      <point x="182" y="645"/>
    </contour>
    <contour>
      <point x="539" y="650" type="curve"/>
      <point x="539" y="789" type="line" smooth="yes"/>
      <point x="539" y="795"/>
      <point x="534" y="800"/>
      <point x="528" y="800" type="curve" smooth="yes"/>
      <point x="472" y="800"/>
      <point x="415" y="800"/>
      <point x="359" y="800" type="curve"/>
      <point x="359" y="661" type="line" smooth="yes"/>
      <point x="359" y="655"/>
      <point x="364" y="650"/>
      <point x="370" y="650" type="curve" smooth="yes"/>
      <point x="426" y="650"/>
      <point x="483" y="650"/>
    </contour>
    <component base="dotlessij"/>
  </outline>
</glyph>
<glyph name="lslash" format="1">
  <advance width="600"/>
  <unicode hex="0142"/>
  <outline>
    <contour>
      <point x="526" y="578" type="curve"/>
      <point x="351" y="485" type="line" smooth="yes"/>
      <point x="317" y="467"/>
      <point x="294" y="472"/>
      <point x="259" y="454" type="curve" smooth="yes"/>
      <point x="113" y="377" type="line" smooth="yes"/>
      <point x="105" y="373"/>
      <point x="105" y="369"/>
      <point x="105.0" y="358" type="curve" smooth="yes"/>
      <point x="105.0" y="296.0"/>
      <point x="105.0" y="275.0"/>
      <point x="105" y="255" type="curve"/>
      <point x="252" y="333" type="line" smooth="yes"/>
      <point x="294" y="355"/>
      <point x="317" y="349"/>
      <point x="352" y="368" type="curve" smooth="yes"/>
      <point x="517" y="455" type="line" smooth="yes"/>
      <point x="524" y="459"/>
      <point x="526" y="463"/>
      <point x="526.0" y="473" type="curve" smooth="yes"/>
      <point x="526.0" y="529"/>
      <point x="526.0" y="562"/>
    </contour>
    <component base="l"/>
  </outline>
</glyph>
<glyph name="oe" format="1">
  <advance width="600"/>
  <unicode hex="0153"/>
  <outline>
    <contour>
      <point x="184.0" y="552.0" type="curve" smooth="yes"/>
      <point x="82.0" y="552.0"/>
      <point x="15" y="467.0"/>
      <point x="15.0" y="349.0" type="curve" smooth="yes"/>
      <point x="15.0" y="180.0" type="line" smooth="yes"/>
      <point x="15" y="59.0"/>
      <point x="75.0" y="-12.0"/>
      <point x="180.0" y="-12.0" type="curve" smooth="yes"/>
      <point x="192.0" y="-12.0"/>
      <point x="204.0" y="0.0"/>
      <point x="188.0" y="108.0" type="curve"/>
      <point x="153.0" y="108.0"/>
      <point x="135.0" y="130.0"/>
      <point x="135.0" y="181.0" type="curve" smooth="yes"/>
      <point x="135.0" y="347.0" type="line" smooth="yes"/>
      <point x="135.0" y="408.0"/>
      <point x="155.0" y="432.0"/>
      <point x="186.0" y="432.0" type="curve" smooth="yes"/>
      <point x="219" y="432.0"/>
      <point x="242.0" y="432.0"/>
      <point x="256.0" y="432.0" type="curve"/>
      <point x="256.0" y="490"/>
      <point x="249" y="552.0"/>
    </contour>
    <contour>
      <point x="180.0" y="-12.0" type="curve" smooth="yes"/>
      <point x="272.0" y="-12.0"/>
      <point x="340.0" y="84.0"/>
      <point x="340.0" y="221.0" type="curve" smooth="yes"/>
      <point x="340.0" y="330.0" type="line" smooth="yes"/>
      <point x="340.0" y="467.0"/>
      <point x="276" y="552.0"/>
      <point x="184.0" y="552.0" type="curve" smooth="yes"/>
      <point x="164.0" y="552.0"/>
      <point x="164.0" y="543.0"/>
      <point x="186.0" y="432.0" type="curve"/>
      <point x="224.0" y="432.0"/>
      <point x="240.0" y="404.0"/>
      <point x="240.0" y="347.0" type="curve" smooth="yes"/>
      <point x="240.0" y="181.0" type="line" smooth="yes"/>
      <point x="240.0" y="133.0"/>
      <point x="224.0" y="108.0"/>
      <point x="188.0" y="108.0" type="curve" smooth="yes"/>
      <point x="161.0" y="108.0"/>
      <point x="137.0" y="108.0"/>
      <point x="105.0" y="108.0" type="curve"/>
      <point x="105.0" y="40"/>
      <point x="119.0" y="-12.0"/>
    </contour>
    <contour>
      <point x="575" y="230" type="line" smooth="yes"/>
      <point x="581" y="230"/>
      <point x="585" y="234"/>
      <point x="585" y="240" type="curve" smooth="yes"/>
      <point x="585" y="340" type="line" smooth="yes"/>
      <point x="585.0" y="497.0"/>
      <point x="518" y="552"/>
      <point x="420" y="552" type="curve" smooth="yes"/>
      <point x="402" y="552"/>
      <point x="394" y="544"/>
      <point x="413" y="432" type="curve"/>
      <point x="453.0" y="432.0"/>
      <point x="465.0" y="407.0"/>
      <point x="465" y="347" type="curve" smooth="yes"/>
      <point x="465" y="321" type="line" smooth="yes"/>
      <point x="465" y="320"/>
      <point x="465" y="320"/>
      <point x="464" y="320" type="curve" smooth="yes"/>
      <point x="365" y="320"/>
      <point x="338" y="320"/>
      <point x="275" y="320" type="curve"/>
      <point x="275" y="282"/>
      <point x="282" y="257"/>
      <point x="296" y="243" type="curve" smooth="yes"/>
      <point x="305" y="234"/>
      <point x="316" y="230"/>
      <point x="330" y="230" type="curve" smooth="yes"/>
    </contour>
    <contour>
      <point x="413" y="432.0" type="curve" smooth="yes"/>
      <point x="447" y="432.0"/>
      <point x="467" y="432.0"/>
      <point x="496" y="432" type="curve"/>
      <point x="496.0" y="489.0"/>
      <point x="485" y="552.0"/>
      <point x="420" y="552" type="curve"/>
      <point x="325.0" y="552.0"/>
      <point x="260.0" y="469.0"/>
      <point x="260.0" y="330" type="curve" smooth="yes"/>
      <point x="260" y="222" type="line" smooth="yes"/>
      <point x="260.0" y="81.0"/>
      <point x="325.0" y="-12.0"/>
      <point x="455" y="-12" type="curve" smooth="yes"/>
      <point x="466.0" y="-12.0"/>
      <point x="466.0" y="0"/>
      <point x="450" y="113" type="curve"/>
      <point x="398.0" y="113.0"/>
      <point x="360.0" y="137.0"/>
      <point x="360" y="217" type="curve" smooth="yes"/>
      <point x="360.0" y="352" type="line" smooth="yes"/>
      <point x="360.0" y="403.0"/>
      <point x="374" y="432.0"/>
    </contour>
    <contour>
      <point x="576" y="14" type="curve" smooth="yes"/>
      <point x="581" y="17"/>
      <point x="582.0" y="21.0"/>
      <point x="582" y="24" type="curve" smooth="yes"/>
      <point x="582.0" y="60"/>
      <point x="582.0" y="102"/>
      <point x="582" y="133" type="curve"/>
      <point x="562" y="133" type="line"/>
      <point x="522" y="117"/>
      <point x="501" y="113.0"/>
      <point x="450" y="113" type="curve" smooth="yes"/>
      <point x="408" y="113.0"/>
      <point x="390" y="113.0"/>
      <point x="367" y="113" type="curve"/>
      <point x="367.0" y="40.0"/>
      <point x="414" y="-12.0"/>
      <point x="455" y="-12.0" type="curve" smooth="yes"/>
      <point x="521" y="-12.0"/>
      <point x="559" y="4"/>
    </contour>
  </outline>
</glyph>
<glyph name="tbar" format="1">
  <advance width="600"/>
  <unicode hex="0167"/>
  <outline>
    <contour>
      <point x="70" y="327" type="line"/>
      <point x="70.0" y="293"/>
      <point x="70.0" y="262"/>
      <point x="70" y="228" type="curve" smooth="yes"/>
      <point x="70.0" y="221.0"/>
      <point x="74" y="217"/>
      <point x="81" y="217" type="curve" smooth="yes"/>
      <point x="500" y="217" type="line"/>
      <point x="500.0" y="251"/>
      <point x="500.0" y="282"/>
      <point x="500" y="316" type="curve" smooth="yes"/>
      <point x="500.0" y="322.0"/>
      <point x="495.0" y="327.0"/>
      <point x="489" y="327" type="curve"/>
    </contour>
    <component base="t"/>
  </outline>
</glyph>
<glyph name="gravecomb" format="1">
  <unicode hex="0300"/>
  <outline>
    <contour>
      <point x="68.0" y="617.0" type="curve"/>
      <point x="33.0" y="679.0"/>
      <point x="-2.0" y="741.0"/>
      <point x="-38.0" y="805.0" type="curve"/>
      <point x="-101.0" y="805.0"/>
      <point x="-148.0" y="805.0"/>
      <point x="-209.0" y="805.0" type="curve" smooth="yes"/>
      <point x="-217.0" y="805.0"/>
      <point x="-222.0" y="797.0"/>
      <point x="-216.0" y="790.0" type="curve"/>
      <point x="-165.0" y="733.0"/>
      <point x="-126.0" y="690.0"/>
      <point x="-67.0" y="625.0" type="curve" smooth="yes"/>
      <point x="-64.0" y="621.0"/>
      <point x="-58.0" y="617.0"/>
      <point x="-50.0" y="617.0" type="curve" smooth="yes"/>
      <point x="-7.0" y="617.0"/>
      <point x="30.0" y="617.0"/>
    </contour>
    <contour>
      <point x="0" y="549" type="move" name="_top"/>
    </contour>
  </outline>
</glyph>
<glyph name="acutecomb" format="1">
  <unicode hex="0301"/>
  <note>
    combining acute accent
  </note>
  <outline>
    <contour>
      <point x="50.0" y="617.0" type="curve" smooth="yes"/>
      <point x="58.0" y="617.0"/>
      <point x="64.0" y="621.0"/>
      <point x="67.0" y="625.0" type="curve" smooth="yes"/>
      <point x="126.0" y="690.0"/>
      <point x="165.0" y="733.0"/>
      <point x="216.0" y="790.0" type="curve"/>
      <point x="222.0" y="797.0"/>
      <point x="217.0" y="805.0"/>
      <point x="209.0" y="805.0" type="curve" smooth="yes"/>
      <point x="148.0" y="805.0"/>
      <point x="101.0" y="805.0"/>
      <point x="38.0" y="805.0" type="curve"/>
      <point x="2.0" y="741.0"/>
      <point x="-33.0" y="679.0"/>
      <point x="-68.0" y="617.0" type="curve"/>
      <point x="-30.0" y="617.0"/>
      <point x="7.0" y="617.0"/>
    </contour>
    <contour>
      <point x="0" y="549" type="move" name="_top"/>
    </contour>
  </outline>
</glyph>
<glyph name="dotaccentcomb" format="1">
  <unicode hex="0307"/>
  <outline>
    <contour>
      <point x="90" y="650" type="curve"/>
      <point x="90" y="789" type="line" smooth="yes"/>
      <point x="90.0" y="795.0"/>
      <point x="85.0" y="800.0"/>
      <point x="79" y="800" type="curve" smooth="yes"/>
      <point x="23.0" y="800.0"/>
      <point x="-34" y="800.0"/>
      <point x="-90" y="800" type="curve"/>
      <point x="-90" y="661" type="line" smooth="yes"/>
      <point x="-90.0" y="655.0"/>
      <point x="-85.0" y="650.0"/>
      <point x="-79" y="650" type="curve" smooth="yes"/>
      <point x="-23" y="650.0"/>
      <point x="34" y="650.0"/>
    </contour>
    <contour>
      <point x="0" y="549" type="move" name="_top"/>
    </contour>
    <contour>
      <point x="0" y="729" type="move" name="_dot"/>
    </contour>
  </outline>
</glyph>
<glyph name="dieresiscomb" format="1">
  <unicode hex="0308"/>
  <outline>
    <contour>
      <point x="-32" y="611" type="curve"/>
      <point x="-32" y="757" type="line" smooth="yes"/>
      <point x="-32" y="763"/>
      <point x="-37.0" y="768.0"/>
      <point x="-43" y="768" type="curve" smooth="yes"/>
      <point x="-91" y="768.0"/>
      <point x="-140" y="768.0"/>
      <point x="-188" y="768" type="curve"/>
      <point x="-188" y="622" type="line" smooth="yes"/>
      <point x="-188.0" y="616.0"/>
      <point x="-183.0" y="611.0"/>
      <point x="-177" y="611" type="curve" smooth="yes"/>
      <point x="-129" y="611.0"/>
      <point x="-80" y="611.0"/>
    </contour>
    <contour>
      <point x="188" y="611" type="curve"/>
      <point x="188" y="757" type="line" smooth="yes"/>
      <point x="188" y="763"/>
      <point x="183.0" y="768.0"/>
      <point x="177" y="768" type="curve" smooth="yes"/>
      <point x="129" y="768.0"/>
      <point x="80" y="768.0"/>
      <point x="32" y="768" type="curve"/>
      <point x="32" y="622" type="line" smooth="yes"/>
      <point x="32.0" y="616.0"/>
      <point x="37.0" y="611.0"/>
      <point x="43" y="611" type="curve" smooth="yes"/>
      <point x="91" y="611.0"/>
      <point x="140" y="611.0"/>
    </contour>
    <contour>
      <point x="0" y="551" type="move" name="_top"/>
    </contour>
  </outline>
</glyph>
<glyph name="cedillacomb" format="1">
  <unicode hex="0327"/>
  <outline>
    <contour>
      <point x="119" y="-111" type="curve" smooth="yes"/>
      <point x="119.0" y="-51.0"/>
      <point x="83" y="-14"/>
      <point x="24" y="0" type="curve"/>
      <point x="29" y="24"/>
      <point x="32" y="39"/>
      <point x="36" y="56" type="curve"/>
      <point x="-16" y="56.0"/>
      <point x="-24" y="51"/>
      <point x="-29" y="41" type="curve" smooth="yes"/>
      <point x="-41" y="17"/>
      <point x="-46" y="3"/>
      <point x="-60" y="-25" type="curve" smooth="yes"/>
      <point x="-64" y="-34"/>
      <point x="-59.0" y="-40.0"/>
      <point x="-52" y="-40" type="curve" smooth="yes"/>
      <point x="-15" y="-40.0"/>
      <point x="-2.0" y="-52"/>
      <point x="-2" y="-79" type="curve" smooth="yes"/>
      <point x="-2.0" y="-104"/>
      <point x="-23" y="-120.0"/>
      <point x="-58" y="-120.0" type="curve" smooth="yes"/>
      <point x="-84" y="-120.0"/>
      <point x="-101" y="-115"/>
      <point x="-120" y="-105" type="curve"/>
      <point x="-132" y="-105" type="line"/>
      <point x="-132" y="-130"/>
      <point x="-132" y="-186"/>
      <point x="-132" y="-220" type="curve" smooth="yes"/>
      <point x="-132.0" y="-229.0"/>
      <point x="-110" y="-250"/>
      <point x="-40" y="-250.0" type="curve" smooth="yes"/>
      <point x="69.0" y="-250.0"/>
      <point x="119.0" y="-188.0"/>
    </contour>
    <contour>
      <point x="0" y="0" type="move" name="_bottom"/>
    </contour>
  </outline>
</glyph>
<glyph name="ogonekcomb" format="1">
  <unicode hex="0328"/>
  <outline>
    <contour>
      <point x="-138" y="-130" type="curve" smooth="yes"/>
      <point x="-138.0" y="-202.0"/>
      <point x="-88.0" y="-250.0"/>
      <point x="-7" y="-250" type="curve" smooth="yes"/>
      <point x="33.0" y="-250.0"/>
      <point x="75.0" y="-236.0"/>
      <point x="75" y="-215" type="curve" smooth="yes"/>
      <point x="75" y="-131"/>
      <point x="75" y="-114"/>
      <point x="75" y="-93" type="curve"/>
      <point x="55" y="-93" type="line"/>
      <point x="41" y="-102"/>
      <point x="25" y="-106"/>
      <point x="7" y="-106" type="curve" smooth="yes"/>
      <point x="-19" y="-106"/>
      <point x="-33" y="-93"/>
      <point x="-33" y="-70" type="curve" smooth="yes"/>
      <point x="-33" y="-40"/>
      <point x="-16" y="-18"/>
      <point x="27" y="0" type="curve"/>
      <point x="27.0" y="11.0"/>
      <point x="22.75" y="17.0"/>
      <point x="10" y="17.0" type="curve" smooth="yes"/>
      <point x="-79.39597315436242" y="17.0"/>
      <point x="-138.0" y="-39.0"/>
    </contour>
    <contour>
      <point x="27" y="-1" type="move" name="_ogonek"/>
    </contour>
  </outline>
</glyph>
<glyph name="quoteleft" format="1">
  <advance width="600"/>
  <unicode hex="2018"/>
  <outline>
    <contour>
      <point x="299.0" y="711.0" type="curve" smooth="yes"/>
      <point x="294.0" y="711.0"/>
      <point x="291.0" y="710.0"/>
      <point x="289.0" y="704.0" type="curve"/>
      <point x="248.0" y="595.0"/>
      <point x="200.0" y="467.0"/>
      <point x="167.0" y="381.0" type="curve"/>
      <point x="164.0" y="373.0"/>
      <point x="167.0" y="368.0"/>
      <point x="175.0" y="368.0" type="curve" smooth="yes"/>
      <point x="246.0" y="368.0"/>
      <point x="288.0" y="368.0"/>
      <point x="371.0" y="368.0" type="curve"/>
      <point x="395.0" y="482.0"/>
      <point x="419.0" y="597.0"/>
      <point x="443.0" y="711.0" type="curve"/>
      <point x="405.0" y="711.0"/>
      <point x="362.0" y="711.0"/>
    </contour>
  </outline>
</glyph>
<glyph name="dagger" format="1">
  <advance width="600"/>
  <unicode hex="2020"/>
  <outline>
    <contour>
      <point x="375" y="-150" type="curve"/>
      <point x="375" y="-129"/>
      <point x="375.0" y="-107.0"/>
      <point x="375" y="-86" type="curve"/>
      <point x="375" y="360" type="line" smooth="yes"/>
      <point x="375" y="689" type="line" smooth="yes"/>
      <point x="375" y="696"/>
      <point x="370" y="700"/>
      <point x="364" y="700" type="curve" smooth="yes"/>
      <point x="293" y="700.0"/>
      <point x="261" y="700.0"/>
      <point x="225" y="700" type="curve"/>
      <point x="225.0" y="662.0"/>
      <point x="225.0" y="627.0"/>
      <point x="225" y="590" type="curve"/>
      <point x="225" y="250" type="line" smooth="yes"/>
      <point x="225" y="-5.0"/>
      <point x="313.9782943737682" y="-99.97829437376821"/>
      <point x="361" y="-147" type="curve" smooth="yes"/>
      <point x="363" y="-149"/>
      <point x="365" y="-150"/>
      <point x="369" y="-150" type="curve"/>
      <point x="370.7647058823529" y="-150.0"/>
      <point x="373.2616822429907" y="-150.0"/>
    </contour>
    <contour>
      <point x="66" y="350" type="curve"/>
      <point x="534" y="350" type="line"/>
      <point x="534.0" y="396.0"/>
      <point x="534.0" y="443.0"/>
      <point x="534" y="489" type="curve" smooth="yes"/>
      <point x="534.0" y="495.0"/>
      <point x="529.0" y="500.0"/>
      <point x="523" y="500" type="curve" smooth="yes"/>
      <point x="77" y="500" type="line" smooth="yes"/>
      <point x="70.0" y="500.0"/>
      <point x="66" y="496"/>
      <point x="66" y="489" type="curve" smooth="yes"/>
      <point x="66.0" y="443.0"/>
      <point x="66.0" y="396.0"/>
    </contour>
  </outline>
</glyph>
<glyph name="daggerdbl" format="1">
  <advance width="600"/>
  <unicode hex="2021"/>
  <outline>
    <contour>
      <point x="364" y="700" type="curve" smooth="yes"/>
      <point x="318" y="700.0"/>
      <point x="271" y="700.0"/>
      <point x="225" y="700" type="curve"/>
      <point x="225.0" y="666"/>
      <point x="225.0" y="633"/>
      <point x="225" y="599" type="curve"/>
      <point x="225" y="-139" type="line" smooth="yes"/>
      <point x="225" y="-146"/>
      <point x="230" y="-150"/>
      <point x="236" y="-150" type="curve" smooth="yes"/>
      <point x="282" y="-150.0"/>
      <point x="329" y="-150.0"/>
      <point x="375" y="-150" type="curve"/>
      <point x="375.0" y="-117"/>
      <point x="375.0" y="-84"/>
      <point x="375" y="-51" type="curve"/>
      <point x="375" y="689" type="line" smooth="yes"/>
      <point x="375" y="696"/>
      <point x="370" y="700"/>
    </contour>
    <contour>
      <point x="66" y="358" type="curve"/>
      <point x="534" y="358" type="line"/>
      <point x="534.0" y="404.0"/>
      <point x="534.0" y="443.0"/>
      <point x="534" y="489" type="curve" smooth="yes"/>
      <point x="534.0" y="495.0"/>
      <point x="529.0" y="500.0"/>
      <point x="523" y="500" type="curve" smooth="yes"/>
      <point x="77" y="500" type="line" smooth="yes"/>
      <point x="70" y="500"/>
      <point x="66" y="496"/>
      <point x="66" y="489" type="curve" smooth="yes"/>
      <point x="66.0" y="443.0"/>
      <point x="66.0" y="404.0"/>
    </contour>
    <contour>
      <point x="534.0" y="192.0" type="curve"/>
      <point x="66.0" y="192.0" type="line"/>
      <point x="66.0" y="146.0"/>
      <point x="66.0" y="107.0"/>
      <point x="66.0" y="61.0" type="curve" smooth="yes"/>
      <point x="66.0" y="55.0"/>
      <point x="71.0" y="50.0"/>
      <point x="77.0" y="50.0" type="curve" smooth="yes"/>
      <point x="523.0" y="50.0" type="line" smooth="yes"/>
      <point x="530.0" y="50.0"/>
      <point x="534.0" y="54.0"/>
      <point x="534.0" y="61.0" type="curve" smooth="yes"/>
      <point x="534.0" y="107.0"/>
      <point x="534.0" y="146.0"/>
    </contour>
  </outline>
</glyph>
<glyph name="perthousand" format="1">
  <advance width="600"/>
  <unicode hex="2030"/>
  <outline>
    <contour>
      <point x="42" y="232" type="curve"/>
      <point x="183" y="292"/>
      <point x="427" y="397"/>
      <point x="560" y="454" type="curve" smooth="yes"/>
      <point x="566" y="457"/>
      <point x="570" y="462"/>
      <point x="570" y="471" type="curve" smooth="yes"/>
      <point x="570.0" y="530.0"/>
      <point x="570" y="578"/>
      <point x="570" y="628" type="curve"/>
      <point x="418" y="529"/>
      <point x="99" y="321"/>
      <point x="30" y="276" type="curve"/>
      <point x="30" y="261"/>
      <point x="30" y="249"/>
      <point x="30" y="239" type="curve" smooth="yes"/>
      <point x="30.0" y="233.0"/>
      <point x="34.0" y="229"/>
    </contour>
    <contour>
      <point x="152" y="500" type="curve"/>
      <point x="120.0" y="500.0"/>
      <point x="102.0" y="521.0"/>
      <point x="102" y="555" type="curve" smooth="yes"/>
      <point x="102" y="568" type="line" smooth="yes"/>
      <point x="102" y="607"/>
      <point x="118.0" y="628.0"/>
      <point x="152" y="628" type="curve" smooth="yes"/>
      <point x="180.0" y="628.0"/>
      <point x="188" y="628"/>
      <point x="212" y="628" type="curve"/>
      <point x="212" y="680"/>
      <point x="190" y="710.0"/>
      <point x="152" y="710.0" type="curve" smooth="yes"/>
      <point x="69" y="710.0"/>
      <point x="12.0" y="655"/>
      <point x="12.0" y="573" type="curve" smooth="yes"/>
      <point x="12.0" y="552" type="line" smooth="yes"/>
      <point x="12.0" y="468.0"/>
      <point x="68" y="418"/>
      <point x="152" y="418" type="curve" smooth="yes"/>
      <point x="169.0" y="418.0"/>
      <point x="171" y="432"/>
    </contour>
    <contour>
      <point x="152" y="628" type="curve"/>
      <point x="184.0" y="628.0"/>
      <point x="202" y="609"/>
      <point x="202" y="575" type="curve" smooth="yes"/>
      <point x="202" y="561" type="line" smooth="yes"/>
      <point x="202.0" y="522.0"/>
      <point x="186.0" y="500.0"/>
      <point x="152" y="500" type="curve" smooth="yes"/>
      <point x="123.0" y="500.0"/>
      <point x="115" y="500"/>
      <point x="91" y="500" type="curve"/>
      <point x="91" y="449"/>
      <point x="113" y="418"/>
      <point x="152" y="418" type="curve" smooth="yes"/>
      <point x="235" y="418"/>
      <point x="291.0" y="474.0"/>
      <point x="291" y="556" type="curve" smooth="yes"/>
      <point x="291" y="576" type="line" smooth="yes"/>
      <point x="291" y="660"/>
      <point x="235" y="710.0"/>
      <point x="152" y="710.0" type="curve" smooth="yes"/>
      <point x="135.0" y="710.0"/>
      <point x="132" y="697"/>
    </contour>
    <contour>
      <point x="259" y="72" type="curve"/>
      <point x="227.0" y="72.0"/>
      <point x="209" y="93"/>
      <point x="209" y="127" type="curve" smooth="yes"/>
      <point x="209" y="140" type="line" smooth="yes"/>
      <point x="209.0" y="179.0"/>
      <point x="225.0" y="200.0"/>
      <point x="259" y="200" type="curve" smooth="yes"/>
      <point x="287" y="200.0"/>
      <point x="295" y="200"/>
      <point x="319" y="200" type="curve"/>
      <point x="319.0" y="252.0"/>
      <point x="293" y="282.0"/>
      <point x="249" y="282.0" type="curve" smooth="yes"/>
      <point x="172" y="282.0"/>
      <point x="119.0" y="227.0"/>
      <point x="119.0" y="145" type="curve" smooth="yes"/>
      <point x="119.0" y="124" type="line" smooth="yes"/>
      <point x="119.0" y="40.0"/>
      <point x="171.0" y="-10.0"/>
      <point x="249" y="-10" type="curve" smooth="yes"/>
      <point x="249.0" y="-10.0"/>
      <point x="277" y="7"/>
    </contour>
    <contour>
      <point x="259" y="200" type="curve"/>
      <point x="291.0" y="200.0"/>
      <point x="309.0" y="181.0"/>
      <point x="309" y="147" type="curve" smooth="yes"/>
      <point x="309" y="133" type="line" smooth="yes"/>
      <point x="309" y="94"/>
      <point x="293.0" y="72.0"/>
      <point x="259" y="72" type="curve" smooth="yes"/>
      <point x="230" y="72.0"/>
      <point x="222" y="72"/>
      <point x="198" y="72" type="curve"/>
      <point x="198.0" y="21.0"/>
      <point x="216" y="-10.0"/>
      <point x="249" y="-10" type="curve" smooth="yes"/>
      <point x="326" y="-10.0"/>
      <point x="378" y="46.0"/>
      <point x="378" y="128" type="curve" smooth="yes"/>
      <point x="378" y="148" type="line" smooth="yes"/>
      <point x="378" y="232.0"/>
      <point x="326" y="282.0"/>
      <point x="249" y="282.0" type="curve" smooth="yes"/>
      <point x="249.0" y="282.0"/>
      <point x="240" y="266"/>
    </contour>
    <contour>
      <point x="449" y="72" type="curve"/>
      <point x="417.0" y="72.0"/>
      <point x="399" y="93"/>
      <point x="399" y="127" type="curve" smooth="yes"/>
      <point x="399" y="140" type="line" smooth="yes"/>
      <point x="399.0" y="179.0"/>
      <point x="415.0" y="200.0"/>
      <point x="449" y="200" type="curve" smooth="yes"/>
      <point x="477" y="200.0"/>
      <point x="485" y="200"/>
      <point x="509" y="200" type="curve"/>
      <point x="509.0" y="252.0"/>
      <point x="491" y="282.0"/>
      <point x="459" y="282.0" type="curve" smooth="yes"/>
      <point x="382.0" y="282.0"/>
      <point x="329.0" y="227.0"/>
      <point x="329.0" y="145" type="curve" smooth="yes"/>
      <point x="329.0" y="124" type="line" smooth="yes"/>
      <point x="329.0" y="40.0"/>
      <point x="381.0" y="-10.0"/>
      <point x="459" y="-10" type="curve" smooth="yes"/>
      <point x="459.0" y="-10.0"/>
      <point x="467" y="7"/>
    </contour>
    <contour>
      <point x="449" y="200" type="curve"/>
      <point x="481.0" y="200.0"/>
      <point x="499.0" y="181.0"/>
      <point x="499.0" y="147.0" type="curve" smooth="yes"/>
      <point x="499.0" y="133.0" type="line" smooth="yes"/>
      <point x="499" y="94"/>
      <point x="483.0" y="72.0"/>
      <point x="449.0" y="72.0" type="curve" smooth="yes"/>
      <point x="420" y="72.0"/>
      <point x="412" y="72"/>
      <point x="388" y="72" type="curve"/>
      <point x="388.0" y="21.0"/>
      <point x="414" y="-10.0"/>
      <point x="459.0" y="-10.0" type="curve" smooth="yes"/>
      <point x="536" y="-10.0"/>
      <point x="588" y="46.0"/>
      <point x="588.0" y="128.0" type="curve" smooth="yes"/>
      <point x="588.0" y="148.0" type="line" smooth="yes"/>
      <point x="588" y="232.0"/>
      <point x="536" y="282.0"/>
      <point x="460.0" y="282.0" type="curve" smooth="yes"/>
      <point x="459.0" y="282.0"/>
      <point x="430" y="266"/>
    </contour>
  </outline>
</glyph>
<glyph name="Euro" format="1">
  <advance width="600"/>
  <unicode hex="20AC"/>
  <outline>
    <contour>
      <point x="328" y="582.0" type="curve" smooth="yes"/>
      <point x="391.0" y="582.0"/>
      <point x="429.0" y="561.0"/>
      <point x="465" y="532" type="curve"/>
      <point x="509.0" y="543.0"/>
      <point x="547.7143662440656" y="642.2856337559344"/>
      <point x="533" y="657" type="curve" smooth="yes"/>
      <point x="502" y="688"/>
      <point x="434" y="720"/>
      <point x="331" y="720.0" type="curve" smooth="yes"/>
      <point x="152.0" y="720.0"/>
      <point x="50" y="612.0"/>
      <point x="50" y="455" type="curve" smooth="yes"/>
      <point x="50" y="256" type="line" smooth="yes"/>
      <point x="50.0" y="168.0"/>
      <point x="111.0" y="110.0"/>
      <point x="210" y="111" type="curve"/>
      <point x="210.0" y="147.67132867132867"/>
      <point x="210.0" y="181.0"/>
      <point x="210.0" y="249" type="curve" smooth="yes"/>
      <point x="210.0" y="457" type="line" smooth="yes"/>
      <point x="210.0" y="545.0"/>
      <point x="256.0" y="582.0"/>
    </contour>
    <contour>
      <point x="340" y="-20.0" type="curve" smooth="yes"/>
      <point x="435.0" y="-20.0"/>
      <point x="521" y="4"/>
      <point x="547" y="30" type="curve" smooth="yes"/>
      <point x="549" y="32"/>
      <point x="550.0" y="35.0"/>
      <point x="550" y="38" type="curve" smooth="yes"/>
      <point x="550.0" y="82.34532374100719"/>
      <point x="550.0" y="127.65467625899281"/>
      <point x="550" y="172" type="curve"/>
      <point x="530" y="172" type="line"/>
      <point x="476.0" y="140.0"/>
      <point x="419.0" y="125.0"/>
      <point x="347" y="125" type="curve" smooth="yes"/>
      <point x="250.0" y="125.0"/>
      <point x="210.0" y="162.0"/>
      <point x="210" y="273" type="curve"/>
      <point x="105.00191837953304" y="273.99998172971874"/>
      <point x="50.0" y="266.04545454545456"/>
      <point x="50" y="256" type="curve" smooth="yes"/>
      <point x="50.0" y="80.0"/>
      <point x="142.0" y="-20.0"/>
    </contour>
    <contour>
      <point x="543" y="525" type="curve"/>
      <point x="543" y="632" type="line" smooth="yes"/>
      <point x="543" y="641"/>
      <point x="540" y="650"/>
      <point x="533" y="657" type="curve" smooth="yes"/>
      <point x="522.0" y="668.0"/>
      <point x="497.0" y="673.0"/>
      <point x="403" y="673" type="curve"/>
      <point x="403.0" y="652.0"/>
      <point x="403" y="621"/>
      <point x="403" y="603" type="curve" smooth="yes"/>
      <point x="403" y="536" type="line"/>
      <point x="403.0" y="530.0"/>
      <point x="408.0" y="525.0"/>
      <point x="414" y="525" type="curve" smooth="yes"/>
      <point x="457.0" y="525.0"/>
      <point x="500" y="525.0"/>
    </contour>
    <contour>
      <point x="10" y="475" type="line"/>
      <point x="10.0" y="441"/>
      <point x="10.0" y="410"/>
      <point x="10" y="376" type="curve" smooth="yes"/>
      <point x="10.0" y="369.0"/>
      <point x="14.0" y="365.0"/>
      <point x="21" y="365" type="curve" smooth="yes"/>
      <point x="380" y="365" type="line"/>
      <point x="380.0" y="399"/>
      <point x="380.0" y="430"/>
      <point x="380" y="464" type="curve" smooth="yes"/>
      <point x="380.0" y="470.0"/>
      <point x="375.0" y="475.0"/>
      <point x="369" y="475" type="curve"/>
    </contour>
    <contour>
      <point x="380.0" y="200.0" type="line"/>
      <point x="380.0" y="234.0"/>
      <point x="380.0" y="265.0"/>
      <point x="380.0" y="299.0" type="curve" smooth="yes"/>
      <point x="380.0" y="302.0"/>
      <point x="379.0" y="305.0"/>
      <point x="377.0" y="307.0" type="curve" smooth="yes"/>
      <point x="375.0" y="309.0"/>
      <point x="372.0" y="310.0"/>
      <point x="369.0" y="310.0" type="curve"/>
      <point x="10.0" y="310.0" type="line"/>
      <point x="10.0" y="276.0"/>
      <point x="10.0" y="245.0"/>
      <point x="10.0" y="211.0" type="curve" smooth="yes"/>
      <point x="10.0" y="205.0"/>
      <point x="15.0" y="200.0"/>
      <point x="21.0" y="200.0" type="curve"/>
    </contour>
  </outline>
</glyph>
<glyph name="bitcoin" format="1">
  <advance width="600"/>
  <unicode hex="20BF"/>
  <outline>
    <contour>
      <point x="240.0" y="590.0" type="curve"/>
      <point x="240.0" y="769.0" type="line" smooth="yes"/>
      <point x="240.0" y="776.0"/>
      <point x="236.0" y="780.0"/>
      <point x="229.0" y="780.0" type="curve"/>
      <point x="197" y="780.0"/>
      <point x="167" y="780.0"/>
      <point x="135.0" y="780.0" type="curve"/>
      <point x="135.0" y="601.0" type="line" smooth="yes"/>
      <point x="135" y="594"/>
      <point x="139.0" y="590.0"/>
      <point x="146.0" y="590.0" type="curve" smooth="yes"/>
      <point x="178.0" y="590.0"/>
      <point x="208.0" y="590.0"/>
    </contour>
    <contour>
      <point x="420.0" y="590.0" type="curve"/>
      <point x="420.0" y="769.0" type="line" smooth="yes"/>
      <point x="420.0" y="776.0"/>
      <point x="416.0" y="780.0"/>
      <point x="409.0" y="780.0" type="curve"/>
      <point x="377" y="780.0"/>
      <point x="347" y="780.0"/>
      <point x="315.0" y="780.0" type="curve"/>
      <point x="315.0" y="601.0" type="line" smooth="yes"/>
      <point x="315" y="594"/>
      <point x="319.0" y="590.0"/>
      <point x="326.0" y="590.0" type="curve" smooth="yes"/>
      <point x="358.0" y="590.0"/>
      <point x="388.0" y="590.0"/>
    </contour>
    <contour>
      <point x="240.0" y="-100.0" type="curve"/>
      <point x="240.0" y="79.0" type="line" smooth="yes"/>
      <point x="240" y="86"/>
      <point x="236.0" y="90.0"/>
      <point x="229.0" y="90.0" type="curve"/>
      <point x="197.0" y="90.0"/>
      <point x="167.0" y="90.0"/>
      <point x="135.0" y="90.0" type="curve"/>
      <point x="135.0" y="-89.0" type="line" smooth="yes"/>
      <point x="135.0" y="-96.0"/>
      <point x="139.0" y="-100.0"/>
      <point x="146.0" y="-100.0" type="curve" smooth="yes"/>
      <point x="178.0" y="-100.0"/>
      <point x="208.0" y="-100.0"/>
    </contour>
    <contour>
      <point x="420.0" y="-100.0" type="curve"/>
      <point x="420.0" y="79.0" type="line" smooth="yes"/>
      <point x="420" y="86"/>
      <point x="416.0" y="90.0"/>
      <point x="409.0" y="90.0" type="curve"/>
      <point x="377" y="90.0"/>
      <point x="347" y="90.0"/>
      <point x="315.0" y="90.0" type="curve"/>
      <point x="315.0" y="-89.0" type="line" smooth="yes"/>
      <point x="315.0" y="-96.0"/>
      <point x="319.0" y="-100.0"/>
      <point x="326.0" y="-100.0" type="curve" smooth="yes"/>
      <point x="358.0" y="-100.0"/>
      <point x="388.0" y="-100.0"/>
    </contour>
    <component base="B"/>
  </outline>
</glyph>
<glyph name="trademark" format="1">
  <advance width="600"/>
  <unicode hex="2122"/>
  <outline>
    <contour>
      <point x="11" y="700" type="line"/>
      <point x="11.0" y="668"/>
      <point x="11.0" y="645"/>
      <point x="11" y="613" type="curve" smooth="yes"/>
      <point x="11.0" y="606.0"/>
      <point x="15.0" y="602.0"/>
      <point x="22" y="602" type="curve" smooth="yes"/>
      <point x="250" y="602" type="line"/>
      <point x="250.0" y="634"/>
      <point x="250.0" y="657"/>
      <point x="250" y="689" type="curve" smooth="yes"/>
      <point x="250.0" y="695.0"/>
      <point x="245" y="700"/>
      <point x="239" y="700" type="curve" smooth="yes"/>
    </contour>
    <contour>
      <point x="183" y="350" type="curve"/>
      <point x="183" y="382"/>
      <point x="183" y="415"/>
      <point x="183" y="450" type="curve" smooth="yes"/>
      <point x="183" y="675" type="line" smooth="yes"/>
      <point x="183.0" y="681.0"/>
      <point x="172" y="686.0"/>
      <point x="78" y="686" type="curve"/>
      <point x="78" y="361" type="line" smooth="yes"/>
      <point x="78" y="354"/>
      <point x="82.0" y="350.0"/>
      <point x="89" y="350" type="curve" smooth="yes"/>
      <point x="122" y="350.0"/>
      <point x="150" y="350.0"/>
    </contour>
    <contour>
      <point x="387.0" y="350.0" type="curve"/>
      <point x="387.0" y="370"/>
      <point x="387.0" y="391.0"/>
      <point x="387.0" y="412" type="curve" smooth="yes"/>
      <point x="361.36096873396656" y="573.7231202934418"/>
      <point x="360.0" y="595"/>
      <point x="360.0" y="689" type="curve" smooth="yes"/>
      <point x="360.0" y="696.0"/>
      <point x="356.0" y="700.0"/>
      <point x="349" y="700.0" type="curve" smooth="yes"/>
      <point x="333.0" y="700.0"/>
      <point x="306" y="700.0"/>
      <point x="288.0" y="700.0" type="curve"/>
      <point x="288.0" y="684"/>
      <point x="288.0" y="666"/>
      <point x="288.0" y="650.0" type="curve" smooth="yes"/>
      <point x="288.0" y="361" type="line" smooth="yes"/>
      <point x="288.0" y="354.0"/>
      <point x="292.0" y="350.0"/>
      <point x="299" y="350.0" type="curve" smooth="yes"/>
      <point x="326" y="350.0"/>
      <point x="359.3333333333333" y="350.0"/>
    </contour>
    <contour>
      <point x="582.0" y="350.0" type="curve"/>
      <point x="582.0" y="366"/>
      <point x="582.0" y="384.0"/>
      <point x="582.0" y="400.0" type="curve" smooth="yes"/>
      <point x="582.0" y="689" type="line" smooth="yes"/>
      <point x="582.0" y="696.0"/>
      <point x="578.0" y="700.0"/>
      <point x="571" y="700.0" type="curve" smooth="yes"/>
      <point x="510.0" y="700.0" type="line"/>
      <point x="510.0" y="698.0"/>
      <point x="510.0" y="696.0"/>
      <point x="510.0" y="694.0" type="curve" smooth="yes"/>
      <point x="510.0" y="598.0"/>
      <point x="507.0" y="576"/>
      <point x="483.0" y="412" type="curve" smooth="yes"/>
      <point x="483.0" y="393.0"/>
      <point x="483.0" y="379.0"/>
      <point x="483.0" y="361" type="curve" smooth="yes"/>
      <point x="483.0" y="354.0"/>
      <point x="488.0" y="350.0"/>
      <point x="494" y="350.0" type="curve"/>
      <point x="523" y="350.0"/>
      <point x="554" y="350.0"/>
    </contour>
    <contour>
      <point x="326.0" y="700.0" type="line"/>
      <point x="360" y="602"/>
      <point x="395.0" y="502"/>
      <point x="428" y="404.0" type="curve"/>
      <point x="430.0" y="400"/>
      <point x="432" y="400.0"/>
      <point x="434" y="400.0" type="curve"/>
      <point x="438.90909090909093" y="400.0"/>
      <point x="448.91169608120424" y="532.2943463959858"/>
      <point x="446.0" y="542" type="curve"/>
      <point x="428.0" y="594.0"/>
      <point x="411.0" y="640.0"/>
      <point x="394.0" y="690" type="curve"/>
      <point x="392" y="696"/>
      <point x="389.0" y="700.0"/>
      <point x="383" y="700.0" type="curve"/>
    </contour>
    <contour>
      <point x="510.0" y="700.0" type="curve" smooth="yes"/>
      <point x="499.5" y="700.0"/>
      <point x="489.75" y="700.0"/>
      <point x="480" y="700.0" type="curve"/>
      <point x="461.0" y="647.0"/>
      <point x="442.0" y="594.0"/>
      <point x="424" y="542" type="curve"/>
      <point x="420.212543388208" y="532.53135847052"/>
      <point x="431.0" y="400.0"/>
      <point x="434.0" y="400.0" type="curve"/>
      <point x="440.0" y="400.0" type="line"/>
      <point x="472.0" y="491.0"/>
      <point x="504" y="582"/>
      <point x="536" y="674.0" type="curve"/>
      <point x="542" y="688"/>
      <point x="536.0" y="700.0"/>
    </contour>
  </outline>
</glyph>
<glyph name="infinity" format="1">
  <advance width="600"/>
  <unicode hex="221E"/>
  <outline>
    <contour>
      <point x="276" y="222" type="line" smooth="yes"/>
      <point x="308.9419012344074" y="128.3756491232632"/>
      <point x="344.53472222222223" y="98.0"/>
      <point x="415.0" y="98.0" type="curve"/>
      <point x="455.30357142857144" y="98.0"/>
      <point x="476.0" y="147.0"/>
      <point x="476.0" y="210.0" type="curve"/>
      <point x="456.4788732394366" y="210.0"/>
      <point x="449.27272727272725" y="210.0"/>
      <point x="413" y="210.0" type="curve" smooth="yes"/>
      <point x="388.3170731707317" y="210.0"/>
      <point x="383.6630798214259" y="222.37005453668667"/>
      <point x="369" y="262" type="curve" smooth="yes"/>
      <point x="332" y="362" type="line" smooth="yes"/>
      <point x="291.04961802564674" y="472.67670803879264"/>
      <point x="259.5" y="502.0"/>
      <point x="187.0" y="502.0" type="curve" smooth="yes"/>
      <point x="135.80645161290323" y="502.0"/>
      <point x="119.00003204591184" y="451.00195480062223"/>
      <point x="118" y="390.0" type="curve"/>
      <point x="150.484375" y="390.0"/>
      <point x="174.26923076923077" y="390.0"/>
      <point x="195" y="390.0" type="curve" smooth="yes"/>
      <point x="214.45238095238096" y="390.0"/>
      <point x="225.2711829582565" y="366.1766379081131"/>
      <point x="238" y="330" type="curve" smooth="yes"/>
    </contour>
    <contour>
      <point x="569.0" y="303" type="curve" smooth="yes"/>
      <point x="569.0" y="359"/>
      <point x="514" y="400"/>
      <point x="457.0" y="400" type="curve"/>
      <point x="457.0" y="372"/>
      <point x="457.0" y="352"/>
      <point x="457.0" y="303" type="curve" smooth="yes"/>
      <point x="457.0" y="238.0"/>
      <point x="442.2307692307692" y="210.0"/>
      <point x="421" y="210.0" type="curve" smooth="yes"/>
      <point x="392.38" y="210.0"/>
      <point x="371.26153846153846" y="210.0"/>
      <point x="368.0" y="210.0" type="curve"/>
      <point x="369.99983204603944" y="144.00554248069824"/>
      <point x="384.2692307692308" y="98.0"/>
      <point x="415.0" y="98.0" type="curve" smooth="yes"/>
      <point x="438.0" y="98.0" type="line" smooth="yes"/>
      <point x="508.6984126984127" y="98.0"/>
      <point x="569.0" y="176.0"/>
    </contour>
    <contour>
      <point x="31" y="302.0" type="curve" smooth="yes"/>
      <point x="31.0" y="243"/>
      <point x="73.0" y="202.0"/>
      <point x="143" y="202" type="curve"/>
      <point x="143.0" y="228"/>
      <point x="143.0" y="242"/>
      <point x="143" y="300" type="curve" smooth="yes"/>
      <point x="143.0" y="363.0"/>
      <point x="159.58536585365857" y="390.0"/>
      <point x="183" y="390.0" type="curve" smooth="yes"/>
      <point x="208.48076923076923" y="390.0"/>
      <point x="224.75757575757575" y="390.0"/>
      <point x="236.0" y="390.0" type="curve"/>
      <point x="236.0" y="470.0"/>
      <point x="216.75" y="502.0"/>
      <point x="187.0" y="502.0" type="curve" smooth="yes"/>
      <point x="163.0" y="502.0" type="line" smooth="yes"/>
      <point x="89.07999999999998" y="502.0"/>
      <point x="31.0" y="426.0"/>
    </contour>
    <contour>
      <point x="300" y="230.0" type="curve" smooth="yes"/>
      <point x="300.0" y="258.0"/>
      <point x="286.0" y="288.0"/>
      <point x="265" y="308" type="curve"/>
      <point x="244.01920992640495" y="228.07318067201888"/>
      <point x="222.28571428571428" y="210"/>
      <point x="196" y="210" type="curve" smooth="yes"/>
      <point x="184" y="210" type="line" smooth="yes"/>
      <point x="157" y="210"/>
      <point x="143.0" y="231.0"/>
      <point x="143" y="300" type="curve"/>
      <point x="41" y="324"/>
      <point x="31" y="320"/>
      <point x="31" y="302.0" type="curve" smooth="yes"/>
      <point x="31.0" y="177.0"/>
      <point x="86.72800000000001" y="98"/>
      <point x="160.0" y="98" type="curve" smooth="yes"/>
      <point x="184.0" y="98" type="line" smooth="yes"/>
      <point x="252.63333333333333" y="98"/>
      <point x="300.0" y="176.0"/>
    </contour>
    <contour>
      <point x="457.0" y="303" type="curve"/>
      <point x="543" y="271"/>
      <point x="569.0" y="290.0"/>
      <point x="569.0" y="303" type="curve" smooth="yes"/>
      <point x="569.0" y="424.0"/>
      <point x="521.034188034188" y="502.0"/>
      <point x="447.0" y="502.0" type="curve" smooth="yes"/>
      <point x="415.0" y="502.0" type="line" smooth="yes"/>
      <point x="347.0869565217391" y="502.0"/>
      <point x="305.0" y="429.0"/>
      <point x="305" y="380" type="curve" smooth="yes"/>
      <point x="305.0" y="330.0"/>
      <point x="316.0" y="313.0"/>
      <point x="340" y="291" type="curve"/>
      <point x="359" y="368"/>
      <point x="384.625" y="390.0"/>
      <point x="410" y="390.0" type="curve" smooth="yes"/>
      <point x="418" y="390.0" type="line" smooth="yes"/>
      <point x="442.2068965517241" y="390.0"/>
      <point x="457.0" y="362.0"/>
    </contour>
  </outline>
</glyph>
<glyph name="integral" format="1">
  <advance width="600"/>
  <unicode hex="222B"/>
  <outline>
    <contour>
      <point x="336" y="630" type="curve"/>
      <point x="365.57798165137615" y="630.0"/>
      <point x="388.0" y="630.0"/>
      <point x="440" y="630" type="curve" smooth="yes"/>
      <point x="478.5" y="630.0"/>
      <point x="514.8354667697665" y="624.8900249710032"/>
      <point x="550" y="615" type="curve"/>
      <point x="570" y="615" type="line"/>
      <point x="570" y="660"/>
      <point x="570" y="695"/>
      <point x="570" y="740" type="curve"/>
      <point x="570" y="743"/>
      <point x="569" y="746"/>
      <point x="567" y="748" type="curve" smooth="yes"/>
      <point x="557.3591093096168" y="757.6408906903832"/>
      <point x="520.1261261261261" y="770.0"/>
      <point x="446" y="770" type="curve" smooth="yes"/>
      <point x="392.1" y="770.0"/>
      <point x="336.0" y="722.0"/>
    </contour>
    <contour>
      <point x="225" y="551" type="curve" smooth="yes"/>
      <point x="225" y="1" type="line"/>
      <point x="225.0" y="-42"/>
      <point x="225.0" y="-85"/>
      <point x="225" y="-128" type="curve"/>
      <point x="308" y="-128"/>
      <point x="375" y="-73"/>
      <point x="375" y="-6" type="curve"/>
      <point x="375" y="552" type="line" smooth="yes"/>
      <point x="375" y="610"/>
      <point x="392.0" y="630.0"/>
      <point x="440" y="630" type="curve"/>
      <point x="479" y="748"/>
      <point x="473" y="770"/>
      <point x="446" y="770" type="curve" smooth="yes"/>
      <point x="291.0" y="770.0"/>
      <point x="225.0" y="679.0"/>
    </contour>
    <contour>
      <point x="146" y="-105" type="curve" smooth="yes"/>
      <point x="108.0" y="-105.0"/>
      <point x="76.44568409665754" y="-98.14856136555251"/>
      <point x="40" y="-86" type="curve"/>
      <point x="20" y="-86" type="line"/>
      <point x="20" y="-128"/>
      <point x="20" y="-174"/>
      <point x="20" y="-218" type="curve" smooth="yes"/>
      <point x="20" y="-221"/>
      <point x="21" y="-224"/>
      <point x="23" y="-226" type="curve" smooth="yes"/>
      <point x="34.510864433221336" y="-237.51086443322134"/>
      <point x="86.0" y="-250.0"/>
      <point x="146" y="-250.0" type="curve" smooth="yes"/>
      <point x="300.0" y="-250.0"/>
      <point x="375.0" y="-167.0"/>
      <point x="375" y="-6" type="curve" smooth="yes"/>
      <point x="375" y="13"/>
      <point x="342" y="6"/>
      <point x="225" y="-26" type="curve"/>
      <point x="225.0" y="-81.0"/>
      <point x="204" y="-105.0"/>
    </contour>
  </outline>
</glyph>
<glyph name="lessequal" format="1">
  <advance width="600"/>
  <unicode hex="2264"/>
  <outline>
    <contour>
      <point x="540" y="444" type="curve"/>
      <point x="540" y="559" type="line"/>
      <point x="540" y="565"/>
      <point x="537" y="569"/>
      <point x="531" y="569" type="curve" smooth="yes"/>
      <point x="527" y="569"/>
      <point x="523" y="568"/>
      <point x="507" y="565" type="curve"/>
      <point x="454.0" y="552.0"/>
      <point x="222.0" y="500.0"/>
      <point x="60" y="464" type="curve"/>
      <point x="60" y="313" type="line"/>
      <point x="77" y="339"/>
      <point x="99.0" y="364.0"/>
      <point x="165" y="376" type="curve" smooth="yes"/>
      <point x="291" y="398"/>
      <point x="407" y="419"/>
    </contour>
    <contour>
      <point x="540" y="193" type="curve"/>
      <point x="540.0" y="234"/>
      <point x="540.0" y="257"/>
      <point x="540" y="298" type="curve"/>
      <point x="540" y="308"/>
      <point x="538.0" y="315"/>
      <point x="526" y="316" type="curve" smooth="yes"/>
      <point x="417" y="331"/>
      <point x="280" y="350.0"/>
      <point x="187" y="362.0" type="curve"/>
      <point x="178" y="363.0"/>
      <point x="176.0" y="368.0"/>
      <point x="176.0" y="376" type="curve" smooth="yes"/>
      <point x="176" y="405"/>
      <point x="176.0" y="422"/>
      <point x="176" y="460" type="curve"/>
      <point x="101.0" y="460.0"/>
      <point x="60" y="399"/>
      <point x="60" y="329" type="curve" smooth="yes"/>
      <point x="60" y="289" type="line" smooth="yes"/>
      <point x="60.0" y="279.0"/>
      <point x="62" y="275"/>
      <point x="72" y="273" type="curve" smooth="yes"/>
      <point x="226.0" y="246.0"/>
      <point x="384.0" y="220.0"/>
    </contour>
    <contour>
      <point x="60" y="165" type="line"/>
      <point x="60.0" y="122.0"/>
      <point x="60.0" y="98"/>
      <point x="60" y="55" type="curve" smooth="yes"/>
      <point x="60.0" y="48.0"/>
      <point x="64.0" y="44.0"/>
      <point x="71" y="44" type="curve"/>
      <point x="540" y="44" type="line"/>
      <point x="540.0" y="87.0"/>
      <point x="540.0" y="111.0"/>
      <point x="540" y="154" type="curve" smooth="yes"/>
      <point x="540.0" y="160.0"/>
      <point x="535.0" y="165.0"/>
      <point x="529" y="165" type="curve"/>
    </contour>
  </outline>
</glyph>
<glyph name="greaterequal" format="1">
  <advance width="600"/>
  <unicode hex="2265"/>
  <outline>
    <contour>
      <point x="60.0" y="569.0" type="curve"/>
      <point x="60.0" y="528.0"/>
      <point x="60.0" y="505.0"/>
      <point x="60.0" y="464.0" type="curve"/>
      <point x="60.0" y="454.0"/>
      <point x="62.0" y="447.0"/>
      <point x="74.0" y="446.0" type="curve" smooth="yes"/>
      <point x="183.0" y="431.0"/>
      <point x="320.0" y="412.0"/>
      <point x="413.0" y="400.0" type="curve"/>
      <point x="422.0" y="399.0"/>
      <point x="424.0" y="394.0"/>
      <point x="424.0" y="386.0" type="curve" smooth="yes"/>
      <point x="424.0" y="357.0"/>
      <point x="424.0" y="340.0"/>
      <point x="424.0" y="302.0" type="curve"/>
      <point x="499.0" y="302.0"/>
      <point x="540.0" y="363.0"/>
      <point x="540.0" y="433.0" type="curve" smooth="yes"/>
      <point x="540.0" y="473.0" type="line" smooth="yes"/>
      <point x="540.0" y="483.0"/>
      <point x="538.0" y="487.0"/>
      <point x="528.0" y="489.0" type="curve" smooth="yes"/>
      <point x="374.0" y="516.0"/>
      <point x="216.0" y="542.0"/>
    </contour>
    <contour>
      <point x="60.0" y="318.0" type="curve"/>
      <point x="60.0" y="203.0" type="line"/>
      <point x="60.0" y="197.0"/>
      <point x="63.0" y="193.0"/>
      <point x="69.0" y="193.0" type="curve" smooth="yes"/>
      <point x="73.0" y="193.0"/>
      <point x="77.0" y="194.0"/>
      <point x="93.0" y="197.0" type="curve"/>
      <point x="146.0" y="210.0"/>
      <point x="378.0" y="262.0"/>
      <point x="540.0" y="298.0" type="curve"/>
      <point x="540.0" y="449.0" type="line"/>
      <point x="523.0" y="423.0"/>
      <point x="501.0" y="398.0"/>
      <point x="435.0" y="386.0" type="curve" smooth="yes"/>
      <point x="309.0" y="364.0"/>
      <point x="193.0" y="343.0"/>
    </contour>
    <contour>
      <point x="60" y="165" type="line"/>
      <point x="60.0" y="122.0"/>
      <point x="60.0" y="98"/>
      <point x="60" y="55" type="curve" smooth="yes"/>
      <point x="60.0" y="48.0"/>
      <point x="64.0" y="44.0"/>
      <point x="71" y="44" type="curve"/>
      <point x="540" y="44" type="line"/>
      <point x="540.0" y="87.0"/>
      <point x="540.0" y="111.0"/>
      <point x="540" y="154" type="curve" smooth="yes"/>
      <point x="540.0" y="160.0"/>
      <point x="535.0" y="165.0"/>
      <point x="529" y="165" type="curve"/>
    </contour>
  </outline>
</glyph>
<glyph name="lozenge" format="1">
  <advance width="600"/>
  <unicode hex="25CA"/>
  <outline>
    <contour>
      <point x="192.0" y="314.0" type="curve"/>
      <point x="240.0" y="442.0"/>
      <point x="263.0" y="502.0"/>
      <point x="303.0" y="607.0" type="curve"/>
      <point x="325.0" y="666.0"/>
      <point x="337.0" y="680.0"/>
      <point x="363.0" y="700.0" type="curve"/>
      <point x="204.0" y="700.0" type="line"/>
      <point x="149.0" y="572.0"/>
      <point x="79.0" y="413.0"/>
      <point x="60.0" y="373.0" type="curve" smooth="yes"/>
      <point x="55.0" y="361.0"/>
      <point x="54.0" y="356.0"/>
      <point x="54.0" y="350.0" type="curve" smooth="yes"/>
      <point x="54.0" y="345.0"/>
      <point x="125.0" y="314.0"/>
    </contour>
    <contour>
      <point x="192.0" y="386" type="curve"/>
      <point x="125.0" y="386"/>
      <point x="54" y="355"/>
      <point x="54" y="350" type="curve" smooth="yes"/>
      <point x="54" y="344"/>
      <point x="55" y="339"/>
      <point x="60" y="327" type="curve" smooth="yes"/>
      <point x="109" y="213"/>
      <point x="146" y="132"/>
      <point x="196" y="14" type="curve" smooth="yes"/>
      <point x="199" y="5"/>
      <point x="206" y="0.0"/>
      <point x="216" y="0.0" type="curve" smooth="yes"/>
      <point x="245" y="0.0" type="line" smooth="yes"/>
      <point x="304" y="0.0"/>
      <point x="365.0" y="45"/>
      <point x="365.0" y="136" type="curve"/>
      <point x="297.0" y="136" type="line" smooth="yes"/>
      <point x="288.0" y="136.0"/>
      <point x="283" y="139"/>
      <point x="280.0" y="148" type="curve" smooth="yes"/>
      <point x="251.0" y="227"/>
      <point x="230.0" y="283"/>
    </contour>
    <contour>
      <point x="408.0" y="314.0" type="curve"/>
      <point x="475.0" y="314.0"/>
      <point x="546.0" y="345.0"/>
      <point x="546.0" y="350.0" type="curve" smooth="yes"/>
      <point x="546.0" y="356.0"/>
      <point x="545.0" y="361.0"/>
      <point x="540.0" y="373.0" type="curve" smooth="yes"/>
      <point x="491.0" y="487.0"/>
      <point x="454.0" y="568.0"/>
      <point x="404.0" y="686.0" type="curve" smooth="yes"/>
      <point x="401.0" y="695.0"/>
      <point x="394.0" y="700.0"/>
      <point x="384.0" y="700.0" type="curve" smooth="yes"/>
      <point x="355.0" y="700.0" type="line" smooth="yes"/>
      <point x="296.0" y="700.0"/>
      <point x="235.0" y="655.0"/>
      <point x="235.0" y="564.0" type="curve"/>
      <point x="303.0" y="564.0" type="line" smooth="yes"/>
      <point x="312.0" y="564.0"/>
      <point x="317.0" y="561.0"/>
      <point x="320.0" y="552.0" type="curve" smooth="yes"/>
      <point x="349.0" y="473.0"/>
      <point x="370.0" y="417.0"/>
    </contour>
    <contour>
      <point x="408.0" y="386" type="curve"/>
      <point x="360.0" y="258"/>
      <point x="337" y="198"/>
      <point x="297" y="93" type="curve"/>
      <point x="275" y="34"/>
      <point x="263" y="20"/>
      <point x="237" y="0.0" type="curve"/>
      <point x="396" y="0.0" type="line"/>
      <point x="451" y="128"/>
      <point x="521" y="287"/>
      <point x="540" y="327" type="curve" smooth="yes"/>
      <point x="545" y="339"/>
      <point x="546" y="344"/>
      <point x="546" y="350" type="curve" smooth="yes"/>
      <point x="546" y="355"/>
      <point x="475.0" y="386"/>
    </contour>
  </outline>
</glyph>
<glyph name="commaaboverightcomb.case" format="1">
  <outline>
    <contour>
      <point x="27.0" y="475.0" type="curve" smooth="yes"/>
      <point x="36.0" y="475.0"/>
      <point x="41" y="479"/>
      <point x="43" y="486.0" type="curve" smooth="yes"/>
      <point x="60.0" y="559.0"/>
      <point x="75.0" y="615.0"/>
      <point x="94" y="685.0" type="curve" smooth="yes"/>
      <point x="96" y="693"/>
      <point x="91" y="700.0"/>
      <point x="83" y="700.0" type="curve" smooth="yes"/>
      <point x="30.0" y="700.0"/>
      <point x="-12.0" y="700.0"/>
      <point x="-66" y="700.0" type="curve"/>
      <point x="-66.0" y="620.0"/>
      <point x="-66.0" y="553.0"/>
      <point x="-66.0" y="475.0" type="curve"/>
      <point x="-28.0" y="475.0"/>
      <point x="4.0000000000000036" y="475.0"/>
    </contour>
    <contour>
      <point x="0" y="550" type="move" name="_caronslovak"/>
    </contour>
  </outline>
</glyph>
<glyph name="dotlessij" format="1">
  <advance width="600"/>
  <outline>
    <contour>
      <point x="73" y="429" type="curve"/>
      <point x="73" y="146" type="line" smooth="yes"/>
      <point x="73" y="74"/>
      <point x="142" y="18"/>
      <point x="223" y="67" type="curve"/>
      <point x="223.0" y="98"/>
      <point x="223" y="131"/>
      <point x="223" y="162" type="curve" smooth="yes"/>
      <point x="223" y="529" type="line" smooth="yes"/>
      <point x="223.0" y="532.0"/>
      <point x="222" y="535"/>
      <point x="220" y="537" type="curve" smooth="yes"/>
      <point x="218" y="539"/>
      <point x="215" y="540"/>
      <point x="212" y="540" type="curve" smooth="yes"/>
      <point x="166" y="540.0"/>
      <point x="119" y="540.0"/>
      <point x="73" y="540" type="curve"/>
      <point x="73.0" y="503"/>
      <point x="73.0" y="466.0"/>
    </contour>
    <contour>
      <point x="308" y="142" type="curve"/>
      <point x="288" y="142" type="line"/>
      <point x="272.7567567567568" y="142.0"/>
      <point x="256.2432432432432" y="142.0"/>
      <point x="241" y="142" type="curve" smooth="yes"/>
      <point x="230.0" y="142.0"/>
      <point x="223.0" y="148.0"/>
      <point x="223" y="162" type="curve"/>
      <point x="102" y="161"/>
      <point x="73.0" y="152"/>
      <point x="73" y="146" type="curve" smooth="yes"/>
      <point x="73.0" y="40"/>
      <point x="137" y="0"/>
      <point x="211" y="0" type="curve" smooth="yes"/>
      <point x="297" y="0" type="line" smooth="yes"/>
      <point x="300.0" y="0.0"/>
      <point x="303" y="1"/>
      <point x="305" y="3" type="curve" smooth="yes"/>
      <point x="307" y="5"/>
      <point x="308" y="8"/>
      <point x="308" y="11" type="curve" smooth="yes"/>
      <point x="308" y="57"/>
      <point x="308" y="96"/>
    </contour>
    <contour>
      <point x="527" y="-6" type="curve" smooth="yes"/>
      <point x="527" y="529" type="line" smooth="yes"/>
      <point x="527.0" y="536.0"/>
      <point x="523.0" y="540.0"/>
      <point x="516" y="540" type="curve"/>
      <point x="470" y="540.0"/>
      <point x="423" y="540.0"/>
      <point x="377" y="540" type="curve"/>
      <point x="377.0" y="503"/>
      <point x="377.0" y="466"/>
      <point x="377" y="429" type="curve"/>
      <point x="377" y="19" type="line" smooth="yes"/>
      <point x="377" y="-65"/>
      <point x="377" y="-101"/>
      <point x="377" y="-145" type="curve"/>
      <point x="474.0" y="-145.0"/>
      <point x="527.0" y="-120.0"/>
    </contour>
    <contour>
      <point x="274" y="-100" type="curve" smooth="yes"/>
      <point x="219" y="-100"/>
      <point x="170" y="-92"/>
      <point x="119" y="-70" type="curve"/>
      <point x="99" y="-70" type="line"/>
      <point x="99" y="-116"/>
      <point x="99" y="-163"/>
      <point x="99" y="-209" type="curve" smooth="yes"/>
      <point x="99" y="-212"/>
      <point x="100" y="-215"/>
      <point x="102" y="-217" type="curve" smooth="yes"/>
      <point x="117" y="-232"/>
      <point x="190" y="-250"/>
      <point x="274" y="-250" type="curve" smooth="yes"/>
      <point x="442.0" y="-250.0"/>
      <point x="527.0" y="-166.0"/>
      <point x="527" y="-6" type="curve" smooth="yes"/>
      <point x="527" y="18"/>
      <point x="490" y="19"/>
      <point x="377" y="19" type="curve"/>
      <point x="377.0" y="-63.0"/>
      <point x="348.0" y="-100.0"/>
    </contour>
  </outline>
</glyph>
<glyph name="gravecomb.case" format="1">
  <outline>
    <contour>
      <point x="65.0" y="776.0" type="curve"/>
      <point x="30.0" y="837"/>
      <point x="-6.0" y="897"/>
      <point x="-41.0" y="958" type="curve"/>
      <point x="-124.0" y="958"/>
      <point x="-142.0" y="958"/>
      <point x="-213.0" y="958.0" type="curve" smooth="yes"/>
      <point x="-221.0" y="958"/>
      <point x="-224.0" y="950"/>
      <point x="-219.0" y="944.0" type="curve" smooth="yes"/>
      <point x="-168.0" y="888.0"/>
      <point x="-143.0" y="859"/>
      <point x="-71.0" y="782" type="curve" smooth="yes"/>
      <point x="-68.0" y="779"/>
      <point x="-63.0" y="776.0"/>
      <point x="-55.0" y="776.0" type="curve" smooth="yes"/>
      <point x="8.0" y="776.0"/>
      <point x="27.0" y="776.0"/>
    </contour>
    <contour>
      <point x="0" y="712" type="move" name="_top"/>
    </contour>
  </outline>
</glyph>
<glyph name="hungarumlautcomb.case" format="1">
  <outline>
    <component base="acutecomb.case" xOffset="-107" yOffset="10"/>
    <component base="acutecomb.case" xOffset="143" yOffset="10"/>
    <contour>
      <point x="0" y="712" type="move" name="_top"/>
    </contour>
  </outline>
</glyph>
<glyph name="l.italic" format="1">
  <advance width="600.0"/>
  <outline>
    <contour>
      <point x="172.65002712967987" y="750.0" type="curve"/>
      <point x="161.98480737927292" y="708.5236028214867"/>
      <point x="151.31958762886597" y="665.8090070537168"/>
      <point x="141.4161692892024" y="624.3326098752035" type="curve" smooth="yes"/>
      <point x="139.89256646771568" y="618.3326098752035"/>
      <point x="143.36896364622896" y="613.3326098752035"/>
      <point x="149.36896364622896" y="613.3326098752035" type="curve" smooth="yes"/>
      <point x="226.36896364622896" y="613.3326098752035"/>
      <point x="266.36896364622896" y="613.3326098752035"/>
      <point x="343.36896364622896" y="613.3326098752035" type="curve"/>
      <point x="375.3646228974498" y="740.0"/>
      <point x="372.65002712967987" y="750.0"/>
      <point x="352.65002712967987" y="750.0" type="curve"/>
      <point x="293.65002712967987" y="750.0"/>
      <point x="231.65002712967987" y="750.0"/>
    </contour>
    <contour>
      <point x="498.8882257189365" y="747.0" type="curve" smooth="yes"/>
      <point x="497.65002712967987" y="749.0"/>
      <point x="494.65002712967987" y="750.0"/>
      <point x="491.65002712967987" y="750.0" type="curve" smooth="yes"/>
      <point x="352.65002712967987" y="750.0" type="line"/>
      <point x="204.86055344546935" y="165.23819858925665" type="line" smooth="yes"/>
      <point x="186.57731958762886" y="92.0"/>
      <point x="238.7211068909387" y="67.0"/>
      <point x="329.7211068909387" y="67.0" type="curve"/>
      <point x="338.1009224091156" y="99.4763971785133"/>
      <point x="347.24253933803584" y="135.19099294628325"/>
      <point x="354.86055344546935" y="166.66739012479653" type="curve" smooth="yes"/>
      <point x="499.60282148670643" y="739.0" type="line" smooth="yes"/>
      <point x="500.3646228974498" y="742.0"/>
      <point x="500.1264243081931" y="745.0"/>
    </contour>
    <contour>
      <point x="517.2425393380358" y="136.66739012479653" type="curve"/>
      <point x="497.24253933803584" y="136.66739012479653" type="line"/>
      <point x="429.24253933803584" y="136.66739012479653"/>
      <point x="458.24253933803584" y="136.66739012479653"/>
      <point x="377.24253933803584" y="136.66739012479653" type="curve"/>
      <point x="352.24253933803584" y="136.66739012479653"/>
      <point x="349.52794357026585" y="145.66739012479653"/>
      <point x="354.86055344546935" y="166.66739012479653" type="curve"/>
      <point x="219.71676614215954" y="186.66739012479653"/>
      <point x="204.86055344546935" y="170.28757460661964"/>
      <point x="204.86055344546935" y="165.23819858925665" type="curve" smooth="yes"/>
      <point x="179.7211068909387" y="63.14161692892024"/>
      <point x="230.2447097124254" y="0.0"/>
      <point x="340.15029842647857" y="0.0" type="curve" smooth="yes"/>
      <point x="471.96147585458493" y="0.0" type="line" smooth="yes"/>
      <point x="474.96147585458493" y="0.0"/>
      <point x="477.96147585458493" y="1.0"/>
      <point x="480.7232772653283" y="3.0" type="curve" smooth="yes"/>
      <point x="483.4850786760716" y="5.0"/>
      <point x="485.246880086815" y="8.0"/>
      <point x="486.0086814975583" y="11.0" type="curve"/>
      <point x="495.91209983722194" y="52.476397178513295"/>
      <point x="506.5773195876289" y="95.19099294628325"/>
    </contour>
  </outline>
</glyph>
<glyph name="ringcomb.case" format="1">
  <outline>
    <contour>
      <point x="0.0" y="701" type="curve"/>
      <point x="-34.59375" y="701.0"/>
      <point x="-54" y="719.0769230769231"/>
      <point x="-54" y="748" type="curve" smooth="yes"/>
      <point x="-54" y="762.0" type="line" smooth="yes"/>
      <point x="-54" y="792.0"/>
      <point x="-34.59375" y="809.0"/>
      <point x="0.0" y="809" type="curve" smooth="yes"/>
      <point x="40" y="809.0"/>
      <point x="60" y="809.0"/>
      <point x="87" y="809" type="curve"/>
      <point x="87.0" y="865.0"/>
      <point x="83.0" y="899.0"/>
      <point x="0.0" y="899.0" type="curve"/>
      <point x="-110.0" y="899.0"/>
      <point x="-173" y="848.0"/>
      <point x="-173" y="768" type="curve" smooth="yes"/>
      <point x="-173" y="742.0" type="line" smooth="yes"/>
      <point x="-173" y="663.0"/>
      <point x="-110.0" y="611.0"/>
      <point x="0.0" y="611" type="curve"/>
      <point x="0.0" y="611.0"/>
      <point x="12.528203470015306" y="626.8747961357427"/>
    </contour>
    <contour>
      <point x="0.0" y="809" type="curve"/>
      <point x="34.59375" y="809.0"/>
      <point x="54" y="792.0"/>
      <point x="54" y="762.0" type="curve" smooth="yes"/>
      <point x="54" y="748" type="line" smooth="yes"/>
      <point x="54" y="719.0"/>
      <point x="34.59375" y="701.0"/>
      <point x="0.0" y="701" type="curve" smooth="yes"/>
      <point x="-40" y="701.0"/>
      <point x="-60" y="701.0"/>
      <point x="-87" y="701" type="curve"/>
      <point x="-87.0" y="649.1176470588235"/>
      <point x="-83.0" y="611.0"/>
      <point x="0.0" y="611" type="curve"/>
      <point x="110.0" y="611.0"/>
      <point x="173" y="663.0"/>
      <point x="173" y="742.0" type="curve" smooth="yes"/>
      <point x="173" y="768" type="line" smooth="yes"/>
      <point x="173" y="848.0"/>
      <point x="110.0" y="899.0"/>
      <point x="0.0" y="899.0" type="curve"/>
      <point x="0.0" y="899.0"/>
      <point x="-9.0" y="887.0"/>
    </contour>
    <contour>
      <point x="0" y="892" type="move" name="top"/>
    </contour>
    <contour>
      <point x="0" y="700" type="move" name="_ring"/>
    </contour>
  </outline>
</glyph>
<glyph name="y.italic" format="1">
  <advance width="600.0"/>
  <outline>
    <contour>
      <point x="153.79815518176883" y="540.0" type="curve"/>
      <point x="146.94194248507867" y="512.0"/>
      <point x="137.80032555615844" y="478.0"/>
      <point x="128.65870862723818" y="442.0" type="curve" smooth="yes"/>
      <point x="58.57297883884971" y="159.71242539338036" type="line"/>
      <point x="41.05154639175258" y="90.71242539338036"/>
      <point x="148.00434074877916" y="79.66521975040695"/>
      <point x="235.47856755290286" y="134.950623982637" type="curve"/>
      <point x="222.00217037438958" y="149.90341833966357"/>
      <point x="218.5729788388497" y="163.0472056429734"/>
      <point x="226.19099294628325" y="193.0472056429734" type="curve" smooth="yes"/>
      <point x="310.75094953879545" y="529.0" type="line" smooth="yes"/>
      <point x="312.27455236028214" y="535.0"/>
      <point x="308.79815518176883" y="540.0"/>
      <point x="302.79815518176883" y="540.0" type="curve" smooth="yes"/>
      <point x="252.79815518176883" y="540.0"/>
      <point x="203.79815518176883" y="540.0"/>
    </contour>
    <contour>
      <point x="153.197504069452" y="1.7124253933803573" type="curve" smooth="yes"/>
      <point x="203.19750406945195" y="1.7124253933803573"/>
      <point x="267.6717308735757" y="24.665219750406944"/>
      <point x="349.6223548562127" y="101.71242539338036" type="curve" smooth="yes"/>
      <point x="384.95496473141617" y="134.4742268041237"/>
      <point x="426.33478024959305" y="185.37981551817688"/>
      <point x="401.57297883884974" y="263.75963103635377" type="curve"/>
      <point x="344.4763971785133" y="188.75963103635377"/>
      <point x="291.0021703743896" y="156.37981551817688"/>
      <point x="242.90775908844276" y="156.37981551817688" type="curve" smooth="yes"/>
      <point x="199.7167661421595" y="156.37981551817688"/>
      <point x="171.38198589256646" y="177.37981551817688"/>
      <point x="161.14161692892026" y="243.37981551817688" type="curve"/>
      <point x="105.33260987520347" y="229.37981551817688"/>
      <point x="69.23819858925665" y="203.71242539338036"/>
      <point x="58.57297883884971" y="159.71242539338036" type="curve" smooth="yes"/>
      <point x="36.480737927292466" y="72.71242539338036"/>
      <point x="70.19750406945198" y="1.7124253933803573"/>
    </contour>
    <contour>
      <point x="475.15029842647857" y="-6.0" type="curve" smooth="yes"/>
      <point x="610.7509495387955" y="529.0" type="line" smooth="yes"/>
      <point x="612.2745523602821" y="535.0"/>
      <point x="608.7981551817688" y="540.0"/>
      <point x="602.7981551817688" y="540.0" type="curve" smooth="yes"/>
      <point x="552.7981551817688" y="540.0"/>
      <point x="503.79815518176883" y="540.0"/>
      <point x="455.3217580032556" y="540.0" type="curve"/>
      <point x="325.0537167661422" y="26.61801410743353" type="line" smooth="yes"/>
      <point x="304.4850786760716" y="-55.09658166033641"/>
      <point x="276.53445469343467" y="-101.23819858925665"/>
      <point x="206.0623982637005" y="-130.049376017363" type="curve"/>
      <point x="296.3478024959305" y="-209.33260987520347"/>
      <point x="446.20184481823117" y="-120.0"/>
    </contour>
    <contour>
      <point x="168.48941942485078" y="-105.33260987520346" type="curve" smooth="yes"/>
      <point x="121.67824199674445" y="-105.33260987520346"/>
      <point x="74.24905046120458" y="-97.57080846446013"/>
      <point x="27.8670645686381" y="-75.33260987520347" type="curve"/>
      <point x="7.867064568638099" y="-75.33260987520347" type="line"/>
      <point x="-2.0363537710255173" y="-116.76180141074336"/>
      <point x="-12.701573521432465" y="-159.19099294628325"/>
      <point x="-23.366793271839384" y="-201.38198589256646" type="curve" smooth="yes"/>
      <point x="-24.128594682582758" y="-204.38198589256646"/>
      <point x="-23.890396093326103" y="-207.38198589256646"/>
      <point x="-21.890396093326103" y="-209.38198589256646" type="curve" smooth="yes"/>
      <point x="-9.175800325556168" y="-226.66739012479653"/>
      <point x="58.15897992403691" y="-250.0"/>
      <point x="141.82637004883344" y="-250.0" type="curve" smooth="yes"/>
      <point x="324.68258274552363" y="-250.0"/>
      <point x="428.680412371134" y="-182.75963103635377"/>
      <point x="475.15029842647857" y="-6.0" type="curve" smooth="yes"/>
      <point x="484.2919153553988" y="29.238198589256648"/>
      <point x="439.7683125339121" y="40.0"/>
      <point x="392.7211068909387" y="40.0" type="curve"/>
      <point x="329.4872490504612" y="-67.61801410743354"/>
      <point x="268.4422137818774" y="-105.33260987520346"/>
    </contour>
  </outline>
</glyph>
